<svg width="38" height="38" viewBox="0 0 38 38" fill="none" xmlns="http://www.w3.org/2000/svg">
<path fill-rule="evenodd" clip-rule="evenodd" d="M31.6667 6.33333V31.6667H6.33333V6.33333H31.6667ZM16.996 12.6667H14.5288L9.84478 25.3333H12.0706L12.9549 22.8571H18.5621L19.4275 25.3333H21.7874L16.996 12.6667ZM25.7384 12.6667H23.5216V25.3333H25.7384V12.6667ZM15.7437 14.7918L17.9519 21.1111H13.5707L15.7437 14.7918ZM33.7778 25.3333H38V29.5556H33.7778V25.3333ZM8.44444 33.7778H12.6667V38H8.44444V33.7778ZM16.8889 33.7778H21.1111V38H16.8889V33.7778ZM8.44444 0H12.6667V4.22222H8.44444V0ZM25.3333 33.7778H29.5556V38H25.3333V33.7778ZM16.8889 0H21.1111V4.22222H16.8889V0ZM25.3333 0H29.5556V4.22222H25.3333V0ZM33.7778 16.8889H38V21.1111H33.7778V16.8889ZM0 25.3333H4.22222V29.5556H0V25.3333ZM33.7778 8.44444H38V12.6667H33.7778V8.44444ZM0 16.8889H4.22222V21.1111H0V16.8889ZM0 8.44444H4.22222V12.6667H0V8.44444Z" fill="#2871DE"/>
</svg>
