<svg width="152" height="98" viewBox="0 0 152 98" fill="none" xmlns="http://www.w3.org/2000/svg">
<path d="M27.351 79.6818C45.182 83.1767 63.4899 76.7508 77.2716 65.3497C87.1392 83.0292 109.089 82.5917 123.126 70.1294C134.481 60.7257 141.294 46.6091 142.763 32.0585C143.856 24.1355 143.871 16.0829 142.36 8.21358C141.961 7.2697 142.544 4.88254 140.95 5.17251C139.044 6.08996 141.223 10.4236 141.081 12.293C142.133 19.1779 141.616 26.1871 140.618 33.0481C138.904 46.3847 132.46 59.2159 121.974 67.8052C108.681 79.3785 88.9952 79.827 79.8783 63.0677C93.9658 51.5255 109.25 14.7748 83.9108 7.82854C57.2934 8.1597 67.5374 47.686 75.5266 62.387C62.0254 73.4541 44.6658 78.9253 27.351 79.6818ZM79.4899 11.907C86.9755 10.6117 93.4677 18.3199 93.5173 25.3773C93.6247 38.4224 87.7597 51.2551 78.1587 60.0536C72.5987 48.4137 62.3586 17.6573 79.4899 11.907Z" fill="#102D59"/>
<path d="M40.8066 92.6853C41.5285 93.5329 43.3776 93.0827 43.3362 91.8329C42.5269 89.7596 36.6263 89.8429 34.4812 89.1863C26.8325 88.2494 19.2938 86.4746 12.7711 82.2135C18.0021 75.8485 22.7994 69.11 26.1019 61.529L26.1028 61.5277L26.103 61.5261L26.1024 61.5246L26.1012 61.5236C22.3151 66.1758 18.5438 70.8475 14.475 75.2614C12.5697 77.8325 9.00865 80.0778 8.93843 83.5068C16.6559 92.0058 30.3639 90.2611 40.8066 92.6853Z" fill="#102D59"/>
</svg>
