<svg width="63" height="63" viewBox="0 0 63 63" fill="none" xmlns="http://www.w3.org/2000/svg">
<path d="M23.9275 53.1389C30.3757 49.9443 34.585 43.5154 36.1732 36.612C43.533 39.795 50.3292 34.3722 51.7423 27.0735C53.0483 21.3826 51.7913 15.3034 48.7497 10.3744C47.1855 7.61998 45.2514 5.08429 42.8815 2.97367C42.5285 2.77314 42.137 1.88219 41.7058 2.35701C41.3273 3.10451 43.0559 3.94253 43.4614 4.56453C45.45 6.47609 46.9752 8.80452 48.3136 11.202C50.986 15.8082 52.0495 21.3944 50.8203 26.6203C49.4273 33.4601 43.3455 38.3412 36.4433 35.2668C38.0937 28.2454 34.0503 13.0095 24.4102 16.9267C16.1205 23.4401 28.8592 33.4018 34.9111 36.1006C33.3307 42.8314 29.1897 48.7318 23.9275 53.1389ZM24.0022 19.2736C26.044 17.0639 29.9415 17.9243 31.6564 20.1315C34.8313 24.2075 36.0771 29.6547 35.1769 34.7331C30.6258 32.4119 20.0002 25.2068 24.0022 19.2736Z" fill="#102D59"/>
<path d="M31.2896 53.9877C31.7207 54.0804 32.1937 53.4936 31.8797 53.1106C31.126 52.6535 29.2907 54.1005 28.4582 54.4106C25.8275 55.9578 23.0298 57.2149 19.9528 57.4457C20.0649 54.1847 19.9508 50.9108 19.1638 47.7319L19.1638 47.7312L19.1634 47.7307L19.1629 47.7303L19.1623 47.7303C19.092 50.1048 19.0311 52.4818 18.8145 54.8494C18.8345 56.1166 18.2555 57.6801 19.0591 58.7752C23.5322 59.5893 27.4223 55.74 31.2896 53.9877Z" fill="#102D59"/>
</svg>
