<svg width="25" height="25" viewBox="0 0 25 25" fill="none" xmlns="http://www.w3.org/2000/svg">
<path d="M5.68182 13.6364H1.13636C0.454545 13.6364 0 14.0909 0 14.7727V23.8636C0 24.5455 0.454545 25 1.13636 25H5.68182C6.36364 25 6.81818 24.5455 6.81818 23.8636V14.7727C6.81818 14.0909 6.36364 13.6364 5.68182 13.6364ZM23.8636 9.09091H19.3182C18.6364 9.09091 18.1818 9.54545 18.1818 10.2273V23.8636C18.1818 24.5455 18.6364 25 19.3182 25H23.8636C24.5455 25 25 24.5455 25 23.8636V10.2273C25 9.54545 24.5455 9.09091 23.8636 9.09091ZM14.7727 0H10.2273C9.54545 0 9.09091 0.454545 9.09091 1.13636V23.8636C9.09091 24.5455 9.54545 25 10.2273 25H14.7727C15.4545 25 15.9091 24.5455 15.9091 23.8636V1.13636C15.9091 0.454545 15.4545 0 14.7727 0Z" fill="#2871DE"/>
</svg>
