<svg width="26" height="36" viewBox="0 0 26 36" fill="none" xmlns="http://www.w3.org/2000/svg">
<path d="M21.125 23.7223V35.1671C21.125 35.3144 21.0869 35.4592 21.0146 35.5865C20.9422 35.7138 20.8382 35.8191 20.7131 35.8918C20.588 35.9644 20.4464 36.0017 20.3026 35.9999C20.1589 35.9982 20.0182 35.9573 19.8949 35.8816L13 31.6414L6.10512 35.8816C5.98169 35.9574 5.84083 35.9982 5.69695 35.9999C5.55306 36.0017 5.41131 35.9642 5.28619 35.8913C5.16108 35.8185 5.05708 35.7129 4.98483 35.5854C4.91258 35.4578 4.87468 35.3129 4.875 35.1655V23.724C2.77249 21.9987 1.24474 19.6468 0.502871 16.9932C-0.238996 14.3396 -0.158347 11.5154 0.733673 8.91081C1.62569 6.30622 3.28504 4.04989 5.4824 2.45363C7.67976 0.857373 10.3066 0 13 0C15.6934 0 18.3202 0.857373 20.5176 2.45363C22.715 4.04989 24.3743 6.30622 25.2663 8.91081C26.1583 11.5154 26.239 14.3396 25.4971 16.9932C24.7553 19.6468 23.2275 21.9987 21.125 23.724V23.7223ZM13 23.3143C15.5859 23.3143 18.0658 22.2615 19.8943 20.3875C21.7228 18.5136 22.75 15.9719 22.75 13.3217C22.75 10.6715 21.7228 8.1299 19.8943 6.25593C18.0658 4.38197 15.5859 3.32918 13 3.32918C10.4141 3.32918 7.93419 4.38197 6.10571 6.25593C4.27723 8.1299 3.25 10.6715 3.25 13.3217C3.25 15.9719 4.27723 18.5136 6.10571 20.3875C7.93419 22.2615 10.4141 23.3143 13 23.3143ZM13 19.9834C11.2761 19.9834 9.62279 19.2816 8.4038 18.0323C7.18482 16.783 6.5 15.0885 6.5 13.3217C6.5 11.5549 7.18482 9.86051 8.4038 8.6112C9.62279 7.36189 11.2761 6.66003 13 6.66003C14.7239 6.66003 16.3772 7.36189 17.5962 8.6112C18.8152 9.86051 19.5 11.5549 19.5 13.3217C19.5 15.0885 18.8152 16.783 17.5962 18.0323C16.3772 19.2816 14.7239 19.9834 13 19.9834Z" fill="#2871DE"/>
</svg>
