<svg width="37" height="38" viewBox="0 0 37 38" fill="none" xmlns="http://www.w3.org/2000/svg">
<path d="M30.2638 16.4557C30.2209 17.3254 29.561 18.3993 28.4976 19.4314V33.032C28.4964 33.3822 28.3585 33.6791 28.1253 33.911C27.8911 34.1383 27.5873 34.2728 27.23 34.2751H5.06543C4.71059 34.2728 4.40555 34.1383 4.17132 33.911C3.9382 33.6791 3.80141 33.3822 3.80022 33.032V11.2974C3.80141 10.9484 3.9382 10.6503 4.17132 10.4184C4.40555 10.1911 4.71059 10.0566 5.06543 10.0543H16.8372C17.7893 8.80415 18.8991 7.52387 20.1562 6.35033C20.162 6.34335 20.1666 6.33637 20.1724 6.32947H5.06543C3.67383 6.32828 2.39474 6.88841 1.48438 7.78371C0.569408 8.67901 -0.00118565 9.93145 1.84994e-06 11.2975V33.032C-0.00118565 34.3981 0.569408 35.6529 1.48438 36.5459C2.39467 37.441 3.67383 37.9999 5.06543 37.9999H27.2302C28.6241 37.9999 29.9033 37.441 30.8135 36.5457C31.7262 35.6528 32.2979 34.398 32.2967 33.0319V15.1012C32.2967 15.1012 32.2875 15.0896 32.2724 15.0779C31.696 15.572 31.0246 16.0428 30.2638 16.4557Z" fill="#2871DE"/>
<path d="M35.9775 0C35.9775 0 34.8131 1.73954 27.2081 4.31278C19.4533 6.93715 14.6801 17.6131 14.6801 17.6131C13.5309 19.8002 8.98842 28.8873 8.98842 28.8873C7.73717 31.2345 10.0298 32.6215 11.375 30.1978C13.9529 25.5451 15.617 21.2938 19.5368 21.1732C25.2551 20.9969 29.1655 16.0034 27.9351 16.2354C26.3161 16.9404 22.7467 16.2887 24.8492 15.964C29.8961 15.5593 33.0063 11.766 31.9927 11.5086C30.2034 12.1974 28.5346 11.5434 28.2076 11.3462C37.1151 10.263 35.9775 0 35.9775 0Z" fill="#2871DE" fill-opacity="0.5"/>
</svg>
