<svg width="24" height="18" viewBox="0 0 24 18" fill="none" xmlns="http://www.w3.org/2000/svg">
<path d="M24 16.5789C24 16.9558 23.8645 17.3173 23.6234 17.5838C23.3823 17.8503 23.0553 18 22.7143 18L1.28571 18C0.944721 18 0.617695 17.8503 0.376577 17.5838C0.135458 17.3173 -1.81606e-06 16.9558 -1.78312e-06 16.5789C-1.75017e-06 16.2021 0.135458 15.8406 0.376578 15.5741C0.617695 15.3076 0.944721 15.1579 1.28571 15.1579L22.7143 15.1579C23.0553 15.1579 23.3823 15.3076 23.6234 15.5741C23.8645 15.8406 24 16.2021 24 16.5789ZM24 9C24 9.37689 23.8645 9.73834 23.6234 10.0048C23.3823 10.2713 23.0553 10.4211 22.7143 10.4211L8.78102 10.4211C8.44003 10.4211 8.113 10.2713 7.87189 10.0048C7.63077 9.73834 7.49531 9.37689 7.49531 9C7.49531 8.62311 7.63077 8.26166 7.87189 7.99516C8.113 7.72867 8.44003 7.57895 8.78102 7.57895L22.7143 7.57895C23.0553 7.57895 23.3823 7.72867 23.6234 7.99517C23.8645 8.26167 24 8.62311 24 9ZM22.7143 2.84211C23.0553 2.84211 23.3823 2.69239 23.6234 2.42589C23.8645 2.15939 24 1.79794 24 1.42105C24 1.04417 23.8645 0.682718 23.6234 0.41622C23.3823 0.149721 23.0553 1.82476e-06 22.7143 1.79495e-06L1.28571 -7.83974e-08C0.944723 -1.08208e-07 0.617696 0.149719 0.376579 0.416218C0.13546 0.682716 -4.25023e-07 1.04417 -4.57971e-07 1.42105C-4.9092e-07 1.79794 0.135459 2.15939 0.376579 2.42589C0.617696 2.69239 0.944723 2.8421 1.28571 2.8421L22.7143 2.84211Z" fill="#2871DE"/>
</svg>
