<svg width="27" height="27" viewBox="0 0 27 27" fill="none" xmlns="http://www.w3.org/2000/svg">
<path d="M20.3029 26.8862H6.70582C6.14834 26.8862 5.68604 26.4239 5.68604 25.8664C5.68604 25.3089 6.14834 24.8466 6.70582 24.8466H20.3029C20.8604 24.8466 21.3227 25.3089 21.3227 25.8664C21.3227 26.4239 20.8604 26.8862 20.3029 26.8862Z" fill="#2871DE"/>
<path d="M24.858 4.47685L19.4192 8.36563C18.6985 8.88232 17.6652 8.56959 17.3524 7.74016L14.7826 0.887212C14.3475 -0.295737 12.675 -0.295737 12.2399 0.887212L9.65649 7.72657C9.34375 8.56959 8.32397 8.88232 7.60332 8.35203L2.16447 4.46326C1.0767 3.70182 -0.364593 4.77599 0.0841117 6.04052L5.74052 21.8812C5.93087 22.4251 6.44757 22.7786 7.01864 22.7786H19.9767C20.5478 22.7786 21.0644 22.4115 21.2548 21.8812L26.9112 6.04052C27.3735 4.77599 25.9322 3.70182 24.858 4.47685ZM16.9037 17.0271H10.1052C9.54771 17.0271 9.08541 16.5648 9.08541 16.0073C9.08541 15.4498 9.54771 14.9875 10.1052 14.9875H16.9037C17.4612 14.9875 17.9235 15.4498 17.9235 16.0073C17.9235 16.5648 17.4612 17.0271 16.9037 17.0271Z" fill="#2871DE"/>
</svg>
