<svg width="37" height="38" viewBox="0 0 37 38" fill="none" xmlns="http://www.w3.org/2000/svg">
<path d="M9.9523 32.5715H30.7618L36.1904 38V19C36.1904 17.0096 34.5618 15.381 32.5713 15.381H9.9523C7.96182 15.381 6.33325 17.0096 6.33325 19V28.9524C6.33325 30.9429 7.96182 32.5715 9.9523 32.5715Z" fill="#A6C9FF"/>
<path d="M22.4381 26.0572H19.1809L18.5476 27.9572H16.5571L19.9047 18.9095H21.6238L24.9714 27.9572H22.9809L22.4381 26.0572ZM19.6333 24.6095H21.8952L20.8095 21.1715L19.6333 24.6095Z" fill="#EAF1FC"/>
<path d="M26.2381 19H5.42857L0 24.4286V3.61905C0 1.62857 1.62857 0 3.61905 0H26.2381C28.2286 0 29.8571 1.62857 29.8571 3.61905V15.3809C29.8571 17.3714 28.2286 19 26.2381 19Z" fill="#2871DE"/>
<path d="M19.3618 9.22859C19.3618 10.1333 19.1809 10.8572 18.9094 11.4905C18.638 12.1238 18.2761 12.6667 17.7332 13.0286L19.2713 14.2048L18.0951 15.2905L16.1047 13.7524C15.9237 13.7524 15.6523 13.8429 15.3809 13.8429C14.838 13.8429 14.2951 13.7524 13.7523 13.5714C13.2999 13.3905 12.8475 13.0286 12.4856 12.6667C12.1237 12.3048 11.8523 11.7619 11.6713 11.2191C11.4904 10.6762 11.3999 10.0429 11.3999 9.31906V8.95716C11.3999 8.23335 11.4904 7.60002 11.6713 7.05716C11.8523 6.5143 12.1237 5.97144 12.4856 5.60954C12.8475 5.24764 13.2094 4.88573 13.7523 4.70478C14.2047 4.52383 14.7475 4.43335 15.3809 4.43335C15.9237 4.43335 16.4666 4.52383 17.0094 4.70478C17.4618 4.88573 17.9142 5.24764 18.2761 5.60954C18.638 5.97144 18.9094 6.5143 19.0904 7.05716C19.2713 7.60002 19.3618 8.23335 19.3618 8.95716V9.22859ZM17.3713 8.77621C17.3713 7.78097 17.1904 7.05716 16.8285 6.60478C16.4666 6.06192 16.0142 5.88097 15.3809 5.88097C14.7475 5.88097 14.2047 6.1524 13.9332 6.60478C13.5713 7.14764 13.3904 7.87144 13.3904 8.77621V9.22859C13.3904 9.68097 13.4809 10.1333 13.5713 10.4953C13.6618 10.8572 13.7523 11.2191 13.9332 11.4C14.1142 11.6714 14.2951 11.8524 14.5666 11.9429C14.838 12.0333 15.1094 12.1238 15.3809 12.1238C16.0142 12.1238 16.557 11.8524 16.8285 11.4C17.1904 10.8572 17.3713 10.1333 17.3713 9.13811V8.77621Z" fill="#EAF1FC"/>
</svg>
