<svg width="33" height="29" viewBox="0 0 33 29" fill="none" xmlns="http://www.w3.org/2000/svg">
<path d="M23.826 0C20.8395 0 18.1665 1.4337 16.5 3.63314C14.8335 1.4337 12.1605 0 9.174 0C4.1085 0 0 4.07302 0 9.10728C0 11.046 0.3135 12.8382 0.858 14.5C3.465 22.6461 11.5005 27.5174 15.477 28.8534C16.038 29.0489 16.962 29.0489 17.523 28.8534C21.4995 27.5174 29.535 22.6461 32.142 14.5C32.6865 12.8382 33 11.046 33 9.10728C33 4.07302 28.8915 0 23.826 0ZM21.186 13.4899L15.345 19.2573C15.114 19.4854 14.685 19.6972 14.3715 19.7461L12.144 20.0393C11.3355 20.1534 10.7745 19.5995 10.89 18.8011L11.2035 16.6017C11.253 16.2922 11.4675 15.8523 11.6985 15.6405L17.5395 9.87301C18.546 8.87919 19.7175 8.40672 21.2025 9.87301C22.671 11.3394 22.1925 12.4961 21.186 13.4899Z" fill="#2871DE"/>
</svg>
