<svg width="43" height="27" viewBox="0 0 43 27" fill="none" xmlns="http://www.w3.org/2000/svg">
<path d="M27.0779 10.1378C27.0779 8.12297 28.2598 6.463 30.5191 6.09229C30.83 6.19579 31.1615 6.25382 31.5069 6.25382C31.8521 6.25382 32.1841 6.19579 32.4951 6.09229C34.7533 6.46309 35.9358 8.12305 35.9358 10.1378H31.5068H27.0779Z" fill="#2871DE"/>
<path d="M31.5071 5.5356C30.1679 5.5356 29.0828 4.45046 29.0828 3.112V2.42418C29.0828 1.08505 30.1679 0 31.5071 0C32.8461 0 33.9307 1.08514 33.9307 2.42418V3.112C33.9307 4.45054 32.8461 5.5356 31.5071 5.5356Z" fill="#2871DE"/>
<path d="M16.8541 10.1378C16.8541 8.12297 18.0366 6.463 20.296 6.09229C20.6069 6.19579 20.9378 6.25382 21.2831 6.25382C21.6284 6.25382 21.9604 6.19579 22.2714 6.09229C24.5302 6.46309 25.7122 8.12305 25.7122 10.1378H21.2831H16.8541Z" fill="#2871DE" fill-opacity="0.5"/>
<path d="M21.2833 5.5356C19.9448 5.5356 18.8597 4.45046 18.8597 3.112V2.42418C18.8597 1.08505 19.9448 0 21.2833 0C22.6225 0 23.7075 1.08514 23.7075 2.42418V3.112C23.7075 4.45054 22.6225 5.5356 21.2833 5.5356Z" fill="#2871DE"/>
<path d="M6.63118 10.1378C6.63118 8.12297 7.81367 6.463 10.0724 6.09229C10.3834 6.19579 10.7149 6.25382 11.0596 6.25382C11.4055 6.25382 11.7369 6.19579 12.0479 6.09229C14.3066 6.46309 15.4885 8.12305 15.4885 10.1378H11.0595H6.63118Z" fill="#2871DE"/>
<path d="M11.0594 5.5356C9.7214 5.5356 8.63568 4.45046 8.63568 3.112V2.42418C8.63568 1.08505 9.72132 0 11.0594 0C12.3985 0 13.4841 1.08514 13.4841 2.42418V3.112C13.4841 4.45054 12.3985 5.5356 11.0594 5.5356Z" fill="#2871DE"/>
<path d="M0.0657196 25.8796L6.00421 12.0829C6.13158 11.788 6.42149 11.597 6.74241 11.597H35.8246C36.1455 11.597 36.4355 11.7879 36.5622 12.0824L42.5019 25.8796C42.6086 26.1275 42.5838 26.413 42.4355 26.6387C42.2866 26.864 42.0348 27.0001 41.7642 27.0001H27.889C26.9334 25.3848 25.286 24.2129 22.9742 23.8338C22.4418 24.0103 21.8741 24.1099 21.2831 24.1099C20.6921 24.1099 20.1244 24.0103 19.592 23.8338C17.2807 24.2129 15.6334 25.3848 14.6783 27.0001H0.80267C0.532635 27.0001 0.280304 26.864 0.132069 26.6387C-0.0161705 26.413 -0.0416107 26.1275 0.0657196 25.8796ZM17.1343 18.732C17.1343 21.0234 18.9919 22.881 21.2833 22.881C23.5753 22.881 25.4323 21.0234 25.4323 18.732V17.5545C25.4323 15.2631 23.5752 13.4055 21.2833 13.4055C18.9919 13.4055 17.1343 15.2631 17.1343 17.5545V18.732Z" fill="#2871DE"/>
</svg>
