<svg width="29" height="36" viewBox="0 0 29 36" fill="none" xmlns="http://www.w3.org/2000/svg">
<rect x="7.53491" y="15.907" width="16.7442" height="15.907" fill="#2871DE" fill-opacity="0.2"/>
<path fill-rule="evenodd" clip-rule="evenodd" d="M14.4 0V11.7C14.4 13.1035 15.4708 14.2568 16.84 14.3876L17.1 14.4H28.8V32.4C28.8 34.2979 27.3315 35.8527 25.4687 35.9901L25.2 36H3.6C1.70215 36 0.147302 34.5315 0.00987396 32.6687L0 32.4V3.6C0 1.70215 1.46858 0.147303 3.33133 0.00987439L3.6 0H14.4ZM14.4 17.1C13.4769 17.1 12.7161 17.7948 12.6121 18.6901L12.6 18.9V21.6H9.9C8.9059 21.6 8.1 22.4059 8.1 23.4C8.1 24.3231 8.79488 25.0839 9.69008 25.1879L9.9 25.2H12.6V27.9C12.6 28.8941 13.4059 29.7 14.4 29.7C15.3231 29.7 16.0839 29.0052 16.1879 28.1099L16.2 27.9V25.2H18.9C19.8941 25.2 20.7 24.3941 20.7 23.4C20.7 22.4769 20.0052 21.7161 19.1099 21.6121L18.9 21.6H16.2V18.9C16.2 17.9059 15.3941 17.1 14.4 17.1ZM18 0.078048C18.58 0.200844 19.1233 0.465632 19.5794 0.851497L19.8 1.05442L27.7456 9C28.1712 9.42564 28.4793 9.9469 28.6488 10.5133L28.7219 10.8H18V0.078048Z" fill="#2871DE"/>
</svg>
