<svg width="36" height="31" viewBox="0 0 36 31" fill="none" xmlns="http://www.w3.org/2000/svg">
<path d="M28.6206 0H6.40009C2.87162 0 0 2.87617 0 6.40464V19.4051C0 22.9335 2.87162 25.8059 6.40009 25.8059H20.338L23.3226 30.0792C23.7246 30.6572 24.3837 30.9985 25.0884 31C25.7922 31.0015 26.4529 30.6587 26.8587 30.0822L29.9882 25.6489C32.8643 25.0269 35.0283 22.4671 35.0283 19.4051V6.40464C35.0283 2.87617 32.1499 0 28.6206 0ZM17.5142 17.5748C18.5449 17.5748 19.3815 18.4289 19.3815 19.4824C19.3815 20.5359 18.5449 21.3885 17.5142 21.3885C16.4834 21.3885 15.6468 20.5359 15.6468 19.4824C15.6468 18.4289 16.4826 17.5748 17.5142 17.5748ZM15.6521 14.371V6.50703C15.6521 5.4535 16.4606 4.59945 17.5142 4.59945C18.5684 4.59945 19.3762 5.4535 19.3762 6.50703V14.371C19.3762 15.4245 18.5684 16.2786 17.5142 16.2786C16.4606 16.2786 15.6521 15.4238 15.6521 14.371Z" fill="#2871DE"/>
<rect x="9.05908" y="3.62362" width="16.3063" height="18.722" fill="#2871DE"/>
<path d="M17.5774 7.54218C16.7048 7.54218 15.9974 8.2496 15.9974 9.12225C15.9974 9.70401 15.5257 10.1756 14.944 10.1756C14.3622 10.1756 13.8906 9.70401 13.8906 9.12225C13.8906 7.08607 15.5413 5.43543 17.5774 5.43543C19.6136 5.43543 21.2643 7.08607 21.2643 9.12225C21.2643 10.4753 20.5348 11.6568 19.4529 12.297C19.1765 12.4605 18.9484 12.639 18.7998 12.8141C18.6554 12.9841 18.6308 13.095 18.6308 13.1602V14.9158C18.6308 15.4976 18.1592 15.9692 17.5774 15.9692C16.9957 15.9692 16.5241 15.4976 16.5241 14.9158V13.1602C16.5241 12.4497 16.8352 11.8731 17.1935 11.4509C17.5474 11.0338 17.9888 10.7152 18.3801 10.4838C18.8477 10.2071 19.1575 9.70027 19.1575 9.12225C19.1575 8.2496 18.4501 7.54218 17.5774 7.54218Z" fill="white"/>
<path d="M17.5774 20.5338C18.3531 20.5338 18.9819 19.905 18.9819 19.1293C18.9819 18.3536 18.3531 17.7248 17.5774 17.7248C16.8016 17.7248 16.1729 18.3536 16.1729 19.1293C16.1729 19.905 16.8016 20.5338 17.5774 20.5338Z" fill="white"/>
</svg>
