<svg width="384" height="289" viewBox="0 0 384 289" fill="none" xmlns="http://www.w3.org/2000/svg">
<circle cx="191.884" cy="153.792" r="135.208" fill="#EAF1FC"/>
<path fill-rule="evenodd" clip-rule="evenodd" d="M332.322 17.7383C331.408 16.7567 329.871 16.7022 328.889 17.6165C327.908 18.5308 327.853 20.0677 328.767 21.0493C331.8 24.3057 334.719 27.6704 337.516 31.137C338.358 32.181 339.887 32.3444 340.931 31.5021C341.975 30.6598 342.139 29.1306 341.296 28.0866C338.427 24.5304 335.433 21.0788 332.322 17.7383ZM349.514 39.0462C348.748 37.945 347.234 37.6733 346.133 38.4393C345.031 39.2053 344.76 40.719 345.526 41.8202C348.064 45.4697 350.476 49.2138 352.755 53.0462C353.44 54.1992 354.931 54.5782 356.084 53.8926C357.237 53.207 357.616 51.7166 356.93 50.5635C354.592 46.6315 352.118 42.7903 349.514 39.0462ZM363.506 62.5805C362.904 61.3814 361.445 60.8969 360.246 61.4982C359.047 62.0996 358.562 63.5592 359.163 64.7583C361.154 68.7272 363.007 72.7767 364.718 76.9006C365.231 78.1397 366.652 78.7276 367.892 78.2138C369.131 77.7 369.719 76.2789 369.205 75.0398C367.45 70.8081 365.548 66.6528 363.506 62.5805ZM373.993 87.8726C373.57 86.5998 372.195 85.9112 370.922 86.3347C369.649 86.7582 368.961 88.1333 369.384 89.4062C370.784 93.6137 372.038 97.8877 373.141 102.222C373.472 103.522 374.794 104.308 376.094 103.977C377.394 103.646 378.18 102.324 377.849 101.024C376.717 96.5762 375.43 92.1903 373.993 87.8726ZM380.747 114.406C380.511 113.086 379.248 112.207 377.928 112.444C376.608 112.681 375.729 113.943 375.966 115.264C376.747 119.621 377.377 124.031 377.851 128.488C377.993 129.822 379.189 130.788 380.523 130.646C381.857 130.505 382.824 129.308 382.682 127.974C382.196 123.402 381.549 118.877 380.747 114.406ZM383.645 141.631C383.598 140.29 382.473 139.241 381.133 139.288C379.792 139.336 378.744 140.461 378.791 141.801C378.869 144.021 378.908 146.251 378.908 148.49C378.908 150.73 378.869 152.96 378.791 155.18C378.744 156.52 379.792 157.645 381.133 157.692C382.473 157.74 383.598 156.691 383.646 155.35C383.726 153.074 383.766 150.787 383.766 148.49C383.766 146.194 383.726 143.907 383.645 141.631ZM382.682 169.006C382.824 167.673 381.857 166.476 380.523 166.334C379.189 166.193 377.993 167.159 377.851 168.493C377.377 172.95 376.747 177.36 375.966 181.717C375.729 183.038 376.608 184.3 377.928 184.537C379.248 184.773 380.511 183.895 380.747 182.575C381.549 178.103 382.196 173.579 382.682 169.006ZM377.849 195.957C378.18 194.657 377.394 193.335 376.094 193.004C374.794 192.673 373.472 193.459 373.141 194.759C372.038 199.093 370.784 203.367 369.384 207.575C368.961 208.848 369.649 210.223 370.922 210.646C372.195 211.07 373.57 210.381 373.993 209.108C375.43 204.791 376.717 200.405 377.849 195.957ZM369.205 221.941C369.719 220.702 369.131 219.281 367.892 218.767C366.652 218.253 365.231 218.841 364.718 220.08C363.007 224.204 361.154 228.254 359.163 232.223C358.562 233.422 359.047 234.881 360.246 235.483C361.445 236.084 362.904 235.6 363.506 234.4C365.548 230.328 367.45 226.173 369.205 221.941ZM356.93 246.417C357.616 245.264 357.237 243.774 356.084 243.088C354.931 242.403 353.44 242.782 352.755 243.935C350.476 247.767 348.064 251.511 345.526 255.161C344.76 256.262 345.031 257.776 346.133 258.542C347.234 259.308 348.748 259.036 349.514 257.935C352.118 254.191 354.592 250.349 356.93 246.417ZM341.296 268.894C342.139 267.85 341.975 266.321 340.931 265.479C339.887 264.636 338.358 264.8 337.516 265.844C334.719 269.31 331.8 272.675 328.767 275.932C327.853 276.913 327.908 278.45 328.889 279.364C329.871 280.279 331.408 280.224 332.322 279.243C335.433 275.902 338.427 272.451 341.296 268.894Z" fill="#EAF1FC"/>
<path fill-rule="evenodd" clip-rule="evenodd" d="M51.4461 17.7384C52.3604 16.7568 53.8973 16.7022 54.8789 17.6165C55.8605 18.5308 55.9151 20.0677 55.0008 21.0493C51.9676 24.3057 49.0493 27.6704 46.2523 31.137C45.41 32.181 43.8808 32.3445 42.8368 31.5022C41.7928 30.6598 41.6294 29.1306 42.4717 28.0867C45.341 24.5305 48.3347 21.0788 51.4461 17.7384ZM34.2545 39.0463C35.0205 37.9451 36.5342 37.6733 37.6354 38.4394C38.7367 39.2054 39.0084 40.719 38.2424 41.8203C35.7038 45.4697 33.292 49.2139 31.0132 53.0463C30.3277 54.1993 28.8372 54.5782 27.6842 53.8927C26.5312 53.2071 26.1522 51.7166 26.8378 50.5636C29.1758 46.6316 31.6502 42.7903 34.2545 39.0463ZM20.2624 62.5805C20.8638 61.3814 22.3233 60.8969 23.5224 61.4983C24.7215 62.0997 25.206 63.5593 24.6046 64.7583C22.614 68.7272 20.7606 72.7767 19.0505 76.9006C18.5366 78.1397 17.1156 78.7277 15.8765 78.2139C14.6373 77.7 14.0494 76.279 14.5633 75.0398C16.3181 70.8081 18.2199 66.6529 20.2624 62.5805ZM9.77462 87.8727C10.1981 86.5998 11.5732 85.9113 12.8461 86.3348C14.1189 86.7583 14.8075 88.1334 14.384 89.4062C12.9841 93.6138 11.7297 97.8877 10.6266 102.222C10.2958 103.522 8.97374 104.308 7.67376 103.977C6.37377 103.646 5.58809 102.324 5.9189 101.024C7.05083 96.5762 8.33809 92.1904 9.77462 87.8727ZM3.02071 114.406C3.25743 113.086 4.5197 112.208 5.84011 112.444C7.16048 112.681 8.03896 113.943 7.80223 115.264C7.02098 119.621 6.39064 124.031 5.91686 128.488C5.77504 129.822 4.57872 130.788 3.24483 130.647C1.91091 130.505 0.944508 129.308 1.08629 127.974C1.57238 123.402 2.21907 118.877 3.02071 114.406ZM0.122578 141.631C0.169666 140.29 1.29467 139.241 2.63527 139.289C3.97588 139.336 5.02446 140.461 4.97734 141.801C4.89931 144.021 4.85997 146.251 4.85997 148.491C4.85997 150.73 4.89931 152.96 4.97734 155.18C5.02446 156.52 3.97588 157.645 2.63527 157.693C1.29467 157.74 0.169666 156.691 0.122547 155.35C0.0425301 153.074 0.00218582 150.787 0.00218582 148.491C0.00218582 146.194 0.0425301 143.907 0.122578 141.631ZM1.08629 169.007C0.944508 167.673 1.91091 166.476 3.2448 166.334C4.57872 166.193 5.77504 167.159 5.91686 168.493C6.39064 172.95 7.02098 177.36 7.8022 181.717C8.03893 183.038 7.16048 184.3 5.84008 184.537C4.5197 184.773 3.2574 183.895 3.02068 182.575C2.21907 178.104 1.57238 173.579 1.08629 169.007ZM5.9189 195.957C5.58806 194.657 6.37374 193.335 7.67373 193.004C8.97374 192.673 10.2958 193.459 10.6266 194.759C11.7297 199.093 12.9841 203.367 14.384 207.575C14.8074 208.848 14.1189 210.223 12.8461 210.646C11.5732 211.07 10.1981 210.381 9.77462 209.108C8.33809 204.791 7.0508 200.405 5.9189 195.957ZM14.5632 221.941C14.0494 220.702 14.6373 219.281 15.8765 218.767C17.1156 218.253 18.5366 218.841 19.0505 220.08C20.7606 224.204 22.614 228.254 24.6046 232.223C25.206 233.422 24.7215 234.881 23.5224 235.483C22.3233 236.084 20.8638 235.6 20.2624 234.4C18.2199 230.328 16.318 226.173 14.5632 221.941ZM26.8378 246.417C26.1522 245.264 26.5311 243.774 27.6842 243.088C28.8372 242.403 30.3277 242.782 31.0132 243.935C33.292 247.767 35.7038 251.511 38.2424 255.161C39.0084 256.262 38.7366 257.776 37.6354 258.542C36.5342 259.308 35.0205 259.036 34.2545 257.935C31.6501 254.191 29.1757 250.349 26.8378 246.417ZM42.4717 268.894C41.6293 267.85 41.7928 266.321 42.8367 265.479C43.8808 264.637 45.4099 264.8 46.2523 265.844C49.0493 269.311 51.9676 272.675 55.0008 275.932C55.915 276.913 55.8605 278.45 54.8789 279.364C53.8973 280.279 52.3604 280.224 51.4461 279.243C48.3347 275.902 45.341 272.451 42.4717 268.894Z" fill="#EAF1FC"/>
<g filter="url(#filter0_d_165_4342)">
<rect x="75.2979" y="3.20129" width="162.735" height="46.9584" rx="9.71554" fill="white"/>
<rect x="86.6328" y="43.2421" width="29.1466" height="29.1466" rx="4.85777" transform="rotate(-45 86.6328 43.2421)" fill="white"/>
</g>
<path d="M113.362 25.4577C113.362 26.3857 113.042 27.1591 112.402 27.7777C111.772 28.3857 110.807 28.6897 109.506 28.6897H107.362V33.3457H105.906V22.1937H109.506C110.764 22.1937 111.719 22.4977 112.37 23.1057C113.031 23.7137 113.362 24.4977 113.362 25.4577ZM109.506 27.4897C110.316 27.4897 110.914 27.3137 111.298 26.9617C111.682 26.6097 111.874 26.1084 111.874 25.4577C111.874 24.0817 111.084 23.3937 109.506 23.3937H107.362V27.4897H109.506ZM116.627 26.0017C116.883 25.5004 117.246 25.1111 117.715 24.8337C118.195 24.5564 118.777 24.4177 119.459 24.4177V25.9217H119.075C117.443 25.9217 116.627 26.8071 116.627 28.5777V33.3457H115.171V24.5777H116.627V26.0017ZM124.964 33.4897C124.143 33.4897 123.396 33.3031 122.724 32.9297C122.063 32.5564 121.54 32.0284 121.156 31.3457C120.783 30.6524 120.596 29.8524 120.596 28.9457C120.596 28.0497 120.788 27.2604 121.172 26.5777C121.567 25.8844 122.1 25.3564 122.772 24.9937C123.444 24.6204 124.196 24.4337 125.028 24.4337C125.86 24.4337 126.612 24.6204 127.284 24.9937C127.956 25.3564 128.484 25.8791 128.868 26.5617C129.263 27.2444 129.46 28.0391 129.46 28.9457C129.46 29.8524 129.258 30.6524 128.852 31.3457C128.458 32.0284 127.919 32.5564 127.236 32.9297C126.554 33.3031 125.796 33.4897 124.964 33.4897ZM124.964 32.2097C125.487 32.2097 125.978 32.0871 126.436 31.8417C126.895 31.5964 127.263 31.2284 127.54 30.7377C127.828 30.2471 127.972 29.6497 127.972 28.9457C127.972 28.2417 127.834 27.6444 127.556 27.1537C127.279 26.6631 126.916 26.3004 126.468 26.0657C126.02 25.8204 125.535 25.6977 125.012 25.6977C124.479 25.6977 123.988 25.8204 123.54 26.0657C123.103 26.3004 122.751 26.6631 122.484 27.1537C122.218 27.6444 122.084 28.2417 122.084 28.9457C122.084 29.6604 122.212 30.2631 122.468 30.7537C122.735 31.2444 123.087 31.6124 123.524 31.8577C123.962 32.0924 124.442 32.2097 124.964 32.2097ZM134.943 25.7777H133.103V33.3457H131.647V25.7777H130.511V24.5777H131.647V23.9537C131.647 22.9724 131.897 22.2577 132.399 21.8097C132.911 21.3511 133.727 21.1217 134.847 21.1217V22.3377C134.207 22.3377 133.753 22.4657 133.487 22.7217C133.231 22.9671 133.103 23.3777 133.103 23.9537V24.5777H134.943V25.7777ZM144.64 28.6257C144.64 28.9031 144.624 29.1964 144.592 29.5057H137.584C137.638 30.3697 137.931 31.0471 138.464 31.5377C139.008 32.0177 139.664 32.2577 140.432 32.2577C141.062 32.2577 141.584 32.1137 142 31.8257C142.427 31.5271 142.726 31.1324 142.896 30.6417H144.464C144.23 31.4844 143.76 32.1724 143.056 32.7057C142.352 33.2284 141.478 33.4897 140.432 33.4897C139.6 33.4897 138.854 33.3031 138.192 32.9297C137.542 32.5564 137.03 32.0284 136.656 31.3457C136.283 30.6524 136.096 29.8524 136.096 28.9457C136.096 28.0391 136.278 27.2444 136.64 26.5617C137.003 25.8791 137.51 25.3564 138.16 24.9937C138.822 24.6204 139.579 24.4337 140.432 24.4337C141.264 24.4337 142 24.6151 142.64 24.9777C143.28 25.3404 143.771 25.8417 144.112 26.4817C144.464 27.1111 144.64 27.8257 144.64 28.6257ZM143.136 28.3217C143.136 27.7671 143.014 27.2924 142.768 26.8977C142.523 26.4924 142.187 26.1884 141.76 25.9857C141.344 25.7724 140.88 25.6657 140.368 25.6657C139.632 25.6657 139.003 25.9004 138.48 26.3697C137.968 26.8391 137.675 27.4897 137.6 28.3217H143.136ZM149.666 33.4897C148.994 33.4897 148.391 33.3777 147.858 33.1537C147.325 32.9191 146.903 32.5991 146.594 32.1937C146.285 31.7777 146.114 31.3031 146.082 30.7697H147.586C147.629 31.2071 147.831 31.5644 148.194 31.8417C148.567 32.1191 149.053 32.2577 149.65 32.2577C150.205 32.2577 150.642 32.1351 150.962 31.8897C151.282 31.6444 151.442 31.3351 151.442 30.9617C151.442 30.5777 151.271 30.2951 150.93 30.1137C150.589 29.9217 150.061 29.7351 149.346 29.5537C148.695 29.3831 148.162 29.2124 147.746 29.0417C147.341 28.8604 146.989 28.5991 146.69 28.2577C146.402 27.9057 146.258 27.4471 146.258 26.8817C146.258 26.4337 146.391 26.0231 146.658 25.6497C146.925 25.2764 147.303 24.9831 147.794 24.7697C148.285 24.5457 148.845 24.4337 149.474 24.4337C150.445 24.4337 151.229 24.6791 151.826 25.1697C152.423 25.6604 152.743 26.3324 152.786 27.1857H151.33C151.298 26.7271 151.111 26.3591 150.77 26.0817C150.439 25.8044 149.991 25.6657 149.426 25.6657C148.903 25.6657 148.487 25.7777 148.178 26.0017C147.869 26.2257 147.714 26.5191 147.714 26.8817C147.714 27.1697 147.805 27.4097 147.986 27.6017C148.178 27.7831 148.413 27.9324 148.69 28.0497C148.978 28.1564 149.373 28.2791 149.874 28.4177C150.503 28.5884 151.015 28.7591 151.41 28.9297C151.805 29.0897 152.141 29.3351 152.418 29.6657C152.706 29.9964 152.855 30.4284 152.866 30.9617C152.866 31.4417 152.733 31.8737 152.466 32.2577C152.199 32.6417 151.821 32.9457 151.33 33.1697C150.85 33.3831 150.295 33.4897 149.666 33.4897ZM158.025 33.4897C157.353 33.4897 156.751 33.3777 156.217 33.1537C155.684 32.9191 155.263 32.5991 154.953 32.1937C154.644 31.7777 154.473 31.3031 154.441 30.7697H155.945C155.988 31.2071 156.191 31.5644 156.553 31.8417C156.927 32.1191 157.412 32.2577 158.009 32.2577C158.564 32.2577 159.001 32.1351 159.321 31.8897C159.641 31.6444 159.801 31.3351 159.801 30.9617C159.801 30.5777 159.631 30.2951 159.289 30.1137C158.948 29.9217 158.42 29.7351 157.705 29.5537C157.055 29.3831 156.521 29.2124 156.105 29.0417C155.7 28.8604 155.348 28.5991 155.049 28.2577C154.761 27.9057 154.617 27.4471 154.617 26.8817C154.617 26.4337 154.751 26.0231 155.017 25.6497C155.284 25.2764 155.663 24.9831 156.153 24.7697C156.644 24.5457 157.204 24.4337 157.833 24.4337C158.804 24.4337 159.588 24.6791 160.185 25.1697C160.783 25.6604 161.103 26.3324 161.145 27.1857H159.689C159.657 26.7271 159.471 26.3591 159.129 26.0817C158.799 25.8044 158.351 25.6657 157.785 25.6657C157.263 25.6657 156.847 25.7777 156.537 26.0017C156.228 26.2257 156.073 26.5191 156.073 26.8817C156.073 27.1697 156.164 27.4097 156.345 27.6017C156.537 27.7831 156.772 27.9324 157.049 28.0497C157.337 28.1564 157.732 28.2791 158.233 28.4177C158.863 28.5884 159.375 28.7591 159.769 28.9297C160.164 29.0897 160.5 29.3351 160.777 29.6657C161.065 29.9964 161.215 30.4284 161.225 30.9617C161.225 31.4417 161.092 31.8737 160.825 32.2577C160.559 32.6417 160.18 32.9457 159.689 33.1697C159.209 33.3831 158.655 33.4897 158.025 33.4897ZM164.033 23.1537C163.755 23.1537 163.521 23.0577 163.329 22.8657C163.137 22.6737 163.041 22.4391 163.041 22.1617C163.041 21.8844 163.137 21.6497 163.329 21.4577C163.521 21.2657 163.755 21.1697 164.033 21.1697C164.299 21.1697 164.523 21.2657 164.705 21.4577C164.897 21.6497 164.993 21.8844 164.993 22.1617C164.993 22.4391 164.897 22.6737 164.705 22.8657C164.523 23.0577 164.299 23.1537 164.033 23.1537ZM164.737 24.5777V33.3457H163.281V24.5777H164.737ZM171.042 33.4897C170.221 33.4897 169.474 33.3031 168.802 32.9297C168.141 32.5564 167.618 32.0284 167.234 31.3457C166.861 30.6524 166.674 29.8524 166.674 28.9457C166.674 28.0497 166.866 27.2604 167.25 26.5777C167.645 25.8844 168.178 25.3564 168.85 24.9937C169.522 24.6204 170.274 24.4337 171.106 24.4337C171.938 24.4337 172.69 24.6204 173.362 24.9937C174.034 25.3564 174.562 25.8791 174.946 26.5617C175.341 27.2444 175.538 28.0391 175.538 28.9457C175.538 29.8524 175.336 30.6524 174.93 31.3457C174.536 32.0284 173.997 32.5564 173.314 32.9297C172.632 33.3031 171.874 33.4897 171.042 33.4897ZM171.042 32.2097C171.565 32.2097 172.056 32.0871 172.514 31.8417C172.973 31.5964 173.341 31.2284 173.618 30.7377C173.906 30.2471 174.05 29.6497 174.05 28.9457C174.05 28.2417 173.912 27.6444 173.634 27.1537C173.357 26.6631 172.994 26.3004 172.546 26.0657C172.098 25.8204 171.613 25.6977 171.09 25.6977C170.557 25.6977 170.066 25.8204 169.618 26.0657C169.181 26.3004 168.829 26.6631 168.562 27.1537C168.296 27.6444 168.162 28.2417 168.162 28.9457C168.162 29.6604 168.29 30.2631 168.546 30.7537C168.813 31.2444 169.165 31.6124 169.602 31.8577C170.04 32.0924 170.52 32.2097 171.042 32.2097ZM181.725 24.4177C182.791 24.4177 183.655 24.7431 184.317 25.3937C184.978 26.0337 185.309 26.9617 185.309 28.1777V33.3457H183.869V28.3857C183.869 27.5111 183.65 26.8444 183.213 26.3857C182.775 25.9164 182.178 25.6817 181.421 25.6817C180.653 25.6817 180.039 25.9217 179.581 26.4017C179.133 26.8817 178.909 27.5804 178.909 28.4977V33.3457H177.453V24.5777H178.909V25.8257C179.197 25.3777 179.586 25.0311 180.077 24.7857C180.578 24.5404 181.127 24.4177 181.725 24.4177ZM187.143 28.9297C187.143 28.0337 187.324 27.2497 187.687 26.5777C188.05 25.8951 188.546 25.3671 189.175 24.9937C189.815 24.6204 190.524 24.4337 191.303 24.4337C192.071 24.4337 192.738 24.5991 193.303 24.9297C193.868 25.2604 194.29 25.6764 194.567 26.1777V24.5777H196.039V33.3457H194.567V31.7137C194.279 32.2257 193.847 32.6524 193.271 32.9937C192.706 33.3244 192.044 33.4897 191.287 33.4897C190.508 33.4897 189.804 33.2977 189.175 32.9137C188.546 32.5297 188.05 31.9911 187.687 31.2977C187.324 30.6044 187.143 29.8151 187.143 28.9297ZM194.567 28.9457C194.567 28.2844 194.434 27.7084 194.167 27.2177C193.9 26.7271 193.538 26.3537 193.079 26.0977C192.631 25.8311 192.135 25.6977 191.591 25.6977C191.047 25.6977 190.551 25.8257 190.103 26.0817C189.655 26.3377 189.298 26.7111 189.031 27.2017C188.764 27.6924 188.631 28.2684 188.631 28.9297C188.631 29.6017 188.764 30.1884 189.031 30.6897C189.298 31.1804 189.655 31.5591 190.103 31.8257C190.551 32.0817 191.047 32.2097 191.591 32.2097C192.135 32.2097 192.631 32.0817 193.079 31.8257C193.538 31.5591 193.9 31.1804 194.167 30.6897C194.434 30.1884 194.567 29.6071 194.567 28.9457ZM199.956 21.5057V33.3457H198.5V21.5057H199.956ZM205.285 22.0497C206.341 22.0497 207.194 22.3484 207.845 22.9457C208.496 23.5431 208.821 24.3431 208.821 25.3457C208.821 26.4657 208.474 27.2977 207.781 27.8417C207.088 28.3751 206.149 28.6417 204.965 28.6417L204.917 30.1617H203.653L203.589 27.6337H204.053C205.109 27.6337 205.936 27.4737 206.533 27.1537C207.13 26.8337 207.429 26.2311 207.429 25.3457C207.429 24.7057 207.237 24.1991 206.853 23.8257C206.469 23.4524 205.952 23.2657 205.301 23.2657C204.64 23.2657 204.117 23.4471 203.733 23.8097C203.36 24.1617 203.173 24.6471 203.173 25.2657H201.797C201.797 24.6257 201.941 24.0657 202.229 23.5857C202.517 23.0951 202.922 22.7164 203.445 22.4497C203.978 22.1831 204.592 22.0497 205.285 22.0497ZM204.277 33.4417C204 33.4417 203.765 33.3457 203.573 33.1537C203.381 32.9617 203.285 32.7271 203.285 32.4497C203.285 32.1724 203.381 31.9377 203.573 31.7457C203.765 31.5537 204 31.4577 204.277 31.4577C204.544 31.4577 204.768 31.5537 204.949 31.7457C205.141 31.9377 205.237 32.1724 205.237 32.4497C205.237 32.7271 205.141 32.9617 204.949 33.1537C204.768 33.3457 204.544 33.4417 204.277 33.4417Z" fill="black"/>
<g filter="url(#filter1_d_165_4342)">
<rect x="75.2979" y="132.742" width="206.455" height="46.9584" rx="9.71554" fill="white"/>
<rect x="86.6328" y="172.783" width="29.1466" height="29.1466" rx="4.85777" transform="rotate(-45 86.6328 172.783)" fill="white"/>
</g>
<path d="M110.199 156.333C110.604 156.397 110.972 156.562 111.303 156.829C111.644 157.095 111.911 157.426 112.103 157.821C112.305 158.215 112.407 158.637 112.407 159.085C112.407 159.65 112.263 160.162 111.975 160.621C111.687 161.069 111.265 161.426 110.711 161.693C110.167 161.949 109.521 162.077 108.775 162.077H104.615V150.925H108.615C109.372 150.925 110.017 151.053 110.551 151.309C111.084 151.554 111.484 151.89 111.751 152.317C112.017 152.743 112.151 153.223 112.151 153.757C112.151 154.418 111.969 154.967 111.607 155.405C111.255 155.831 110.785 156.141 110.199 156.333ZM106.071 155.741H108.519C109.201 155.741 109.729 155.581 110.103 155.261C110.476 154.941 110.663 154.498 110.663 153.933C110.663 153.367 110.476 152.925 110.103 152.605C109.729 152.285 109.191 152.125 108.487 152.125H106.071V155.741ZM108.647 160.877C109.372 160.877 109.937 160.706 110.343 160.365C110.748 160.023 110.951 159.549 110.951 158.941C110.951 158.322 110.737 157.837 110.311 157.485C109.884 157.122 109.313 156.941 108.599 156.941H106.071V160.877H108.647ZM115.883 154.733C116.139 154.231 116.502 153.842 116.971 153.565C117.451 153.287 118.033 153.149 118.715 153.149V154.653H118.331C116.699 154.653 115.883 155.538 115.883 157.309V162.077H114.427V153.309H115.883V154.733ZM121.148 151.885C120.871 151.885 120.636 151.789 120.444 151.597C120.252 151.405 120.156 151.17 120.156 150.893C120.156 150.615 120.252 150.381 120.444 150.189C120.636 149.997 120.871 149.901 121.148 149.901C121.415 149.901 121.639 149.997 121.82 150.189C122.012 150.381 122.108 150.615 122.108 150.893C122.108 151.17 122.012 151.405 121.82 151.597C121.639 151.789 121.415 151.885 121.148 151.885ZM121.852 153.309V162.077H120.396V153.309H121.852ZM128.606 153.149C129.672 153.149 130.536 153.474 131.198 154.125C131.859 154.765 132.19 155.693 132.19 156.909V162.077H130.75V157.117C130.75 156.242 130.531 155.575 130.094 155.117C129.656 154.647 129.059 154.413 128.302 154.413C127.534 154.413 126.92 154.653 126.462 155.133C126.014 155.613 125.79 156.311 125.79 157.229V162.077H124.334V153.309H125.79V154.557C126.078 154.109 126.467 153.762 126.958 153.517C127.459 153.271 128.008 153.149 128.606 153.149ZM138.184 153.165C138.941 153.165 139.603 153.33 140.168 153.661C140.744 153.991 141.171 154.407 141.448 154.909V153.309H142.92V162.269C142.92 163.069 142.749 163.778 142.408 164.397C142.067 165.026 141.576 165.517 140.936 165.869C140.307 166.221 139.571 166.397 138.728 166.397C137.576 166.397 136.616 166.125 135.848 165.581C135.08 165.037 134.627 164.295 134.488 163.357H135.928C136.088 163.89 136.419 164.317 136.92 164.637C137.421 164.967 138.024 165.133 138.728 165.133C139.528 165.133 140.179 164.882 140.68 164.381C141.192 163.879 141.448 163.175 141.448 162.269V160.429C141.16 160.941 140.733 161.367 140.168 161.709C139.603 162.05 138.941 162.221 138.184 162.221C137.405 162.221 136.696 162.029 136.056 161.645C135.427 161.261 134.931 160.722 134.568 160.029C134.205 159.335 134.024 158.546 134.024 157.661C134.024 156.765 134.205 155.981 134.568 155.309C134.931 154.626 135.427 154.098 136.056 153.725C136.696 153.351 137.405 153.165 138.184 153.165ZM141.448 157.677C141.448 157.015 141.315 156.439 141.048 155.949C140.781 155.458 140.419 155.085 139.96 154.829C139.512 154.562 139.016 154.429 138.472 154.429C137.928 154.429 137.432 154.557 136.984 154.813C136.536 155.069 136.179 155.442 135.912 155.933C135.645 156.423 135.512 156.999 135.512 157.661C135.512 158.333 135.645 158.919 135.912 159.421C136.179 159.911 136.536 160.29 136.984 160.557C137.432 160.813 137.928 160.941 138.472 160.941C139.016 160.941 139.512 160.813 139.96 160.557C140.419 160.29 140.781 159.911 141.048 159.421C141.315 158.919 141.448 158.338 141.448 157.677ZM146.132 151.885C145.855 151.885 145.62 151.789 145.428 151.597C145.236 151.405 145.14 151.17 145.14 150.893C145.14 150.615 145.236 150.381 145.428 150.189C145.62 149.997 145.855 149.901 146.132 149.901C146.399 149.901 146.623 149.997 146.804 150.189C146.996 150.381 147.092 150.615 147.092 150.893C147.092 151.17 146.996 151.405 146.804 151.597C146.623 151.789 146.399 151.885 146.132 151.885ZM146.836 153.309V162.077H145.38V153.309H146.836ZM153.59 153.149C154.657 153.149 155.521 153.474 156.182 154.125C156.843 154.765 157.174 155.693 157.174 156.909V162.077H155.734V157.117C155.734 156.242 155.515 155.575 155.078 155.117C154.641 154.647 154.043 154.413 153.286 154.413C152.518 154.413 151.905 154.653 151.446 155.133C150.998 155.613 150.774 156.311 150.774 157.229V162.077H149.318V153.309H150.774V154.557C151.062 154.109 151.451 153.762 151.942 153.517C152.443 153.271 152.993 153.149 153.59 153.149ZM163.168 153.165C163.926 153.165 164.587 153.33 165.152 153.661C165.728 153.991 166.155 154.407 166.432 154.909V153.309H167.904V162.269C167.904 163.069 167.734 163.778 167.392 164.397C167.051 165.026 166.56 165.517 165.92 165.869C165.291 166.221 164.555 166.397 163.712 166.397C162.56 166.397 161.6 166.125 160.832 165.581C160.064 165.037 159.611 164.295 159.472 163.357H160.912C161.072 163.89 161.403 164.317 161.904 164.637C162.406 164.967 163.008 165.133 163.712 165.133C164.512 165.133 165.163 164.882 165.664 164.381C166.176 163.879 166.432 163.175 166.432 162.269V160.429C166.144 160.941 165.718 161.367 165.152 161.709C164.587 162.05 163.926 162.221 163.168 162.221C162.39 162.221 161.68 162.029 161.04 161.645C160.411 161.261 159.915 160.722 159.552 160.029C159.19 159.335 159.008 158.546 159.008 157.661C159.008 156.765 159.19 155.981 159.552 155.309C159.915 154.626 160.411 154.098 161.04 153.725C161.68 153.351 162.39 153.165 163.168 153.165ZM166.432 157.677C166.432 157.015 166.299 156.439 166.032 155.949C165.766 155.458 165.403 155.085 164.944 154.829C164.496 154.562 164 154.429 163.456 154.429C162.912 154.429 162.416 154.557 161.968 154.813C161.52 155.069 161.163 155.442 160.896 155.933C160.63 156.423 160.496 156.999 160.496 157.661C160.496 158.333 160.63 158.919 160.896 159.421C161.163 159.911 161.52 160.29 161.968 160.557C162.416 160.813 162.912 160.941 163.456 160.941C164 160.941 164.496 160.813 164.944 160.557C165.403 160.29 165.766 159.911 166.032 159.421C166.299 158.919 166.432 158.338 166.432 157.677ZM174.086 157.661C174.086 156.765 174.268 155.981 174.63 155.309C174.993 154.626 175.489 154.098 176.118 153.725C176.758 153.351 177.468 153.165 178.246 153.165C179.014 153.165 179.681 153.33 180.246 153.661C180.812 153.991 181.233 154.407 181.51 154.909V153.309H182.982V162.077H181.51V160.445C181.222 160.957 180.79 161.383 180.214 161.725C179.649 162.055 178.988 162.221 178.23 162.221C177.452 162.221 176.748 162.029 176.118 161.645C175.489 161.261 174.993 160.722 174.63 160.029C174.268 159.335 174.086 158.546 174.086 157.661ZM181.51 157.677C181.51 157.015 181.377 156.439 181.11 155.949C180.844 155.458 180.481 155.085 180.022 154.829C179.574 154.562 179.078 154.429 178.534 154.429C177.99 154.429 177.494 154.557 177.046 154.813C176.598 155.069 176.241 155.442 175.974 155.933C175.708 156.423 175.574 156.999 175.574 157.661C175.574 158.333 175.708 158.919 175.974 159.421C176.241 159.911 176.598 160.29 177.046 160.557C177.494 160.813 177.99 160.941 178.534 160.941C179.078 160.941 179.574 160.813 180.022 160.557C180.481 160.29 180.844 159.911 181.11 159.421C181.377 158.919 181.51 158.338 181.51 157.677ZM187.219 154.509V159.677C187.219 160.103 187.31 160.407 187.491 160.589C187.672 160.759 187.987 160.845 188.435 160.845H189.507V162.077H188.195C187.384 162.077 186.776 161.89 186.371 161.517C185.966 161.143 185.763 160.53 185.763 159.677V154.509H184.627V153.309H185.763V151.101H187.219V153.309H189.507V154.509H187.219ZM193.047 154.509V159.677C193.047 160.103 193.138 160.407 193.319 160.589C193.5 160.759 193.815 160.845 194.263 160.845H195.335V162.077H194.023C193.212 162.077 192.604 161.89 192.199 161.517C191.794 161.143 191.591 160.53 191.591 159.677V154.509H190.455V153.309H191.591V151.101H193.047V153.309H195.335V154.509H193.047ZM205.099 157.357C205.099 157.634 205.083 157.927 205.051 158.237H198.043C198.097 159.101 198.39 159.778 198.923 160.269C199.467 160.749 200.123 160.989 200.891 160.989C201.521 160.989 202.043 160.845 202.459 160.557C202.886 160.258 203.185 159.863 203.355 159.373H204.923C204.689 160.215 204.219 160.903 203.515 161.437C202.811 161.959 201.937 162.221 200.891 162.221C200.059 162.221 199.313 162.034 198.651 161.661C198.001 161.287 197.489 160.759 197.115 160.077C196.742 159.383 196.555 158.583 196.555 157.677C196.555 156.77 196.737 155.975 197.099 155.293C197.462 154.61 197.969 154.087 198.619 153.725C199.281 153.351 200.038 153.165 200.891 153.165C201.723 153.165 202.459 153.346 203.099 153.709C203.739 154.071 204.23 154.573 204.571 155.213C204.923 155.842 205.099 156.557 205.099 157.357ZM203.595 157.053C203.595 156.498 203.473 156.023 203.227 155.629C202.982 155.223 202.646 154.919 202.219 154.717C201.803 154.503 201.339 154.397 200.827 154.397C200.091 154.397 199.462 154.631 198.939 155.101C198.427 155.57 198.134 156.221 198.059 157.053H203.595ZM211.293 153.149C212.36 153.149 213.224 153.474 213.885 154.125C214.546 154.765 214.877 155.693 214.877 156.909V162.077H213.437V157.117C213.437 156.242 213.218 155.575 212.781 155.117C212.344 154.647 211.746 154.413 210.989 154.413C210.221 154.413 209.608 154.653 209.149 155.133C208.701 155.613 208.477 156.311 208.477 157.229V162.077H207.021V153.309H208.477V154.557C208.765 154.109 209.154 153.762 209.645 153.517C210.146 153.271 210.696 153.149 211.293 153.149ZM219.031 154.509V159.677C219.031 160.103 219.122 160.407 219.303 160.589C219.485 160.759 219.799 160.845 220.247 160.845H221.319V162.077H220.007C219.197 162.077 218.589 161.89 218.183 161.517C217.778 161.143 217.575 160.53 217.575 159.677V154.509H216.439V153.309H217.575V151.101H219.031V153.309H221.319V154.509H219.031ZM223.836 151.885C223.558 151.885 223.324 151.789 223.132 151.597C222.94 151.405 222.844 151.17 222.844 150.893C222.844 150.615 222.94 150.381 223.132 150.189C223.324 149.997 223.558 149.901 223.836 149.901C224.102 149.901 224.326 149.997 224.508 150.189C224.7 150.381 224.796 150.615 224.796 150.893C224.796 151.17 224.7 151.405 224.508 151.597C224.326 151.789 224.102 151.885 223.836 151.885ZM224.54 153.309V162.077H223.084V153.309H224.54ZM230.845 162.221C230.024 162.221 229.277 162.034 228.605 161.661C227.944 161.287 227.421 160.759 227.037 160.077C226.664 159.383 226.477 158.583 226.477 157.677C226.477 156.781 226.669 155.991 227.053 155.309C227.448 154.615 227.981 154.087 228.653 153.725C229.325 153.351 230.077 153.165 230.909 153.165C231.741 153.165 232.493 153.351 233.165 153.725C233.837 154.087 234.365 154.61 234.749 155.293C235.144 155.975 235.341 156.77 235.341 157.677C235.341 158.583 235.138 159.383 234.733 160.077C234.338 160.759 233.8 161.287 233.117 161.661C232.434 162.034 231.677 162.221 230.845 162.221ZM230.845 160.941C231.368 160.941 231.858 160.818 232.317 160.573C232.776 160.327 233.144 159.959 233.421 159.469C233.709 158.978 233.853 158.381 233.853 157.677C233.853 156.973 233.714 156.375 233.437 155.885C233.16 155.394 232.797 155.031 232.349 154.797C231.901 154.551 231.416 154.429 230.893 154.429C230.36 154.429 229.869 154.551 229.421 154.797C228.984 155.031 228.632 155.394 228.365 155.885C228.098 156.375 227.965 156.973 227.965 157.677C227.965 158.391 228.093 158.994 228.349 159.485C228.616 159.975 228.968 160.343 229.405 160.589C229.842 160.823 230.322 160.941 230.845 160.941ZM241.527 153.149C242.594 153.149 243.458 153.474 244.119 154.125C244.781 154.765 245.111 155.693 245.111 156.909V162.077H243.671V157.117C243.671 156.242 243.453 155.575 243.015 155.117C242.578 154.647 241.981 154.413 241.223 154.413C240.455 154.413 239.842 154.653 239.383 155.133C238.935 155.613 238.711 156.311 238.711 157.229V162.077H237.255V153.309H238.711V154.557C238.999 154.109 239.389 153.762 239.879 153.517C240.381 153.271 240.93 153.149 241.527 153.149ZM250.338 150.781C251.394 150.781 252.247 151.079 252.898 151.677C253.548 152.274 253.874 153.074 253.874 154.077C253.874 155.197 253.527 156.029 252.834 156.573C252.14 157.106 251.202 157.373 250.018 157.373L249.97 158.893H248.706L248.642 156.365H249.106C250.162 156.365 250.988 156.205 251.586 155.885C252.183 155.565 252.482 154.962 252.482 154.077C252.482 153.437 252.29 152.93 251.906 152.557C251.522 152.183 251.004 151.997 250.354 151.997C249.692 151.997 249.17 152.178 248.786 152.541C248.412 152.893 248.226 153.378 248.226 153.997H246.85C246.85 153.357 246.994 152.797 247.282 152.317C247.57 151.826 247.975 151.447 248.498 151.181C249.031 150.914 249.644 150.781 250.338 150.781ZM249.33 162.173C249.052 162.173 248.818 162.077 248.626 161.885C248.434 161.693 248.338 161.458 248.338 161.181C248.338 160.903 248.434 160.669 248.626 160.477C248.818 160.285 249.052 160.189 249.33 160.189C249.596 160.189 249.82 160.285 250.002 160.477C250.194 160.669 250.29 160.903 250.29 161.181C250.29 161.458 250.194 161.693 250.002 161.885C249.82 162.077 249.596 162.173 249.33 162.173Z" fill="black"/>
<rect x="216.982" y="68.7812" width="92.2976" height="46.9584" rx="9.71554" fill="#102D59"/>
<rect x="257.464" y="108.822" width="29.1466" height="29.1466" rx="4.85777" transform="rotate(-45 257.464 108.822)" fill="#102D59"/>
<path d="M255.474 86.9639L251.842 93.9079V98.1159H250.386V93.9079L246.738 86.9639H248.354L251.106 92.6119L253.858 86.9639H255.474ZM265.009 93.3959C265.009 93.6733 264.993 93.9666 264.961 94.2759H257.953C258.007 95.1399 258.3 95.8173 258.833 96.3079C259.377 96.7879 260.033 97.0279 260.801 97.0279C261.431 97.0279 261.953 96.8839 262.369 96.5959C262.796 96.2973 263.095 95.9026 263.265 95.4119H264.833C264.599 96.2546 264.129 96.9426 263.425 97.4759C262.721 97.9986 261.847 98.2599 260.801 98.2599C259.969 98.2599 259.223 98.0733 258.561 97.6999C257.911 97.3266 257.399 96.7986 257.025 96.1159C256.652 95.4226 256.465 94.6226 256.465 93.7159C256.465 92.8093 256.647 92.0146 257.009 91.3319C257.372 90.6493 257.879 90.1266 258.529 89.7639C259.191 89.3906 259.948 89.2039 260.801 89.2039C261.633 89.2039 262.369 89.3853 263.009 89.7479C263.649 90.1106 264.14 90.6119 264.481 91.2519C264.833 91.8813 265.009 92.5959 265.009 93.3959ZM263.505 93.0919C263.505 92.5373 263.383 92.0626 263.137 91.6679C262.892 91.2626 262.556 90.9586 262.129 90.7559C261.713 90.5426 261.249 90.4359 260.737 90.4359C260.001 90.4359 259.372 90.6706 258.849 91.1399C258.337 91.6093 258.044 92.2599 257.969 93.0919H263.505ZM270.035 98.2599C269.363 98.2599 268.761 98.1479 268.227 97.9239C267.694 97.6893 267.273 97.3693 266.963 96.9639C266.654 96.5479 266.483 96.0733 266.451 95.5399H267.955C267.998 95.9773 268.201 96.3346 268.563 96.6119C268.937 96.8893 269.422 97.0279 270.019 97.0279C270.574 97.0279 271.011 96.9053 271.331 96.6599C271.651 96.4146 271.811 96.1053 271.811 95.7319C271.811 95.3479 271.641 95.0653 271.299 94.8839C270.958 94.6919 270.43 94.5053 269.715 94.3239C269.065 94.1533 268.531 93.9826 268.115 93.8119C267.71 93.6306 267.358 93.3693 267.059 93.0279C266.771 92.6759 266.627 92.2173 266.627 91.6519C266.627 91.2039 266.761 90.7933 267.027 90.4199C267.294 90.0466 267.673 89.7533 268.163 89.5399C268.654 89.3159 269.214 89.2039 269.843 89.2039C270.814 89.2039 271.598 89.4493 272.195 89.9399C272.793 90.4306 273.113 91.1026 273.155 91.9559H271.699C271.667 91.4973 271.481 91.1293 271.139 90.8519C270.809 90.5746 270.361 90.4359 269.795 90.4359C269.273 90.4359 268.857 90.5479 268.547 90.7719C268.238 90.9959 268.083 91.2893 268.083 91.6519C268.083 91.9399 268.174 92.1799 268.355 92.3719C268.547 92.5533 268.782 92.7026 269.059 92.8199C269.347 92.9266 269.742 93.0493 270.243 93.1879C270.873 93.3586 271.385 93.5293 271.779 93.6999C272.174 93.8599 272.51 94.1053 272.787 94.4359C273.075 94.7666 273.225 95.1986 273.235 95.7319C273.235 96.2119 273.102 96.6439 272.835 97.0279C272.569 97.4119 272.19 97.7159 271.699 97.9399C271.219 98.1533 270.665 98.2599 270.035 98.2599ZM277.179 86.9639L277.003 94.9639H275.787L275.611 86.9639H277.179ZM276.459 98.2119C276.181 98.2119 275.947 98.1159 275.755 97.9239C275.563 97.7319 275.467 97.4973 275.467 97.2199C275.467 96.9426 275.563 96.7079 275.755 96.5159C275.947 96.3239 276.181 96.2279 276.459 96.2279C276.725 96.2279 276.949 96.3239 277.131 96.5159C277.323 96.7079 277.419 96.9426 277.419 97.2199C277.419 97.4973 277.323 97.7319 277.131 97.9239C276.949 98.1159 276.725 98.2119 276.459 98.2119Z" fill="white"/>
<rect x="191.884" y="201.56" width="117.396" height="46.9584" rx="9.71554" fill="#102D59"/>
<rect x="257.464" y="241.601" width="29.1466" height="29.1466" rx="4.85777" transform="rotate(-45 257.464 241.601)" fill="#102D59"/>
<path d="M227.748 231.007C226.714 231.007 225.77 230.767 224.916 230.287C224.063 229.796 223.386 229.119 222.884 228.255C222.394 227.38 222.148 226.399 222.148 225.311C222.148 224.223 222.394 223.247 222.884 222.383C223.386 221.508 224.063 220.831 224.916 220.351C225.77 219.86 226.714 219.615 227.748 219.615C228.794 219.615 229.743 219.86 230.596 220.351C231.45 220.831 232.122 221.503 232.612 222.367C233.103 223.231 233.348 224.212 233.348 225.311C233.348 226.41 233.103 227.391 232.612 228.255C232.122 229.119 231.45 229.796 230.596 230.287C229.743 230.767 228.794 231.007 227.748 231.007ZM227.748 229.743C228.527 229.743 229.226 229.562 229.844 229.199C230.474 228.836 230.964 228.319 231.316 227.647C231.679 226.975 231.86 226.196 231.86 225.311C231.86 224.415 231.679 223.636 231.316 222.975C230.964 222.303 230.479 221.786 229.86 221.423C229.242 221.06 228.538 220.879 227.748 220.879C226.959 220.879 226.255 221.06 225.636 221.423C225.018 221.786 224.527 222.303 224.164 222.975C223.812 223.636 223.636 224.415 223.636 225.311C223.636 226.196 223.812 226.975 224.164 227.647C224.527 228.319 225.018 228.836 225.636 229.199C226.266 229.562 226.97 229.743 227.748 229.743ZM239.623 221.967C240.284 221.967 240.881 222.111 241.415 222.399C241.948 222.676 242.364 223.098 242.663 223.663C242.972 224.228 243.127 224.916 243.127 225.727V230.895H241.687V225.935C241.687 225.06 241.468 224.394 241.031 223.935C240.593 223.466 239.996 223.231 239.239 223.231C238.471 223.231 237.857 223.471 237.399 223.951C236.951 224.431 236.727 225.13 236.727 226.047V230.895H235.271V219.055H236.727V223.375C237.015 222.927 237.409 222.58 237.911 222.335C238.423 222.09 238.993 221.967 239.623 221.967ZM257.323 222.127L252.043 235.023H250.539L252.267 230.799L248.731 222.127H250.347L253.099 229.231L255.819 222.127H257.323ZM266.786 226.175C266.786 226.452 266.77 226.746 266.738 227.055H259.73C259.784 227.919 260.077 228.596 260.61 229.087C261.154 229.567 261.81 229.807 262.578 229.807C263.208 229.807 263.73 229.663 264.146 229.375C264.573 229.076 264.872 228.682 265.042 228.191H266.61C266.376 229.034 265.906 229.722 265.202 230.255C264.498 230.778 263.624 231.039 262.578 231.039C261.746 231.039 261 230.852 260.338 230.479C259.688 230.106 259.176 229.578 258.802 228.895C258.429 228.202 258.242 227.402 258.242 226.495C258.242 225.588 258.424 224.794 258.786 224.111C259.149 223.428 259.656 222.906 260.306 222.543C260.968 222.17 261.725 221.983 262.578 221.983C263.41 221.983 264.146 222.164 264.786 222.527C265.426 222.89 265.917 223.391 266.258 224.031C266.61 224.66 266.786 225.375 266.786 226.175ZM265.282 225.871C265.282 225.316 265.16 224.842 264.914 224.447C264.669 224.042 264.333 223.738 263.906 223.535C263.49 223.322 263.026 223.215 262.514 223.215C261.778 223.215 261.149 223.45 260.626 223.919C260.114 224.388 259.821 225.039 259.746 225.871H265.282ZM271.812 231.039C271.14 231.039 270.537 230.927 270.004 230.703C269.471 230.468 269.049 230.148 268.74 229.743C268.431 229.327 268.26 228.852 268.228 228.319H269.732C269.775 228.756 269.977 229.114 270.34 229.391C270.713 229.668 271.199 229.807 271.796 229.807C272.351 229.807 272.788 229.684 273.108 229.439C273.428 229.194 273.588 228.884 273.588 228.511C273.588 228.127 273.417 227.844 273.076 227.663C272.735 227.471 272.207 227.284 271.492 227.103C270.841 226.932 270.308 226.762 269.892 226.591C269.487 226.41 269.135 226.148 268.836 225.807C268.548 225.455 268.404 224.996 268.404 224.431C268.404 223.983 268.537 223.572 268.804 223.199C269.071 222.826 269.449 222.532 269.94 222.319C270.431 222.095 270.991 221.983 271.62 221.983C272.591 221.983 273.375 222.228 273.972 222.719C274.569 223.21 274.889 223.882 274.932 224.735H273.476C273.444 224.276 273.257 223.908 272.916 223.631C272.585 223.354 272.137 223.215 271.572 223.215C271.049 223.215 270.633 223.327 270.324 223.551C270.015 223.775 269.86 224.068 269.86 224.431C269.86 224.719 269.951 224.959 270.132 225.151C270.324 225.332 270.559 225.482 270.836 225.599C271.124 225.706 271.519 225.828 272.02 225.967C272.649 226.138 273.161 226.308 273.556 226.479C273.951 226.639 274.287 226.884 274.564 227.215C274.852 227.546 275.001 227.978 275.012 228.511C275.012 228.991 274.879 229.423 274.612 229.807C274.345 230.191 273.967 230.495 273.476 230.719C272.996 230.932 272.441 231.039 271.812 231.039ZM278.955 219.743L278.779 227.743H277.563L277.387 219.743H278.955ZM278.235 230.991C277.958 230.991 277.723 230.895 277.531 230.703C277.339 230.511 277.243 230.276 277.243 229.999C277.243 229.722 277.339 229.487 277.531 229.295C277.723 229.103 277.958 229.007 278.235 229.007C278.502 229.007 278.726 229.103 278.907 229.295C279.099 229.487 279.195 229.722 279.195 229.999C279.195 230.276 279.099 230.511 278.907 230.703C278.726 230.895 278.502 230.991 278.235 230.991Z" fill="white"/>
<defs>
<filter id="filter0_d_165_4342" x="70.4401" y="0.77241" width="172.451" height="68.354" filterUnits="userSpaceOnUse" color-interpolation-filters="sRGB">
<feFlood flood-opacity="0" result="BackgroundImageFix"/>
<feColorMatrix in="SourceAlpha" type="matrix" values="0 0 0 0 0 0 0 0 0 0 0 0 0 0 0 0 0 0 127 0" result="hardAlpha"/>
<feOffset dy="2.42888"/>
<feGaussianBlur stdDeviation="2.42888"/>
<feComposite in2="hardAlpha" operator="out"/>
<feColorMatrix type="matrix" values="0 0 0 0 0 0 0 0 0 0 0 0 0 0 0 0 0 0 0.1 0"/>
<feBlend mode="normal" in2="BackgroundImageFix" result="effect1_dropShadow_165_4342"/>
<feBlend mode="normal" in="SourceGraphic" in2="effect1_dropShadow_165_4342" result="shape"/>
</filter>
<filter id="filter1_d_165_4342" x="70.4401" y="130.313" width="216.171" height="68.354" filterUnits="userSpaceOnUse" color-interpolation-filters="sRGB">
<feFlood flood-opacity="0" result="BackgroundImageFix"/>
<feColorMatrix in="SourceAlpha" type="matrix" values="0 0 0 0 0 0 0 0 0 0 0 0 0 0 0 0 0 0 127 0" result="hardAlpha"/>
<feOffset dy="2.42888"/>
<feGaussianBlur stdDeviation="2.42888"/>
<feComposite in2="hardAlpha" operator="out"/>
<feColorMatrix type="matrix" values="0 0 0 0 0 0 0 0 0 0 0 0 0 0 0 0 0 0 0.1 0"/>
<feBlend mode="normal" in2="BackgroundImageFix" result="effect1_dropShadow_165_4342"/>
<feBlend mode="normal" in="SourceGraphic" in2="effect1_dropShadow_165_4342" result="shape"/>
</filter>
</defs>
</svg>
