<svg width="37" height="36" viewBox="0 0 37 36" fill="none" xmlns="http://www.w3.org/2000/svg">
<path d="M27.1849 36H8.97863C8.23217 36 7.61316 35.381 7.61316 34.6345C7.61316 33.8881 8.23217 33.2691 8.97863 33.2691H27.1849C27.9313 33.2691 28.5503 33.8881 28.5503 34.6345C28.5503 35.381 27.9313 36 27.1849 36Z" fill="#2871DE"/>
<path d="M33.2844 5.9944L26.0019 11.2014C25.0369 11.8932 23.6533 11.4745 23.2345 10.3639L19.7935 1.18796C19.2109 -0.395986 16.9716 -0.395986 16.389 1.18796L12.9298 10.3457C12.5111 11.4745 11.1456 11.8932 10.1807 11.1832L2.89818 5.9762C1.44168 4.95665 -0.488182 6.39494 0.112624 8.08812L7.68642 29.2985C7.94131 30.0267 8.63314 30.5001 9.39781 30.5001H26.7483C27.513 30.5001 28.2048 30.0085 28.4597 29.2985L36.0335 8.08812C36.6525 6.39494 34.7226 4.95665 33.2844 5.9944ZM22.6337 22.7988H13.5306C12.7842 22.7988 12.1652 22.1798 12.1652 21.4334C12.1652 20.6869 12.7842 20.0679 13.5306 20.0679H22.6337C23.3802 20.0679 23.9992 20.6869 23.9992 21.4334C23.9992 22.1798 23.3802 22.7988 22.6337 22.7988Z" fill="#2871DE"/>
</svg>
