<svg width="39" height="38" viewBox="0 0 39 38" fill="none" xmlns="http://www.w3.org/2000/svg">
<path d="M8.57175 30.7214C7.43176 30.7214 6.31737 30.3834 5.3695 29.7501C4.42164 29.1167 3.68287 28.2165 3.24661 27.1633C2.81036 26.1101 2.69621 24.9512 2.91861 23.8331C3.14101 22.715 3.68997 21.688 4.49606 20.8819C5.30216 20.0758 6.32918 19.5268 7.44727 19.3044C8.56535 19.082 9.72428 19.1962 10.7775 19.6324C11.8307 20.0687 12.7309 20.8075 13.3642 21.7553C13.9976 22.7032 14.3356 23.8176 14.3356 24.9576C14.3356 26.4862 13.7284 27.9523 12.6474 29.0332C11.5665 30.1142 10.1004 30.7214 8.57175 30.7214ZM15.546 29.9529C16.3015 28.8545 16.7884 27.594 16.9675 26.273C17.1466 24.952 17.0129 23.6074 16.5771 22.3475C16.1413 21.0876 15.4157 19.9477 14.4587 19.0196C13.5017 18.0915 12.3401 17.4012 11.0674 17.0043C9.79479 16.6074 8.44669 16.515 7.13178 16.7345C5.81686 16.954 4.5719 17.4793 3.49719 18.2681C2.42248 19.0569 1.54809 20.0871 0.944466 21.2757C0.340839 22.4644 0.0248585 23.7782 0.0219826 25.1113C-0.00732752 25.5399 -0.00732752 25.9699 0.0219826 26.3985C0.0610915 26.6838 0.118854 26.9662 0.194899 27.2439L0.310177 27.6474C0.479939 28.1726 0.698645 28.6808 0.963417 29.1652C1.35206 29.8746 1.84419 30.5221 2.4236 31.0865L2.7118 31.3747L3.34582 31.8934C3.78316 32.2225 4.25314 32.5058 4.74837 32.7388C6.11739 33.4413 7.65091 33.7603 9.18649 33.6622C10.7221 33.5642 12.2025 33.0526 13.4711 32.1816L19.1004 37.811C19.1594 37.8709 19.2297 37.9184 19.3072 37.9508C19.3847 37.9832 19.4679 37.9999 19.552 37.9999C19.636 37.9999 19.7192 37.9832 19.7967 37.9508C19.8742 37.9184 19.9445 37.8709 20.0035 37.811L21.2715 36.5622C21.3313 36.5032 21.3789 36.4329 21.4113 36.3554C21.4437 36.2779 21.4604 36.1947 21.4604 36.1107C21.4604 36.0267 21.4437 35.9435 21.4113 35.866C21.3789 35.7885 21.3313 35.7182 21.2715 35.6592L15.546 29.9529Z" fill="#2871DE"/>
<path d="M18.8507 27.5321C19.1149 26.588 19.2443 25.6113 19.2349 24.631C19.1794 21.8231 18.0143 19.1514 15.9946 17.2001C13.9748 15.2487 11.2646 14.1764 8.45647 14.2176C7.19775 14.2325 5.95059 14.4598 4.76758 14.89V6.87821C4.76758 6.56229 4.89308 6.2593 5.11647 6.03591C5.33987 5.81251 5.64286 5.68701 5.95878 5.68701H37.0646C37.3823 5.68697 37.6873 5.81186 37.9137 6.03471C38.1402 6.25757 38.2699 6.56053 38.275 6.87821V26.4178C38.275 26.7388 38.1474 27.0467 37.9204 27.2737C37.6934 27.5007 37.3856 27.6282 37.0646 27.6282L18.8507 27.5321Z" fill="#AECBFA"/>
<path fill-rule="evenodd" clip-rule="evenodd" d="M26.1133 5.68703V2.84352H17.5827V5.68703H14.72V1.1912C14.725 0.873522 14.8548 0.570561 15.0812 0.347703C15.3077 0.124845 15.6127 -4.00182e-05 15.9304 9.61924e-09H27.7656C27.922 9.61924e-09 28.0769 0.0308114 28.2214 0.090675C28.3659 0.150539 28.4973 0.238282 28.6079 0.348896C28.7185 0.459509 28.8062 0.590826 28.8661 0.735349C28.926 0.879873 28.9568 1.03477 28.9568 1.1912V5.68703H26.1133Z" fill="#669DF6"/>
<path fill-rule="evenodd" clip-rule="evenodd" d="M26.1133 5.68707L28.9568 4.78406V5.68707H26.1133Z" fill="#2871DE"/>
<path fill-rule="evenodd" clip-rule="evenodd" d="M14.7007 5.68704L17.5634 4.64954V5.68704H14.7007Z" fill="#2871DE"/>
</svg>
