<svg width="40" height="27" viewBox="0 0 40 27" fill="none" xmlns="http://www.w3.org/2000/svg">
<path d="M38.3265 0H14.1875C13.3962 0 12.757 0.639238 12.757 1.43046V11.9801H2.20732C1.41609 11.9801 0.776855 12.6194 0.776855 13.4106V25.5695C0.776855 26.3608 1.41609 27 2.20732 27H26.3464C27.1376 27 27.7769 26.3608 27.7769 25.5695V15.0199H38.3265C39.1177 15.0199 39.757 14.3806 39.757 13.5894V1.43046C39.757 0.639238 39.1177 0 38.3265 0ZM12.757 23.9603H3.81659V15.0199H12.757V23.9603ZM24.7371 23.9603H15.7967V15.0199H24.7371V23.9603ZM24.7371 11.9801H15.7967V3.03974H24.7371V11.9801ZM36.7173 11.9801H27.7769V3.03974H36.7173V11.9801Z" fill="#2871DE"/>
</svg>
