<svg width="34" height="35" viewBox="0 0 34 35" fill="none" xmlns="http://www.w3.org/2000/svg">
<rect width="31" height="31" rx="6" fill="#A4AFF6"/>
<path d="M26.807 19.6489C26.2382 17.8984 23.7618 17.8984 23.193 19.6489L22.3479 22.2497C22.3345 22.291 22.2962 22.3188 22.2528 22.3188H19.5182C17.6776 22.3188 16.9123 24.6741 18.4014 25.756L20.6138 27.3634C20.6488 27.3888 20.6635 27.434 20.6501 27.4752L19.805 30.076C19.2363 31.8265 21.2398 33.2821 22.7288 32.2003L24.9412 30.5929C24.9763 30.5674 25.0237 30.5674 25.0588 30.5929L27.2712 32.2003C28.7602 33.2821 30.7637 31.8265 30.195 30.076L29.3499 27.4752C29.3365 27.434 29.3512 27.3888 29.3862 27.3634L31.5986 25.756C33.0877 24.6741 32.3224 22.3188 30.4818 22.3188H27.7472C27.7038 22.3188 27.6655 22.291 27.6521 22.2497L26.807 19.6489Z" fill="#A4AFF6" stroke="#EAF1FC" stroke-width="1.8"/>
<path d="M8 18.5L13.5 12.5L18 16L23 11" stroke="#EAF1FC" stroke-width="2" stroke-linecap="round"/>
</svg>
