<svg width="151" height="27" viewBox="0 0 151 27" fill="none" xmlns="http://www.w3.org/2000/svg">
<path d="M12.5489 2.92705C12.8483 2.00574 14.1517 2.00574 14.4511 2.92705L16.3064 8.63729C16.4403 9.04931 16.8243 9.32827 17.2575 9.32827H23.2616C24.2303 9.32827 24.6331 10.5679 23.8494 11.1373L18.9919 14.6664C18.6415 14.9211 18.4948 15.3724 18.6287 15.7844L20.484 21.4947C20.7834 22.416 19.7289 23.1821 18.9452 22.6127L14.0878 19.0836C13.7373 18.8289 13.2627 18.8289 12.9122 19.0836L8.0548 22.6127C7.27108 23.1821 6.2166 22.416 6.51596 21.4947L8.37132 15.7844C8.5052 15.3724 8.35854 14.9211 8.00805 14.6664L3.15064 11.1373C2.36692 10.5679 2.7697 9.32827 3.73842 9.32827H9.74252C10.1757 9.32827 10.5597 9.04931 10.6936 8.63729L12.5489 2.92705Z" fill="#FCB38B"/>
<path d="M43.5489 2.92705C43.8483 2.00574 45.1517 2.00574 45.4511 2.92705L47.3064 8.63729C47.4403 9.04931 47.8243 9.32827 48.2575 9.32827H54.2616C55.2303 9.32827 55.6331 10.5679 54.8494 11.1373L49.9919 14.6664C49.6415 14.9211 49.4948 15.3724 49.6287 15.7844L51.484 21.4947C51.7834 22.416 50.7289 23.1821 49.9452 22.6127L45.0878 19.0836C44.7373 18.8289 44.2627 18.8289 43.9122 19.0836L39.0548 22.6127C38.2711 23.1821 37.2166 22.416 37.516 21.4947L39.3713 15.7844C39.5052 15.3724 39.3585 14.9211 39.0081 14.6664L34.1506 11.1373C33.3669 10.5679 33.7697 9.32827 34.7384 9.32827H40.7425C41.1757 9.32827 41.5597 9.04931 41.6936 8.63729L43.5489 2.92705Z" fill="#FCB38B"/>
<path d="M74.5489 2.92705C74.8483 2.00574 76.1517 2.00574 76.4511 2.92705L78.3064 8.63729C78.4403 9.04931 78.8243 9.32827 79.2575 9.32827H85.2616C86.2303 9.32827 86.6331 10.5679 85.8494 11.1373L80.9919 14.6664C80.6415 14.9211 80.4948 15.3724 80.6287 15.7844L82.484 21.4947C82.7834 22.416 81.7289 23.1821 80.9452 22.6127L76.0878 19.0836C75.7373 18.8289 75.2627 18.8289 74.9122 19.0836L70.0548 22.6127C69.2711 23.1821 68.2166 22.416 68.516 21.4947L70.3713 15.7844C70.5052 15.3724 70.3585 14.9211 70.0081 14.6664L65.1506 11.1373C64.3669 10.5679 64.7697 9.32827 65.7384 9.32827H71.7425C72.1757 9.32827 72.5597 9.04931 72.6936 8.63729L74.5489 2.92705Z" fill="#FCB38B"/>
<path d="M105.549 2.92705C105.848 2.00574 107.152 2.00574 107.451 2.92705L109.306 8.63729C109.44 9.04931 109.824 9.32827 110.257 9.32827H116.262C117.23 9.32827 117.633 10.5679 116.849 11.1373L111.992 14.6664C111.641 14.9211 111.495 15.3724 111.629 15.7844L113.484 21.4947C113.783 22.416 112.729 23.1821 111.945 22.6127L107.088 19.0836C106.737 18.8289 106.263 18.8289 105.912 19.0836L101.055 22.6127C100.271 23.1821 99.2166 22.416 99.516 21.4947L101.371 15.7844C101.505 15.3724 101.359 14.9211 101.008 14.6664L96.1506 11.1373C95.3669 10.5679 95.7697 9.32827 96.7384 9.32827H102.743C103.176 9.32827 103.56 9.04931 103.694 8.63729L105.549 2.92705Z" fill="#FCB38B"/>
<path d="M136.549 2.92705C136.848 2.00574 138.152 2.00574 138.451 2.92705L140.306 8.63729C140.44 9.04931 140.824 9.32827 141.257 9.32827H147.262C148.23 9.32827 148.633 10.5679 147.849 11.1373L142.992 14.6664C142.641 14.9211 142.495 15.3724 142.629 15.7844L144.484 21.4947C144.783 22.416 143.729 23.1821 142.945 22.6127L138.088 19.0836C137.737 18.8289 137.263 18.8289 136.912 19.0836L132.055 22.6127C131.271 23.1821 130.217 22.416 130.516 21.4947L132.371 15.7844C132.505 15.3724 132.359 14.9211 132.008 14.6664L127.151 11.1373C126.367 10.5679 126.77 9.32827 127.738 9.32827H133.743C134.176 9.32827 134.56 9.04931 134.694 8.63729L136.549 2.92705Z" fill="#FCB38B"/>
</svg>
