<svg width="30" height="38" viewBox="0 0 30 38" fill="none" xmlns="http://www.w3.org/2000/svg">
<path d="M5.1979 24.8033C5.00991 24.6508 4.81983 24.5012 4.63866 24.3391L4.63673 24.3431C4.63213 24.3391 4.62716 24.3356 4.62256 24.3315L0.128992 33.9573L0 34.3029L0.169887 34.5725C0.292941 34.7598 0.492292 34.8711 0.7148 34.8711H0.820339L5.1147 33.5355L6.81379 37.6015C6.91918 37.8416 7.14777 37.9999 7.4114 37.9999C7.66337 37.9999 7.89181 37.8534 7.99721 37.6247L11.4727 30.1814L12.5002 27.9931C12.4985 27.9928 12.4966 27.9925 12.4949 27.9922L12.5027 27.9755C9.76569 27.5847 7.2643 26.4529 5.1979 24.8033Z" fill="#2871DE" fill-opacity="0.4"/>
<path d="M25.7273 26.5151L24.7181 24.3448C24.7167 24.3457 24.7155 24.3468 24.7141 24.348L24.7064 24.3315C22.6849 26.1125 20.1812 27.3588 17.43 27.8621C17.2362 27.896 17.0439 27.936 16.8483 27.9622L16.8504 27.9665C16.8443 27.9674 16.8384 27.9688 16.8323 27.9697L21.3376 37.6248C21.4431 37.8535 21.6716 37.9999 21.9235 37.9999C22.1872 37.9999 22.4156 37.8416 22.521 37.6016L24.2202 33.5355L28.4326 34.8419L28.5322 34.8712H28.6202C28.8427 34.8712 29.0419 34.7599 29.165 34.5726L29.3408 34.2444L25.7273 26.5151Z" fill="#2871DE" fill-opacity="0.4"/>
<path d="M27.5539 12.8891C27.5539 5.77079 21.783 0 14.6646 0C7.54619 0 1.77539 5.77079 1.77539 12.8891C1.77539 20.0135 7.54619 25.7785 14.6646 25.7785C21.783 25.7785 27.5539 20.0135 27.5539 12.8891ZM14.6646 18.8594C11.3779 18.8594 8.70043 16.1817 8.70043 12.8891C8.70043 9.60233 11.3778 6.92497 14.6646 6.92497C17.9572 6.92497 20.6346 9.60233 20.6346 12.8891C20.6346 16.1817 17.9572 18.8594 14.6646 18.8594Z" fill="#2871DE"/>
</svg>
