<svg width="35" height="39" viewBox="0 0 35 39" fill="none" xmlns="http://www.w3.org/2000/svg">
<path d="M3.18197 3.18197H28.6386V20.6833H31.821V0H0V38.185H17.5013V35.003H3.18197V3.18197Z" fill="#2871DE"/>
<path d="M6.3645 6.36389H25.4572V9.54586H6.3645V6.36389ZM6.3645 12.7283H22.2748V15.9102H6.3645V12.7283ZM6.3645 19.0922H15.9109V22.2742H6.3645V19.0922ZM27.0447 22.2746C22.6511 22.2746 19.0893 25.8364 19.0893 30.23C19.0893 34.6236 22.6511 38.1854 27.0447 38.1854C31.4383 38.1854 35.0001 34.6236 35.0001 30.23C35.0001 25.8364 31.4383 22.2746 27.0447 22.2746ZM27.0447 35.0029C24.4126 35.0029 22.2718 32.8616 22.2718 30.23C22.2718 27.5979 24.4131 25.457 27.0447 25.457C29.6768 25.457 31.8177 27.5984 31.8177 30.23C31.8177 32.8616 29.6763 35.0029 27.0447 35.0029Z" fill="#2871DE" fill-opacity="0.4"/>
<path d="M26.4727 30.6533L24.6215 28.9944L23.0288 30.772L26.6841 34.0467L31.1643 28.8926L29.3636 27.3264L26.4727 30.6533Z" fill="#2871DE"/>
</svg>
