<svg width="34" height="34" viewBox="0 0 34 34" fill="none" xmlns="http://www.w3.org/2000/svg">
<path d="M10.8652 27.5858V10.3118C10.8652 9.63175 11.0693 8.96868 11.4433 8.40761L16.0848 1.50481C16.8159 0.399687 18.6351 -0.382404 20.1823 0.195663C21.8485 0.756728 22.9536 2.62694 22.5966 4.29314L21.7125 9.85278C21.6444 10.3628 21.7805 10.8219 22.0695 11.1789C22.3585 11.502 22.7836 11.706 23.2426 11.706H30.2304C31.5736 11.706 32.7297 12.2501 33.4098 13.2021C34.0559 14.1203 34.1749 15.3104 33.7498 16.5175L29.5674 29.252C29.0403 31.3602 26.745 33.0774 24.4668 33.0774H17.836C16.6969 33.0774 15.0987 32.6864 14.3676 31.9553L12.1914 30.2721C11.3583 29.643 10.8652 28.6399 10.8652 27.5858Z" fill="#2871DE"/>
<path d="M5.45763 6.99339H3.70643C1.07112 6.99339 0 8.0135 0 10.5298V27.6338C0 30.15 1.07112 31.1702 3.70643 31.1702H5.45763C8.09293 31.1702 9.16406 30.15 9.16406 27.6338V10.5298C9.16406 8.0135 8.09293 6.99339 5.45763 6.99339Z" fill="#2871DE"/>
</svg>
