<svg width="20" height="20" viewBox="0 0 20 20" fill="none" xmlns="http://www.w3.org/2000/svg">
<circle cx="10" cy="10" r="10" fill="#2871DE"/>
<path d="M10.5354 5.17878C10.5354 4.88292 10.2956 4.64307 9.99972 4.64307C9.70385 4.64307 9.46401 4.88292 9.46401 5.17878V9.46449H5.17829C4.88243 9.46449 4.64258 9.70433 4.64258 10.0002C4.64258 10.2961 4.88243 10.5359 5.17829 10.5359H9.46401V14.8216C9.46401 15.1175 9.70385 15.3574 9.99972 15.3574C10.2956 15.3574 10.5354 15.1175 10.5354 14.8216V10.5359H14.8211C15.117 10.5359 15.3569 10.2961 15.3569 10.0002C15.3569 9.70433 15.117 9.46449 14.8211 9.46449H10.5354V5.17878Z" fill="white"/>
</svg>
