<svg width="710" height="457" viewBox="0 0 710 457" fill="none" xmlns="http://www.w3.org/2000/svg">
<circle cx="331" cy="290" r="167" fill="#EAF1FC"/>
<path fill-rule="evenodd" clip-rule="evenodd" d="M504.46 121.955C503.331 120.743 501.432 120.675 500.22 121.805C499.008 122.934 498.94 124.832 500.069 126.045C503.816 130.067 507.42 134.223 510.875 138.504C511.915 139.794 513.804 139.996 515.094 138.955C516.383 137.915 516.585 136.026 515.545 134.737C512.001 130.344 508.303 126.081 504.46 121.955ZM525.694 148.273C524.748 146.913 522.878 146.578 521.518 147.524C520.158 148.47 519.822 150.339 520.768 151.7C523.904 156.207 526.883 160.832 529.697 165.565C530.544 166.989 532.385 167.457 533.809 166.611C535.233 165.764 535.701 163.923 534.854 162.499C531.967 157.642 528.911 152.898 525.694 148.273ZM542.976 177.341C542.233 175.86 540.43 175.262 538.949 176.005C537.468 176.747 536.87 178.55 537.613 180.031C540.071 184.933 542.361 189.935 544.473 195.029C545.108 196.559 546.863 197.285 548.393 196.651C549.924 196.016 550.65 194.261 550.015 192.73C547.848 187.504 545.499 182.371 542.976 177.341ZM555.93 208.581C555.407 207.008 553.708 206.158 552.136 206.681C550.564 207.204 549.714 208.903 550.237 210.475C551.966 215.672 553.515 220.95 554.877 226.304C555.286 227.91 556.919 228.88 558.525 228.472C560.13 228.063 561.101 226.43 560.692 224.824C559.294 219.331 557.704 213.913 555.93 208.581ZM564.272 241.353C563.979 239.722 562.42 238.637 560.789 238.93C559.159 239.222 558.074 240.781 558.366 242.412C559.331 247.794 560.109 253.241 560.695 258.746C560.87 260.394 562.347 261.587 563.995 261.412C565.643 261.237 566.836 259.759 566.661 258.112C566.061 252.464 565.262 246.876 564.272 241.353ZM567.851 274.979C567.793 273.323 566.404 272.028 564.748 272.086C563.092 272.144 561.797 273.534 561.855 275.19C561.952 277.932 562 280.686 562 283.452C562 286.218 561.952 288.972 561.855 291.714C561.797 293.37 563.092 294.759 564.748 294.818C566.404 294.876 567.793 293.581 567.851 291.925C567.95 289.112 568 286.288 568 283.452C568 280.616 567.95 277.791 567.851 274.979ZM566.661 308.792C566.836 307.144 565.643 305.667 563.995 305.492C562.347 305.316 560.87 306.51 560.695 308.158C560.109 313.663 559.331 319.109 558.366 324.491C558.074 326.122 559.159 327.681 560.789 327.974C562.42 328.266 563.979 327.181 564.272 325.55C565.262 320.028 566.061 314.439 566.661 308.792ZM560.692 342.079C561.101 340.474 560.13 338.841 558.525 338.432C556.919 338.023 555.286 338.994 554.877 340.599C553.515 345.953 551.966 351.232 550.237 356.429C549.714 358.001 550.564 359.699 552.136 360.223C553.708 360.746 555.407 359.895 555.93 358.323C557.704 352.99 559.294 347.573 560.692 342.079ZM550.015 374.173C550.65 372.643 549.924 370.888 548.393 370.253C546.863 369.618 545.108 370.345 544.473 371.875C542.361 376.969 540.071 381.97 537.613 386.872C536.87 388.353 537.468 390.156 538.949 390.899C540.43 391.642 542.233 391.043 542.976 389.562C545.499 384.532 547.848 379.4 550.015 374.173ZM534.854 404.405C535.701 402.981 535.233 401.14 533.809 400.293C532.385 399.446 530.544 399.914 529.697 401.338C526.883 406.072 523.904 410.696 520.768 415.204C519.822 416.564 520.158 418.434 521.518 419.38C522.878 420.326 524.748 419.99 525.694 418.63C528.911 414.006 531.967 409.261 534.854 404.405ZM515.545 432.167C516.585 430.877 516.383 428.989 515.094 427.948C513.804 426.908 511.915 427.11 510.875 428.399C507.42 432.681 503.816 436.837 500.069 440.859C498.94 442.071 499.008 443.97 500.22 445.099C501.432 446.228 503.331 446.161 504.46 444.948C508.303 440.822 512.001 436.559 515.545 432.167Z" fill="#EAF1FC"/>
<path fill-rule="evenodd" clip-rule="evenodd" d="M157.54 121.955C158.669 120.743 160.568 120.675 161.78 121.805C162.993 122.934 163.06 124.832 161.931 126.045C158.184 130.067 154.58 134.223 151.125 138.504C150.085 139.794 148.196 139.996 146.907 138.955C145.617 137.915 145.415 136.026 146.456 134.737C150 130.344 153.697 126.081 157.54 121.955ZM136.306 148.273C137.252 146.913 139.122 146.578 140.482 147.524C141.842 148.47 142.178 150.339 141.232 151.7C138.096 156.207 135.117 160.832 132.303 165.565C131.456 166.989 129.615 167.457 128.191 166.611C126.767 165.764 126.299 163.923 127.146 162.499C130.033 157.642 133.09 152.898 136.306 148.273ZM119.024 177.341C119.767 175.86 121.57 175.262 123.051 176.005C124.532 176.747 125.13 178.55 124.387 180.031C121.929 184.933 119.639 189.935 117.527 195.029C116.893 196.559 115.137 197.285 113.607 196.651C112.076 196.016 111.35 194.261 111.985 192.73C114.152 187.504 116.501 182.371 119.024 177.341ZM106.07 208.581C106.593 207.008 108.292 206.158 109.864 206.681C111.436 207.204 112.287 208.903 111.763 210.475C110.034 215.672 108.485 220.95 107.123 226.304C106.714 227.91 105.081 228.88 103.475 228.472C101.87 228.063 100.899 226.43 101.308 224.824C102.706 219.331 104.296 213.913 106.07 208.581ZM97.7283 241.353C98.0207 239.722 99.5798 238.637 101.211 238.93C102.841 239.222 103.927 240.781 103.634 242.412C102.669 247.794 101.891 253.241 101.305 258.746C101.13 260.394 99.6527 261.587 98.0051 261.412C96.3575 261.237 95.1639 259.759 95.3391 258.112C95.9394 252.464 96.7382 246.876 97.7283 241.353ZM94.1487 274.979C94.2069 273.323 95.5964 272.028 97.2522 272.086C98.9081 272.144 100.203 273.534 100.145 275.19C100.049 277.932 100 280.686 100 283.452C100 286.218 100.049 288.972 100.145 291.714C100.203 293.37 98.9081 294.759 97.2522 294.818C95.5964 294.876 94.2069 293.581 94.1487 291.925C94.0499 289.112 94 286.288 94 283.452C94 280.616 94.0499 277.791 94.1487 274.979ZM95.3391 308.792C95.1639 307.144 96.3575 305.667 98.0051 305.492C99.6527 305.316 101.13 306.51 101.305 308.158C101.891 313.663 102.669 319.109 103.634 324.491C103.927 326.122 102.841 327.681 101.211 327.974C99.5798 328.266 98.0207 327.181 97.7283 325.55C96.7382 320.028 95.9394 314.439 95.3391 308.792ZM101.308 342.079C100.899 340.474 101.87 338.841 103.475 338.432C105.081 338.023 106.714 338.994 107.123 340.599C108.485 345.953 110.034 351.232 111.763 356.429C112.287 358.001 111.436 359.699 109.864 360.223C108.292 360.746 106.593 359.895 106.07 358.323C104.296 352.99 102.706 347.573 101.308 342.079ZM111.985 374.173C111.35 372.643 112.076 370.888 113.607 370.253C115.137 369.618 116.893 370.345 117.527 371.875C119.639 376.969 121.929 381.97 124.387 386.872C125.13 388.353 124.532 390.156 123.051 390.899C121.57 391.642 119.767 391.043 119.024 389.562C116.501 384.532 114.152 379.4 111.985 374.173ZM127.146 404.405C126.299 402.981 126.767 401.14 128.191 400.293C129.615 399.446 131.456 399.914 132.303 401.338C135.117 406.072 138.096 410.696 141.232 415.204C142.178 416.564 141.842 418.434 140.482 419.38C139.122 420.326 137.252 419.99 136.306 418.63C133.09 414.006 130.033 409.261 127.146 404.405ZM146.456 432.167C145.415 430.877 145.617 428.989 146.907 427.948C148.196 426.908 150.085 427.11 151.125 428.399C154.58 432.681 158.184 436.837 161.931 440.859C163.06 442.071 162.993 443.97 161.78 445.099C160.568 446.228 158.67 446.161 157.54 444.948C153.697 440.822 150 436.559 146.456 432.167Z" fill="#EAF1FC"/>
<path d="M19.3741 53.192H2.86206V17H18.8461C20.5421 17 22.1101 17.224 23.5501 17.672C24.9901 18.088 26.2221 18.712 27.2461 19.544C28.3021 20.376 29.1181 21.432 29.6941 22.712C30.2701 23.96 30.5581 25.368 30.5581 26.936C30.5581 28.76 30.1101 30.328 29.2141 31.64C28.3181 32.952 27.1501 33.832 25.7101 34.28C26.8301 34.568 27.7901 35.128 28.5901 35.96C29.4221 36.76 30.0461 37.752 30.4621 38.936C30.8781 40.12 31.0701 41.4 31.0381 42.776C30.9741 46.2 29.9181 48.792 27.8701 50.552C25.8221 52.312 22.9901 53.192 19.3741 53.192ZM17.6941 37.592H10.8301V45.656H17.6941C19.3261 45.656 20.6701 45.336 21.7261 44.696C22.7821 44.024 23.3101 43 23.3101 41.624C23.3101 40.248 22.7821 39.24 21.7261 38.6C20.6701 37.928 19.3261 37.592 17.6941 37.592ZM17.4061 23.336H10.7341V31.16H17.4061C17.9181 31.16 18.3981 31.128 18.8461 31.064C19.2941 31 19.7261 30.904 20.1421 30.776C20.5581 30.648 20.9261 30.488 21.2461 30.296C21.5981 30.072 21.9021 29.832 22.1581 29.576C22.4141 29.288 22.6061 28.952 22.7341 28.568C22.8621 28.184 22.9261 27.752 22.9261 27.272C22.9261 26.376 22.6541 25.624 22.1101 25.016C21.5981 24.408 20.9421 23.976 20.1421 23.72C19.3421 23.464 18.4301 23.336 17.4061 23.336ZM31.8608 26.072H39.3008V40.52C39.3008 42.12 39.7488 43.368 40.6448 44.264C41.5408 45.128 42.7248 45.56 44.1968 45.56C44.6128 45.56 44.9968 45.528 45.3488 45.464C45.7008 45.368 46.0208 45.256 46.3088 45.128C46.6288 45 46.9008 44.84 47.1248 44.648C47.3808 44.424 47.6048 44.184 47.7968 43.928C47.9888 43.64 48.1488 43.336 48.2768 43.016C48.4048 42.696 48.5008 42.344 48.5648 41.96C48.6288 41.576 48.6608 41.16 48.6608 40.712V26.072H56.1968V42.104C56.1968 45.176 55.0928 47.736 52.8848 49.784C50.7088 51.8 48.0048 52.872 44.7728 53C44.2608 53 43.6848 52.968 43.0448 52.904C42.4048 52.84 41.6528 52.68 40.7888 52.424C39.9248 52.168 39.0928 51.848 38.2928 51.464C37.4928 51.048 36.6928 50.488 35.8928 49.784C35.0928 49.048 34.3888 48.216 33.7808 47.288C33.2048 46.36 32.7408 45.208 32.3888 43.832C32.0688 42.456 31.9088 40.936 31.9088 39.272L31.8608 26.072ZM59.6311 27.08H67.3591V53H59.6311V27.08ZM63.4711 24.68C62.7991 24.68 62.1751 24.568 61.5991 24.344C61.0231 24.12 60.5271 23.816 60.1111 23.432C59.6951 23.016 59.3751 22.536 59.1511 21.992C58.9271 21.416 58.8151 20.792 58.8151 20.12C58.8151 18.808 59.2471 17.736 60.1111 16.904C60.9751 16.072 62.0951 15.656 63.4711 15.656C64.0151 15.656 64.5271 15.736 65.0071 15.896C65.4871 16.024 65.9191 16.232 66.3031 16.52C66.6871 16.776 67.0231 17.08 67.3111 17.432C67.5991 17.784 67.8071 18.2 67.9351 18.68C68.0951 19.128 68.1751 19.608 68.1751 20.12C68.1751 21.464 67.7271 22.568 66.8311 23.432C65.9671 24.264 64.8471 24.68 63.4711 24.68ZM71.2448 17.24H78.9248L78.8288 52.952H71.2448V17.24ZM96.3346 45.656C98.1906 45.656 99.7106 45.08 100.895 43.928C102.111 42.776 102.719 41.336 102.719 39.608C102.719 37.848 102.111 36.392 100.895 35.24C99.7106 34.088 98.1906 33.512 96.3346 33.512C94.4786 33.512 92.9426 34.088 91.7266 35.24C90.5106 36.392 89.9026 37.848 89.9026 39.608C89.9026 41.336 90.5106 42.776 91.7266 43.928C92.9426 45.08 94.4786 45.656 96.3346 45.656ZM81.7426 39.992C81.7106 37.656 82.2226 35.464 83.2786 33.416C84.3666 31.368 85.9186 29.72 87.9346 28.472C89.9506 27.192 92.1906 26.584 94.6546 26.648C96.5426 26.712 98.2386 27.08 99.7426 27.752C101.279 28.424 102.383 29.4 103.055 30.68L103.199 17.144H111.023L111.071 39.992C110.975 42.264 110.431 44.296 109.439 46.088C108.479 47.848 107.231 49.256 105.695 50.312C104.191 51.368 102.511 52.168 100.655 52.712C98.7986 53.224 96.8466 53.448 94.7986 53.384C91.4066 53.256 88.4146 51.928 85.8226 49.4C83.1666 46.744 81.8066 43.608 81.7426 39.992ZM124.131 27.08H131.859V53H124.131V27.08ZM127.971 24.68C127.299 24.68 126.675 24.568 126.099 24.344C125.523 24.12 125.027 23.816 124.611 23.432C124.195 23.016 123.875 22.536 123.651 21.992C123.427 21.416 123.315 20.792 123.315 20.12C123.315 18.808 123.747 17.736 124.611 16.904C125.475 16.072 126.595 15.656 127.971 15.656C128.515 15.656 129.027 15.736 129.507 15.896C129.987 16.024 130.419 16.232 130.803 16.52C131.187 16.776 131.523 17.08 131.811 17.432C132.099 17.784 132.307 18.2 132.435 18.68C132.595 19.128 132.675 19.608 132.675 20.12C132.675 21.464 132.227 22.568 131.331 23.432C130.467 24.264 129.347 24.68 127.971 24.68ZM134.517 53L134.565 39.8C134.565 38.168 134.725 36.664 135.045 35.288C135.365 33.912 135.797 32.76 136.341 31.832C136.885 30.904 137.525 30.088 138.261 29.384C139.029 28.68 139.781 28.136 140.517 27.752C141.253 27.368 142.037 27.048 142.869 26.792C143.701 26.536 144.405 26.376 144.981 26.312C145.589 26.248 146.165 26.216 146.709 26.216C150.325 26.216 153.253 27.224 155.493 29.24C157.733 31.256 158.853 33.832 158.853 36.968V53H151.317V38.36C151.317 36.824 150.917 35.64 150.117 34.808C149.349 33.976 148.261 33.56 146.853 33.56C146.149 33.56 145.493 33.672 144.885 33.896C144.309 34.088 143.797 34.392 143.349 34.808C142.901 35.224 142.549 35.752 142.293 36.392C142.069 37.032 141.957 37.752 141.957 38.552V53H134.517ZM193.973 45.032C193.845 47.624 192.661 49.704 190.421 51.272C188.213 52.808 185.413 53.496 182.021 53.336C180.197 53.208 178.565 52.904 177.125 52.424C175.685 51.912 174.565 51.336 173.765 50.696C172.997 50.056 172.373 49.432 171.893 48.824C171.413 48.184 171.077 47.656 170.885 47.24C170.725 46.792 170.661 46.568 170.693 46.568L178.085 43.448L178.133 43.688C178.133 43.88 178.213 44.104 178.373 44.36C178.533 44.616 178.741 44.888 178.997 45.176C179.253 45.432 179.653 45.672 180.197 45.896C180.741 46.088 181.381 46.216 182.117 46.28C182.373 46.312 182.693 46.328 183.077 46.328C183.493 46.296 183.893 46.264 184.277 46.232C184.661 46.168 184.997 46.024 185.285 45.8C185.573 45.576 185.717 45.288 185.717 44.936C185.717 44.68 185.653 44.456 185.525 44.264C185.429 44.072 185.301 43.912 185.141 43.784C185.013 43.656 184.757 43.544 184.373 43.448C184.021 43.352 183.701 43.288 183.413 43.256C183.157 43.224 182.725 43.16 182.117 43.064C181.733 43 181.445 42.968 181.253 42.968C179.717 42.68 178.421 42.376 177.365 42.056C176.341 41.704 175.349 41.224 174.389 40.616C173.429 39.976 172.725 39.144 172.277 38.12C171.861 37.096 171.685 35.864 171.749 34.424C171.813 32.824 172.325 31.416 173.285 30.2C174.277 28.984 175.589 28.056 177.221 27.416C178.853 26.776 180.661 26.52 182.645 26.648C183.253 26.68 183.813 26.728 184.325 26.792C184.869 26.856 185.381 26.936 185.861 27.032C186.341 27.096 186.789 27.192 187.205 27.32C187.621 27.448 188.021 27.592 188.405 27.752C188.789 27.88 189.141 28.024 189.461 28.184C189.813 28.344 190.133 28.536 190.421 28.76C190.741 28.952 191.029 29.16 191.285 29.384C191.541 29.608 191.781 29.848 192.005 30.104C192.261 30.36 192.485 30.616 192.677 30.872C192.901 31.128 193.125 31.416 193.349 31.736L186.149 35.528C186.181 35.528 186.165 35.464 186.101 35.336C186.069 35.208 185.973 35.064 185.813 34.904C185.685 34.744 185.493 34.584 185.237 34.424C185.013 34.232 184.677 34.072 184.229 33.944C183.813 33.784 183.317 33.688 182.741 33.656C180.693 33.56 179.653 33.944 179.621 34.808C179.621 35.128 179.685 35.384 179.813 35.576C179.973 35.768 180.229 35.928 180.581 36.056C180.933 36.184 181.253 36.296 181.541 36.392C181.861 36.456 182.357 36.552 183.029 36.68C183.189 36.712 183.301 36.728 183.365 36.728C184.773 36.984 185.989 37.256 187.013 37.544C191.813 38.952 194.133 41.448 193.973 45.032ZM203.61 35.864H214.17C214.106 35 213.578 34.328 212.586 33.848C211.626 33.368 210.378 33.128 208.842 33.128C206.09 33.128 204.346 34.04 203.61 35.864ZM195.594 39.896C195.594 36.568 196.586 33.752 198.57 31.448C201.066 28.504 204.506 27.032 208.89 27.032C210.426 27.032 211.882 27.24 213.258 27.656C214.666 28.072 215.914 28.712 217.002 29.576C218.122 30.408 219.066 31.416 219.834 32.6C220.634 33.752 221.21 35.128 221.562 36.728C221.946 38.296 222.058 40.008 221.898 41.864L203.514 41.816C203.578 42.488 203.77 43.096 204.09 43.64C204.442 44.184 204.874 44.632 205.386 44.984C205.898 45.304 206.458 45.56 207.066 45.752C207.706 45.944 208.394 46.056 209.13 46.088C209.738 46.12 210.33 46.04 210.906 45.848C211.482 45.656 211.962 45.416 212.346 45.128C212.73 44.84 213.066 44.552 213.354 44.264C213.674 43.944 213.898 43.688 214.026 43.496C214.154 43.304 214.218 43.192 214.218 43.16L220.842 46.568C219.754 48.584 218.138 50.2 215.994 51.416C213.85 52.6 211.466 53.16 208.842 53.096C205.482 53.032 202.618 52.072 200.25 50.216C197.146 47.752 195.594 44.312 195.594 39.896ZM237.495 26.408C238.711 26.44 239.847 26.584 240.903 26.84C241.959 27.064 242.871 27.384 243.639 27.8C244.439 28.184 245.159 28.6 245.799 29.048C246.471 29.464 247.031 29.96 247.479 30.536C247.959 31.08 248.359 31.576 248.679 32.024C249.031 32.44 249.319 32.904 249.543 33.416C249.767 33.896 249.911 34.248 249.975 34.472C250.071 34.664 250.151 34.872 250.215 35.096C250.247 35.128 250.263 35.144 250.263 35.144L243.207 38.024C243.207 38.024 243.191 37.96 243.159 37.832C243.127 37.672 243.079 37.496 243.015 37.304C242.983 37.112 242.903 36.888 242.775 36.632C242.647 36.344 242.503 36.072 242.343 35.816C242.183 35.56 241.959 35.304 241.671 35.048C241.383 34.792 241.047 34.568 240.663 34.376C240.311 34.152 239.879 33.976 239.367 33.848C238.855 33.72 238.279 33.64 237.639 33.608C235.847 33.576 234.391 34.088 233.271 35.144C232.151 36.168 231.575 37.736 231.543 39.848C231.671 41.736 232.327 43.16 233.511 44.12C234.695 45.048 236.183 45.464 237.975 45.368C238.487 45.336 238.967 45.272 239.415 45.176C239.863 45.048 240.247 44.904 240.567 44.744C240.887 44.584 241.175 44.408 241.431 44.216C241.687 44.024 241.895 43.832 242.055 43.64C242.247 43.416 242.407 43.208 242.535 43.016C242.695 42.792 242.807 42.584 242.871 42.392C242.967 42.2 243.031 42.04 243.063 41.912C243.127 41.784 243.175 41.672 243.207 41.576C243.239 41.48 243.255 41.432 243.255 41.432L250.311 43.928C249.703 46.648 248.071 48.824 245.415 50.456C242.791 52.088 239.895 52.872 236.727 52.808C234.295 52.712 232.087 52.056 230.103 50.84C228.119 49.592 226.583 47.944 225.495 45.896C224.407 43.848 223.895 41.592 223.959 39.128C224.055 35.416 225.399 32.344 227.991 29.912C230.583 27.48 233.751 26.312 237.495 26.408ZM267.188 46.232C268.372 46.232 269.428 45.96 270.356 45.416C271.316 44.872 272.052 44.136 272.564 43.208C273.076 42.248 273.332 41.176 273.332 39.992C273.332 38.2 272.756 36.712 271.604 35.528C270.452 34.344 268.98 33.752 267.188 33.752C265.364 33.752 263.86 34.344 262.676 35.528C261.492 36.712 260.9 38.2 260.9 39.992C260.9 40.888 261.044 41.72 261.332 42.488C261.652 43.256 262.084 43.912 262.628 44.456C263.204 45 263.876 45.432 264.644 45.752C265.412 46.072 266.26 46.232 267.188 46.232ZM266.756 26.888C269.444 26.888 271.812 27.448 273.86 28.568C275.94 29.656 277.556 31.208 278.708 33.224C279.86 35.24 280.436 37.544 280.436 40.136C280.436 42.728 279.86 45.032 278.708 47.048C277.556 49.064 275.94 50.632 273.86 51.752C271.78 52.84 269.412 53.384 266.756 53.384C263.236 53.384 260.244 52.408 257.78 50.456C254.676 47.96 253.124 44.52 253.124 40.136C253.124 36.712 254.116 33.816 256.1 31.448C258.66 28.408 262.212 26.888 266.756 26.888ZM283.58 53L283.628 39.8C283.628 38.168 283.788 36.664 284.108 35.288C284.428 33.912 284.86 32.76 285.404 31.832C285.948 30.904 286.588 30.088 287.324 29.384C288.092 28.68 288.844 28.136 289.58 27.752C290.316 27.368 291.1 27.048 291.932 26.792C292.764 26.536 293.468 26.376 294.044 26.312C294.652 26.248 295.228 26.216 295.772 26.216C299.388 26.216 302.316 27.224 304.556 29.24C306.796 31.256 307.916 33.832 307.916 36.968V53H300.38V38.36C300.38 36.824 299.98 35.64 299.18 34.808C298.412 33.976 297.324 33.56 295.916 33.56C295.212 33.56 294.556 33.672 293.948 33.896C293.372 34.088 292.86 34.392 292.412 34.808C291.964 35.224 291.612 35.752 291.356 36.392C291.132 37.032 291.02 37.752 291.02 38.552V53H283.58ZM325.506 45.656C327.362 45.656 328.882 45.08 330.066 43.928C331.282 42.776 331.89 41.336 331.89 39.608C331.89 37.848 331.282 36.392 330.066 35.24C328.882 34.088 327.362 33.512 325.506 33.512C323.65 33.512 322.114 34.088 320.898 35.24C319.682 36.392 319.074 37.848 319.074 39.608C319.074 41.336 319.682 42.776 320.898 43.928C322.114 45.08 323.65 45.656 325.506 45.656ZM310.914 39.992C310.882 37.656 311.394 35.464 312.45 33.416C313.538 31.368 315.09 29.72 317.106 28.472C319.122 27.192 321.362 26.584 323.826 26.648C325.714 26.712 327.41 27.08 328.914 27.752C330.45 28.424 331.554 29.4 332.226 30.68L332.37 17.144H340.194L340.242 39.992C340.146 42.264 339.602 44.296 338.61 46.088C337.65 47.848 336.402 49.256 334.866 50.312C333.362 51.368 331.682 52.168 329.826 52.712C327.97 53.224 326.018 53.448 323.97 53.384C320.578 53.256 317.586 51.928 314.994 49.4C312.338 46.744 310.978 43.608 310.914 39.992ZM365.63 45.032C365.502 47.624 364.318 49.704 362.078 51.272C359.87 52.808 357.07 53.496 353.678 53.336C351.854 53.208 350.222 52.904 348.782 52.424C347.342 51.912 346.222 51.336 345.422 50.696C344.654 50.056 344.03 49.432 343.55 48.824C343.07 48.184 342.734 47.656 342.542 47.24C342.382 46.792 342.318 46.568 342.35 46.568L349.742 43.448L349.79 43.688C349.79 43.88 349.87 44.104 350.03 44.36C350.19 44.616 350.398 44.888 350.654 45.176C350.91 45.432 351.31 45.672 351.854 45.896C352.398 46.088 353.038 46.216 353.774 46.28C354.03 46.312 354.35 46.328 354.734 46.328C355.15 46.296 355.55 46.264 355.934 46.232C356.318 46.168 356.654 46.024 356.942 45.8C357.23 45.576 357.374 45.288 357.374 44.936C357.374 44.68 357.31 44.456 357.182 44.264C357.086 44.072 356.958 43.912 356.798 43.784C356.67 43.656 356.414 43.544 356.03 43.448C355.678 43.352 355.358 43.288 355.07 43.256C354.814 43.224 354.382 43.16 353.774 43.064C353.39 43 353.102 42.968 352.91 42.968C351.374 42.68 350.078 42.376 349.022 42.056C347.998 41.704 347.006 41.224 346.046 40.616C345.086 39.976 344.382 39.144 343.934 38.12C343.518 37.096 343.342 35.864 343.406 34.424C343.47 32.824 343.982 31.416 344.942 30.2C345.934 28.984 347.246 28.056 348.878 27.416C350.51 26.776 352.318 26.52 354.302 26.648C354.91 26.68 355.47 26.728 355.982 26.792C356.526 26.856 357.038 26.936 357.518 27.032C357.998 27.096 358.446 27.192 358.862 27.32C359.278 27.448 359.678 27.592 360.062 27.752C360.446 27.88 360.798 28.024 361.118 28.184C361.47 28.344 361.79 28.536 362.078 28.76C362.398 28.952 362.686 29.16 362.942 29.384C363.198 29.608 363.438 29.848 363.662 30.104C363.918 30.36 364.142 30.616 364.334 30.872C364.558 31.128 364.782 31.416 365.006 31.736L357.806 35.528C357.838 35.528 357.822 35.464 357.758 35.336C357.726 35.208 357.63 35.064 357.47 34.904C357.342 34.744 357.15 34.584 356.894 34.424C356.67 34.232 356.334 34.072 355.886 33.944C355.47 33.784 354.974 33.688 354.398 33.656C352.35 33.56 351.31 33.944 351.278 34.808C351.278 35.128 351.342 35.384 351.47 35.576C351.63 35.768 351.886 35.928 352.238 36.056C352.59 36.184 352.91 36.296 353.198 36.392C353.518 36.456 354.014 36.552 354.686 36.68C354.846 36.712 354.958 36.728 355.022 36.728C356.43 36.984 357.646 37.256 358.67 37.544C363.47 38.952 365.79 41.448 365.63 45.032ZM393.591 52.856H384.471L377.031 27.128L384.519 27.08L389.127 43.4L393.495 27.128L402.663 27.08L406.503 43.352L411.207 27.128H418.455L410.967 52.856H401.847L398.151 35.912L393.591 52.856ZM421.975 27.08H429.703V53H421.975V27.08ZM425.815 24.68C425.143 24.68 424.519 24.568 423.943 24.344C423.367 24.12 422.871 23.816 422.455 23.432C422.039 23.016 421.719 22.536 421.495 21.992C421.271 21.416 421.159 20.792 421.159 20.12C421.159 18.808 421.591 17.736 422.455 16.904C423.319 16.072 424.439 15.656 425.815 15.656C426.359 15.656 426.871 15.736 427.351 15.896C427.831 16.024 428.263 16.232 428.647 16.52C429.031 16.776 429.367 17.08 429.655 17.432C429.943 17.784 430.151 18.2 430.279 18.68C430.439 19.128 430.519 19.608 430.519 20.12C430.519 21.464 430.071 22.568 429.175 23.432C428.311 24.264 427.191 24.68 425.815 24.68ZM436.631 44.648V33.56L431.687 33.512L431.783 26.936H436.823V21.752L444.119 16.904L444.023 26.696L450.743 26.744V33.608H444.071V41.864C444.039 43.144 444.151 44.056 444.407 44.6C444.663 45.144 445.143 45.48 445.847 45.608C446.487 45.736 447.159 45.672 447.863 45.416C448.599 45.128 449.143 44.744 449.495 44.264C449.655 44.616 449.863 45.032 450.119 45.512C450.407 45.992 450.839 46.696 451.415 47.624C451.991 48.552 452.503 49.4 452.951 50.168C452.599 51.032 451.671 51.752 450.167 52.328C448.695 52.872 447.111 53.144 445.415 53.144C443.399 53.144 441.639 52.632 440.135 51.608C437.831 50.008 436.663 47.688 436.631 44.648ZM455.058 17.384H462.594V30.392C464.034 28.376 466.674 27.368 470.514 27.368C473.458 27.368 475.842 28.328 477.666 30.248C479.522 32.168 480.45 34.584 480.45 37.496V53.096L472.77 53V38.888C472.77 37.384 472.338 36.168 471.474 35.24C470.61 34.312 469.442 33.832 467.97 33.8C467.234 33.8 466.546 33.944 465.906 34.232C465.298 34.488 464.77 34.856 464.322 35.336C463.874 35.784 463.522 36.344 463.266 37.016C463.01 37.688 462.882 38.408 462.882 39.176L462.834 53.096L455.058 53V17.384Z" fill="#102D59"/>
<path d="M510.981 24.872L505.365 39.608H515.877L510.981 24.872ZM503.973 46.472L501.717 52.808H493.317L505.509 17.24L516.021 17.384L527.493 52.808H519.141L517.173 46.568L503.973 46.472ZM530.195 17.48H537.923V52.952H530.195V17.48ZM567.39 53.192H550.878V17H566.862C568.558 17 570.126 17.224 571.566 17.672C573.006 18.088 574.238 18.712 575.262 19.544C576.318 20.376 577.134 21.432 577.71 22.712C578.286 23.96 578.574 25.368 578.574 26.936C578.574 28.76 578.126 30.328 577.23 31.64C576.334 32.952 575.166 33.832 573.726 34.28C574.846 34.568 575.806 35.128 576.606 35.96C577.438 36.76 578.062 37.752 578.478 38.936C578.894 40.12 579.086 41.4 579.054 42.776C578.99 46.2 577.934 48.792 575.886 50.552C573.838 52.312 571.006 53.192 567.39 53.192ZM565.71 37.592H558.846V45.656H565.71C567.342 45.656 568.686 45.336 569.742 44.696C570.798 44.024 571.326 43 571.326 41.624C571.326 40.248 570.798 39.24 569.742 38.6C568.686 37.928 567.342 37.592 565.71 37.592ZM565.422 23.336H558.75V31.16H565.422C565.934 31.16 566.414 31.128 566.862 31.064C567.31 31 567.742 30.904 568.158 30.776C568.574 30.648 568.942 30.488 569.262 30.296C569.614 30.072 569.918 29.832 570.174 29.576C570.43 29.288 570.622 28.952 570.75 28.568C570.878 28.184 570.942 27.752 570.942 27.272C570.942 26.376 570.67 25.624 570.126 25.016C569.614 24.408 568.958 23.976 568.158 23.72C567.358 23.464 566.446 23.336 565.422 23.336ZM579.876 26.072H587.316V40.52C587.316 42.12 587.764 43.368 588.66 44.264C589.556 45.128 590.74 45.56 592.212 45.56C592.628 45.56 593.012 45.528 593.364 45.464C593.716 45.368 594.036 45.256 594.324 45.128C594.644 45 594.916 44.84 595.14 44.648C595.396 44.424 595.62 44.184 595.812 43.928C596.004 43.64 596.164 43.336 596.292 43.016C596.42 42.696 596.516 42.344 596.58 41.96C596.644 41.576 596.676 41.16 596.676 40.712V26.072H604.212V42.104C604.212 45.176 603.108 47.736 600.9 49.784C598.724 51.8 596.02 52.872 592.788 53C592.276 53 591.7 52.968 591.06 52.904C590.42 52.84 589.668 52.68 588.804 52.424C587.94 52.168 587.108 51.848 586.308 51.464C585.508 51.048 584.708 50.488 583.908 49.784C583.108 49.048 582.404 48.216 581.796 47.288C581.22 46.36 580.756 45.208 580.404 43.832C580.084 42.456 579.924 40.936 579.924 39.272L579.876 26.072ZM607.647 27.08H615.375V53H607.647V27.08ZM611.487 24.68C610.815 24.68 610.191 24.568 609.615 24.344C609.039 24.12 608.543 23.816 608.127 23.432C607.711 23.016 607.391 22.536 607.167 21.992C606.943 21.416 606.831 20.792 606.831 20.12C606.831 18.808 607.263 17.736 608.127 16.904C608.991 16.072 610.111 15.656 611.487 15.656C612.031 15.656 612.543 15.736 613.023 15.896C613.503 16.024 613.935 16.232 614.319 16.52C614.703 16.776 615.039 17.08 615.327 17.432C615.615 17.784 615.823 18.2 615.951 18.68C616.111 19.128 616.191 19.608 616.191 20.12C616.191 21.464 615.743 22.568 614.847 23.432C613.983 24.264 612.863 24.68 611.487 24.68ZM619.26 17.24H626.94L626.844 52.952H619.26V17.24ZM644.35 45.656C646.206 45.656 647.726 45.08 648.91 43.928C650.126 42.776 650.734 41.336 650.734 39.608C650.734 37.848 650.126 36.392 648.91 35.24C647.726 34.088 646.206 33.512 644.35 33.512C642.494 33.512 640.958 34.088 639.742 35.24C638.526 36.392 637.918 37.848 637.918 39.608C637.918 41.336 638.526 42.776 639.742 43.928C640.958 45.08 642.494 45.656 644.35 45.656ZM629.758 39.992C629.726 37.656 630.238 35.464 631.294 33.416C632.382 31.368 633.934 29.72 635.95 28.472C637.966 27.192 640.206 26.584 642.67 26.648C644.558 26.712 646.254 27.08 647.758 27.752C649.294 28.424 650.398 29.4 651.07 30.68L651.214 17.144H659.038L659.086 39.992C658.99 42.264 658.446 44.296 657.454 46.088C656.494 47.848 655.246 49.256 653.71 50.312C652.206 51.368 650.526 52.168 648.67 52.712C646.814 53.224 644.862 53.448 642.814 53.384C639.422 53.256 636.43 51.928 633.838 49.4C631.182 46.744 629.822 43.608 629.758 39.992ZM669.641 35.864H680.201C680.137 35 679.609 34.328 678.617 33.848C677.657 33.368 676.409 33.128 674.873 33.128C672.121 33.128 670.377 34.04 669.641 35.864ZM661.625 39.896C661.625 36.568 662.617 33.752 664.601 31.448C667.097 28.504 670.537 27.032 674.921 27.032C676.457 27.032 677.913 27.24 679.289 27.656C680.697 28.072 681.945 28.712 683.033 29.576C684.153 30.408 685.097 31.416 685.865 32.6C686.665 33.752 687.241 35.128 687.593 36.728C687.977 38.296 688.089 40.008 687.929 41.864L669.545 41.816C669.609 42.488 669.801 43.096 670.121 43.64C670.473 44.184 670.905 44.632 671.417 44.984C671.929 45.304 672.489 45.56 673.097 45.752C673.737 45.944 674.425 46.056 675.161 46.088C675.769 46.12 676.361 46.04 676.937 45.848C677.513 45.656 677.993 45.416 678.377 45.128C678.761 44.84 679.097 44.552 679.385 44.264C679.705 43.944 679.929 43.688 680.057 43.496C680.185 43.304 680.249 43.192 680.249 43.16L686.873 46.568C685.785 48.584 684.169 50.2 682.025 51.416C679.881 52.6 677.497 53.16 674.873 53.096C671.513 53.032 668.649 52.072 666.281 50.216C663.177 47.752 661.625 44.312 661.625 39.896ZM690.832 53L690.688 39.032C690.72 37.336 690.944 35.832 691.36 34.52C691.776 33.176 692.272 32.088 692.848 31.256C693.456 30.392 694.224 29.672 695.152 29.096C696.08 28.52 696.96 28.104 697.792 27.848C698.624 27.56 699.6 27.352 700.72 27.224C701.872 27.096 702.8 27.048 703.504 27.08C704.24 27.08 705.12 27.096 706.144 27.128C707.168 27.16 707.84 27.176 708.16 27.176V34.808C706.336 34.776 704.816 34.84 703.6 35C702.416 35.128 701.456 35.304 700.72 35.528C700.016 35.752 699.488 36.12 699.136 36.632C698.784 37.112 698.544 37.608 698.416 38.12C698.32 38.632 698.272 39.336 698.272 40.232V53H690.832Z" fill="#2871DE"/>
<g filter="url(#filter0_d_69_158)">
<rect x="187" y="104" width="201" height="58" rx="12" fill="white"/>
<rect x="201" y="153.456" width="36" height="36" rx="6" transform="rotate(-45 201 153.456)" fill="white"/>
</g>
<path d="M233.284 131.14C233.284 132.3 232.884 133.267 232.084 134.04C231.297 134.8 230.09 135.18 228.464 135.18H225.784V141H223.964V127.06H228.464C230.037 127.06 231.23 127.44 232.044 128.2C232.87 128.96 233.284 129.94 233.284 131.14ZM228.464 133.68C229.477 133.68 230.224 133.46 230.704 133.02C231.184 132.58 231.424 131.953 231.424 131.14C231.424 129.42 230.437 128.56 228.464 128.56H225.784V133.68H228.464ZM237.366 131.82C237.686 131.193 238.139 130.707 238.726 130.36C239.326 130.013 240.053 129.84 240.906 129.84V131.72H240.426C238.386 131.72 237.366 132.827 237.366 135.04V141H235.546V130.04H237.366V131.82ZM247.787 141.18C246.76 141.18 245.827 140.947 244.987 140.48C244.16 140.013 243.507 139.353 243.027 138.5C242.56 137.633 242.327 136.633 242.327 135.5C242.327 134.38 242.567 133.393 243.047 132.54C243.54 131.673 244.207 131.013 245.047 130.56C245.887 130.093 246.827 129.86 247.867 129.86C248.907 129.86 249.847 130.093 250.687 130.56C251.527 131.013 252.187 131.667 252.667 132.52C253.16 133.373 253.407 134.367 253.407 135.5C253.407 136.633 253.153 137.633 252.647 138.5C252.153 139.353 251.48 140.013 250.627 140.48C249.773 140.947 248.827 141.18 247.787 141.18ZM247.787 139.58C248.44 139.58 249.053 139.427 249.627 139.12C250.2 138.813 250.66 138.353 251.007 137.74C251.367 137.127 251.547 136.38 251.547 135.5C251.547 134.62 251.373 133.873 251.027 133.26C250.68 132.647 250.227 132.193 249.667 131.9C249.107 131.593 248.5 131.44 247.847 131.44C247.18 131.44 246.567 131.593 246.007 131.9C245.46 132.193 245.02 132.647 244.687 133.26C244.353 133.873 244.187 134.62 244.187 135.5C244.187 136.393 244.347 137.147 244.667 137.76C245 138.373 245.44 138.833 245.987 139.14C246.533 139.433 247.133 139.58 247.787 139.58ZM260.26 131.54H257.96V141H256.14V131.54H254.72V130.04H256.14V129.26C256.14 128.033 256.453 127.14 257.08 126.58C257.72 126.007 258.74 125.72 260.14 125.72V127.24C259.34 127.24 258.773 127.4 258.44 127.72C258.12 128.027 257.96 128.54 257.96 129.26V130.04H260.26V131.54ZM272.382 135.1C272.382 135.447 272.362 135.813 272.322 136.2H263.562C263.628 137.28 263.995 138.127 264.662 138.74C265.342 139.34 266.162 139.64 267.122 139.64C267.908 139.64 268.562 139.46 269.082 139.1C269.615 138.727 269.988 138.233 270.202 137.62H272.162C271.868 138.673 271.282 139.533 270.402 140.2C269.522 140.853 268.428 141.18 267.122 141.18C266.082 141.18 265.148 140.947 264.322 140.48C263.508 140.013 262.868 139.353 262.402 138.5C261.935 137.633 261.702 136.633 261.702 135.5C261.702 134.367 261.928 133.373 262.382 132.52C262.835 131.667 263.468 131.013 264.282 130.56C265.108 130.093 266.055 129.86 267.122 129.86C268.162 129.86 269.082 130.087 269.882 130.54C270.682 130.993 271.295 131.62 271.722 132.42C272.162 133.207 272.382 134.1 272.382 135.1ZM270.502 134.72C270.502 134.027 270.348 133.433 270.042 132.94C269.735 132.433 269.315 132.053 268.782 131.8C268.262 131.533 267.682 131.4 267.042 131.4C266.122 131.4 265.335 131.693 264.682 132.28C264.042 132.867 263.675 133.68 263.582 134.72H270.502ZM278.664 141.18C277.824 141.18 277.071 141.04 276.404 140.76C275.737 140.467 275.211 140.067 274.824 139.56C274.437 139.04 274.224 138.447 274.184 137.78H276.064C276.117 138.327 276.371 138.773 276.824 139.12C277.291 139.467 277.897 139.64 278.644 139.64C279.337 139.64 279.884 139.487 280.284 139.18C280.684 138.873 280.884 138.487 280.884 138.02C280.884 137.54 280.671 137.187 280.244 136.96C279.817 136.72 279.157 136.487 278.264 136.26C277.451 136.047 276.784 135.833 276.264 135.62C275.757 135.393 275.317 135.067 274.944 134.64C274.584 134.2 274.404 133.627 274.404 132.92C274.404 132.36 274.571 131.847 274.904 131.38C275.237 130.913 275.711 130.547 276.324 130.28C276.937 130 277.637 129.86 278.424 129.86C279.637 129.86 280.617 130.167 281.364 130.78C282.111 131.393 282.511 132.233 282.564 133.3H280.744C280.704 132.727 280.471 132.267 280.044 131.92C279.631 131.573 279.071 131.4 278.364 131.4C277.711 131.4 277.191 131.54 276.804 131.82C276.417 132.1 276.224 132.467 276.224 132.92C276.224 133.28 276.337 133.58 276.564 133.82C276.804 134.047 277.097 134.233 277.444 134.38C277.804 134.513 278.297 134.667 278.924 134.84C279.711 135.053 280.351 135.267 280.844 135.48C281.337 135.68 281.757 135.987 282.104 136.4C282.464 136.813 282.651 137.353 282.664 138.02C282.664 138.62 282.497 139.16 282.164 139.64C281.831 140.12 281.357 140.5 280.744 140.78C280.144 141.047 279.451 141.18 278.664 141.18ZM289.113 141.18C288.273 141.18 287.52 141.04 286.853 140.76C286.187 140.467 285.66 140.067 285.273 139.56C284.887 139.04 284.673 138.447 284.633 137.78H286.513C286.567 138.327 286.82 138.773 287.273 139.12C287.74 139.467 288.347 139.64 289.093 139.64C289.787 139.64 290.333 139.487 290.733 139.18C291.133 138.873 291.333 138.487 291.333 138.02C291.333 137.54 291.12 137.187 290.693 136.96C290.267 136.72 289.607 136.487 288.713 136.26C287.9 136.047 287.233 135.833 286.713 135.62C286.207 135.393 285.767 135.067 285.393 134.64C285.033 134.2 284.853 133.627 284.853 132.92C284.853 132.36 285.02 131.847 285.353 131.38C285.687 130.913 286.16 130.547 286.773 130.28C287.387 130 288.087 129.86 288.873 129.86C290.087 129.86 291.067 130.167 291.813 130.78C292.56 131.393 292.96 132.233 293.013 133.3H291.193C291.153 132.727 290.92 132.267 290.493 131.92C290.08 131.573 289.52 131.4 288.813 131.4C288.16 131.4 287.64 131.54 287.253 131.82C286.867 132.1 286.673 132.467 286.673 132.92C286.673 133.28 286.787 133.58 287.013 133.82C287.253 134.047 287.547 134.233 287.893 134.38C288.253 134.513 288.747 134.667 289.373 134.84C290.16 135.053 290.8 135.267 291.293 135.48C291.787 135.68 292.207 135.987 292.553 136.4C292.913 136.813 293.1 137.353 293.113 138.02C293.113 138.62 292.947 139.16 292.613 139.64C292.28 140.12 291.807 140.5 291.193 140.78C290.593 141.047 289.9 141.18 289.113 141.18ZM296.623 128.26C296.276 128.26 295.983 128.14 295.743 127.9C295.503 127.66 295.383 127.367 295.383 127.02C295.383 126.673 295.503 126.38 295.743 126.14C295.983 125.9 296.276 125.78 296.623 125.78C296.956 125.78 297.236 125.9 297.463 126.14C297.703 126.38 297.823 126.673 297.823 127.02C297.823 127.367 297.703 127.66 297.463 127.9C297.236 128.14 296.956 128.26 296.623 128.26ZM297.503 130.04V141H295.683V130.04H297.503ZM305.384 141.18C304.358 141.18 303.424 140.947 302.584 140.48C301.758 140.013 301.104 139.353 300.624 138.5C300.158 137.633 299.924 136.633 299.924 135.5C299.924 134.38 300.164 133.393 300.644 132.54C301.138 131.673 301.804 131.013 302.644 130.56C303.484 130.093 304.424 129.86 305.464 129.86C306.504 129.86 307.444 130.093 308.284 130.56C309.124 131.013 309.784 131.667 310.264 132.52C310.758 133.373 311.004 134.367 311.004 135.5C311.004 136.633 310.751 137.633 310.244 138.5C309.751 139.353 309.078 140.013 308.224 140.48C307.371 140.947 306.424 141.18 305.384 141.18ZM305.384 139.58C306.038 139.58 306.651 139.427 307.224 139.12C307.798 138.813 308.258 138.353 308.604 137.74C308.964 137.127 309.144 136.38 309.144 135.5C309.144 134.62 308.971 133.873 308.624 133.26C308.278 132.647 307.824 132.193 307.264 131.9C306.704 131.593 306.098 131.44 305.444 131.44C304.778 131.44 304.164 131.593 303.604 131.9C303.058 132.193 302.618 132.647 302.284 133.26C301.951 133.873 301.784 134.62 301.784 135.5C301.784 136.393 301.944 137.147 302.264 137.76C302.598 138.373 303.038 138.833 303.584 139.14C304.131 139.433 304.731 139.58 305.384 139.58ZM318.737 129.84C320.071 129.84 321.151 130.247 321.977 131.06C322.804 131.86 323.217 133.02 323.217 134.54V141H321.417V134.8C321.417 133.707 321.144 132.873 320.597 132.3C320.051 131.713 319.304 131.42 318.357 131.42C317.397 131.42 316.631 131.72 316.057 132.32C315.497 132.92 315.217 133.793 315.217 134.94V141H313.397V130.04H315.217V131.6C315.577 131.04 316.064 130.607 316.677 130.3C317.304 129.993 317.991 129.84 318.737 129.84ZM325.51 135.48C325.51 134.36 325.737 133.38 326.19 132.54C326.644 131.687 327.264 131.027 328.05 130.56C328.85 130.093 329.737 129.86 330.71 129.86C331.67 129.86 332.504 130.067 333.21 130.48C333.917 130.893 334.444 131.413 334.79 132.04V130.04H336.63V141H334.79V138.96C334.43 139.6 333.89 140.133 333.17 140.56C332.464 140.973 331.637 141.18 330.69 141.18C329.717 141.18 328.837 140.94 328.05 140.46C327.264 139.98 326.644 139.307 326.19 138.44C325.737 137.573 325.51 136.587 325.51 135.48ZM334.79 135.5C334.79 134.673 334.624 133.953 334.29 133.34C333.957 132.727 333.504 132.26 332.93 131.94C332.37 131.607 331.75 131.44 331.07 131.44C330.39 131.44 329.77 131.6 329.21 131.92C328.65 132.24 328.204 132.707 327.87 133.32C327.537 133.933 327.37 134.653 327.37 135.48C327.37 136.32 327.537 137.053 327.87 137.68C328.204 138.293 328.65 138.767 329.21 139.1C329.77 139.42 330.39 139.58 331.07 139.58C331.75 139.58 332.37 139.42 332.93 139.1C333.504 138.767 333.957 138.293 334.29 137.68C334.624 137.053 334.79 136.327 334.79 135.5ZM341.526 126.2V141H339.706V126.2H341.526ZM348.188 126.88C349.508 126.88 350.575 127.253 351.388 128C352.201 128.747 352.608 129.747 352.608 131C352.608 132.4 352.175 133.44 351.308 134.12C350.441 134.787 349.268 135.12 347.788 135.12L347.728 137.02H346.148L346.068 133.86H346.648C347.968 133.86 349.001 133.66 349.748 133.26C350.495 132.86 350.868 132.107 350.868 131C350.868 130.2 350.628 129.567 350.148 129.1C349.668 128.633 349.021 128.4 348.208 128.4C347.381 128.4 346.728 128.627 346.248 129.08C345.781 129.52 345.548 130.127 345.548 130.9H343.828C343.828 130.1 344.008 129.4 344.368 128.8C344.728 128.187 345.235 127.713 345.888 127.38C346.555 127.047 347.321 126.88 348.188 126.88ZM346.928 141.12C346.581 141.12 346.288 141 346.048 140.76C345.808 140.52 345.688 140.227 345.688 139.88C345.688 139.533 345.808 139.24 346.048 139C346.288 138.76 346.581 138.64 346.928 138.64C347.261 138.64 347.541 138.76 347.768 139C348.008 139.24 348.128 139.533 348.128 139.88C348.128 140.227 348.008 140.52 347.768 140.76C347.541 141 347.261 141.12 346.928 141.12Z" fill="black"/>
<g filter="url(#filter1_d_69_158)">
<rect x="187" y="264" width="255" height="58" rx="12" fill="white"/>
<rect x="201" y="313.456" width="36" height="36" rx="6" transform="rotate(-45 201 313.456)" fill="white"/>
</g>
<path d="M228.979 292.82C229.486 292.9 229.946 293.107 230.359 293.44C230.786 293.773 231.119 294.187 231.359 294.68C231.612 295.173 231.739 295.7 231.739 296.26C231.739 296.967 231.559 297.607 231.199 298.18C230.839 298.74 230.312 299.187 229.619 299.52C228.939 299.84 228.132 300 227.199 300H221.999V286.06H226.999C227.946 286.06 228.752 286.22 229.419 286.54C230.086 286.847 230.586 287.267 230.919 287.8C231.252 288.333 231.419 288.933 231.419 289.6C231.419 290.427 231.192 291.113 230.739 291.66C230.299 292.193 229.712 292.58 228.979 292.82ZM223.819 292.08H226.879C227.732 292.08 228.392 291.88 228.859 291.48C229.326 291.08 229.559 290.527 229.559 289.82C229.559 289.113 229.326 288.56 228.859 288.16C228.392 287.76 227.719 287.56 226.839 287.56H223.819V292.08ZM227.039 298.5C227.946 298.5 228.652 298.287 229.159 297.86C229.666 297.433 229.919 296.84 229.919 296.08C229.919 295.307 229.652 294.7 229.119 294.26C228.586 293.807 227.872 293.58 226.979 293.58H223.819V298.5H227.039ZM236.085 290.82C236.405 290.193 236.858 289.707 237.445 289.36C238.045 289.013 238.771 288.84 239.625 288.84V290.72H239.145C237.105 290.72 236.085 291.827 236.085 294.04V300H234.265V289.04H236.085V290.82ZM242.666 287.26C242.319 287.26 242.026 287.14 241.786 286.9C241.546 286.66 241.426 286.367 241.426 286.02C241.426 285.673 241.546 285.38 241.786 285.14C242.026 284.9 242.319 284.78 242.666 284.78C242.999 284.78 243.279 284.9 243.506 285.14C243.746 285.38 243.866 285.673 243.866 286.02C243.866 286.367 243.746 286.66 243.506 286.9C243.279 287.14 242.999 287.26 242.666 287.26ZM243.546 289.04V300H241.726V289.04H243.546ZM251.987 288.84C253.321 288.84 254.401 289.247 255.227 290.06C256.054 290.86 256.467 292.02 256.467 293.54V300H254.667V293.8C254.667 292.707 254.394 291.873 253.847 291.3C253.301 290.713 252.554 290.42 251.607 290.42C250.647 290.42 249.881 290.72 249.307 291.32C248.747 291.92 248.467 292.793 248.467 293.94V300H246.647V289.04H248.467V290.6C248.827 290.04 249.314 289.607 249.927 289.3C250.554 288.993 251.241 288.84 251.987 288.84ZM263.96 288.86C264.907 288.86 265.734 289.067 266.44 289.48C267.16 289.893 267.694 290.413 268.04 291.04V289.04H269.88V300.24C269.88 301.24 269.667 302.127 269.24 302.9C268.814 303.687 268.2 304.3 267.4 304.74C266.614 305.18 265.694 305.4 264.64 305.4C263.2 305.4 262 305.06 261.04 304.38C260.08 303.7 259.514 302.773 259.34 301.6H261.14C261.34 302.267 261.754 302.8 262.38 303.2C263.007 303.613 263.76 303.82 264.64 303.82C265.64 303.82 266.454 303.507 267.08 302.88C267.72 302.253 268.04 301.373 268.04 300.24V297.94C267.68 298.58 267.147 299.113 266.44 299.54C265.734 299.967 264.907 300.18 263.96 300.18C262.987 300.18 262.1 299.94 261.3 299.46C260.514 298.98 259.894 298.307 259.44 297.44C258.987 296.573 258.76 295.587 258.76 294.48C258.76 293.36 258.987 292.38 259.44 291.54C259.894 290.687 260.514 290.027 261.3 289.56C262.1 289.093 262.987 288.86 263.96 288.86ZM268.04 294.5C268.04 293.673 267.874 292.953 267.54 292.34C267.207 291.727 266.754 291.26 266.18 290.94C265.62 290.607 265 290.44 264.32 290.44C263.64 290.44 263.02 290.6 262.46 290.92C261.9 291.24 261.454 291.707 261.12 292.32C260.787 292.933 260.62 293.653 260.62 294.48C260.62 295.32 260.787 296.053 261.12 296.68C261.454 297.293 261.9 297.767 262.46 298.1C263.02 298.42 263.64 298.58 264.32 298.58C265 298.58 265.62 298.42 266.18 298.1C266.754 297.767 267.207 297.293 267.54 296.68C267.874 296.053 268.04 295.327 268.04 294.5ZM273.896 287.26C273.549 287.26 273.256 287.14 273.016 286.9C272.776 286.66 272.656 286.367 272.656 286.02C272.656 285.673 272.776 285.38 273.016 285.14C273.256 284.9 273.549 284.78 273.896 284.78C274.229 284.78 274.509 284.9 274.736 285.14C274.976 285.38 275.096 285.673 275.096 286.02C275.096 286.367 274.976 286.66 274.736 286.9C274.509 287.14 274.229 287.26 273.896 287.26ZM274.776 289.04V300H272.956V289.04H274.776ZM283.218 288.84C284.551 288.84 285.631 289.247 286.458 290.06C287.285 290.86 287.698 292.02 287.698 293.54V300H285.898V293.8C285.898 292.707 285.625 291.873 285.078 291.3C284.531 290.713 283.785 290.42 282.838 290.42C281.878 290.42 281.111 290.72 280.538 291.32C279.978 291.92 279.698 292.793 279.698 293.94V300H277.878V289.04H279.698V290.6C280.058 290.04 280.545 289.607 281.158 289.3C281.785 288.993 282.471 288.84 283.218 288.84ZM295.191 288.86C296.138 288.86 296.964 289.067 297.671 289.48C298.391 289.893 298.924 290.413 299.271 291.04V289.04H301.111V300.24C301.111 301.24 300.898 302.127 300.471 302.9C300.044 303.687 299.431 304.3 298.631 304.74C297.844 305.18 296.924 305.4 295.871 305.4C294.431 305.4 293.231 305.06 292.271 304.38C291.311 303.7 290.744 302.773 290.571 301.6H292.371C292.571 302.267 292.984 302.8 293.611 303.2C294.238 303.613 294.991 303.82 295.871 303.82C296.871 303.82 297.684 303.507 298.311 302.88C298.951 302.253 299.271 301.373 299.271 300.24V297.94C298.911 298.58 298.378 299.113 297.671 299.54C296.964 299.967 296.138 300.18 295.191 300.18C294.218 300.18 293.331 299.94 292.531 299.46C291.744 298.98 291.124 298.307 290.671 297.44C290.218 296.573 289.991 295.587 289.991 294.48C289.991 293.36 290.218 292.38 290.671 291.54C291.124 290.687 291.744 290.027 292.531 289.56C293.331 289.093 294.218 288.86 295.191 288.86ZM299.271 294.5C299.271 293.673 299.104 292.953 298.771 292.34C298.438 291.727 297.984 291.26 297.411 290.94C296.851 290.607 296.231 290.44 295.551 290.44C294.871 290.44 294.251 290.6 293.691 290.92C293.131 291.24 292.684 291.707 292.351 292.32C292.018 292.933 291.851 293.653 291.851 294.48C291.851 295.32 292.018 296.053 292.351 296.68C292.684 297.293 293.131 297.767 293.691 298.1C294.251 298.42 294.871 298.58 295.551 298.58C296.231 298.58 296.851 298.42 297.411 298.1C297.984 297.767 298.438 297.293 298.771 296.68C299.104 296.053 299.271 295.327 299.271 294.5ZM308.839 294.48C308.839 293.36 309.065 292.38 309.519 291.54C309.972 290.687 310.592 290.027 311.379 289.56C312.179 289.093 313.065 288.86 314.039 288.86C314.999 288.86 315.832 289.067 316.539 289.48C317.245 289.893 317.772 290.413 318.119 291.04V289.04H319.959V300H318.119V297.96C317.759 298.6 317.219 299.133 316.499 299.56C315.792 299.973 314.965 300.18 314.019 300.18C313.045 300.18 312.165 299.94 311.379 299.46C310.592 298.98 309.972 298.307 309.519 297.44C309.065 296.573 308.839 295.587 308.839 294.48ZM318.119 294.5C318.119 293.673 317.952 292.953 317.619 292.34C317.285 291.727 316.832 291.26 316.259 290.94C315.699 290.607 315.079 290.44 314.399 290.44C313.719 290.44 313.099 290.6 312.539 290.92C311.979 291.24 311.532 291.707 311.199 292.32C310.865 292.933 310.699 293.653 310.699 294.48C310.699 295.32 310.865 296.053 311.199 296.68C311.532 297.293 311.979 297.767 312.539 298.1C313.099 298.42 313.719 298.58 314.399 298.58C315.079 298.58 315.699 298.42 316.259 298.1C316.832 297.767 317.285 297.293 317.619 296.68C317.952 296.053 318.119 295.327 318.119 294.5ZM325.254 290.54V297C325.254 297.533 325.367 297.913 325.594 298.14C325.821 298.353 326.214 298.46 326.774 298.46H328.114V300H326.474C325.461 300 324.701 299.767 324.194 299.3C323.687 298.833 323.434 298.067 323.434 297V290.54H322.014V289.04H323.434V286.28H325.254V289.04H328.114V290.54H325.254ZM332.539 290.54V297C332.539 297.533 332.653 297.913 332.879 298.14C333.106 298.353 333.499 298.46 334.059 298.46H335.399V300H333.759C332.746 300 331.986 299.767 331.479 299.3C330.973 298.833 330.719 298.067 330.719 297V290.54H329.299V289.04H330.719V286.28H332.539V289.04H335.399V290.54H332.539ZM347.604 294.1C347.604 294.447 347.584 294.813 347.544 295.2H338.784C338.851 296.28 339.218 297.127 339.884 297.74C340.564 298.34 341.384 298.64 342.344 298.64C343.131 298.64 343.784 298.46 344.304 298.1C344.838 297.727 345.211 297.233 345.424 296.62H347.384C347.091 297.673 346.504 298.533 345.624 299.2C344.744 299.853 343.651 300.18 342.344 300.18C341.304 300.18 340.371 299.947 339.544 299.48C338.731 299.013 338.091 298.353 337.624 297.5C337.158 296.633 336.924 295.633 336.924 294.5C336.924 293.367 337.151 292.373 337.604 291.52C338.058 290.667 338.691 290.013 339.504 289.56C340.331 289.093 341.278 288.86 342.344 288.86C343.384 288.86 344.304 289.087 345.104 289.54C345.904 289.993 346.518 290.62 346.944 291.42C347.384 292.207 347.604 293.1 347.604 294.1ZM345.724 293.72C345.724 293.027 345.571 292.433 345.264 291.94C344.958 291.433 344.538 291.053 344.004 290.8C343.484 290.533 342.904 290.4 342.264 290.4C341.344 290.4 340.558 290.693 339.904 291.28C339.264 291.867 338.898 292.68 338.804 293.72H345.724ZM355.347 288.84C356.68 288.84 357.76 289.247 358.587 290.06C359.413 290.86 359.827 292.02 359.827 293.54V300H358.027V293.8C358.027 292.707 357.753 291.873 357.207 291.3C356.66 290.713 355.913 290.42 354.967 290.42C354.007 290.42 353.24 290.72 352.667 291.32C352.107 291.92 351.827 292.793 351.827 293.94V300H350.007V289.04H351.827V290.6C352.187 290.04 352.673 289.607 353.287 289.3C353.913 288.993 354.6 288.84 355.347 288.84ZM365.02 290.54V297C365.02 297.533 365.133 297.913 365.36 298.14C365.586 298.353 365.98 298.46 366.54 298.46H367.88V300H366.24C365.226 300 364.466 299.767 363.96 299.3C363.453 298.833 363.2 298.067 363.2 297V290.54H361.78V289.04H363.2V286.28H365.02V289.04H367.88V290.54H365.02ZM371.025 287.26C370.678 287.26 370.385 287.14 370.145 286.9C369.905 286.66 369.785 286.367 369.785 286.02C369.785 285.673 369.905 285.38 370.145 285.14C370.385 284.9 370.678 284.78 371.025 284.78C371.358 284.78 371.638 284.9 371.865 285.14C372.105 285.38 372.225 285.673 372.225 286.02C372.225 286.367 372.105 286.66 371.865 286.9C371.638 287.14 371.358 287.26 371.025 287.26ZM371.905 289.04V300H370.085V289.04H371.905ZM379.787 300.18C378.76 300.18 377.827 299.947 376.987 299.48C376.16 299.013 375.507 298.353 375.027 297.5C374.56 296.633 374.327 295.633 374.327 294.5C374.327 293.38 374.567 292.393 375.047 291.54C375.54 290.673 376.207 290.013 377.047 289.56C377.887 289.093 378.827 288.86 379.867 288.86C380.907 288.86 381.847 289.093 382.687 289.56C383.527 290.013 384.187 290.667 384.667 291.52C385.16 292.373 385.407 293.367 385.407 294.5C385.407 295.633 385.153 296.633 384.647 297.5C384.153 298.353 383.48 299.013 382.627 299.48C381.773 299.947 380.827 300.18 379.787 300.18ZM379.787 298.58C380.44 298.58 381.053 298.427 381.627 298.12C382.2 297.813 382.66 297.353 383.007 296.74C383.367 296.127 383.547 295.38 383.547 294.5C383.547 293.62 383.373 292.873 383.027 292.26C382.68 291.647 382.227 291.193 381.667 290.9C381.107 290.593 380.5 290.44 379.847 290.44C379.18 290.44 378.567 290.593 378.007 290.9C377.46 291.193 377.02 291.647 376.687 292.26C376.353 292.873 376.187 293.62 376.187 294.5C376.187 295.393 376.347 296.147 376.667 296.76C377 297.373 377.44 297.833 377.987 298.14C378.533 298.433 379.133 298.58 379.787 298.58ZM393.14 288.84C394.473 288.84 395.553 289.247 396.38 290.06C397.206 290.86 397.62 292.02 397.62 293.54V300H395.82V293.8C395.82 292.707 395.546 291.873 395 291.3C394.453 290.713 393.706 290.42 392.76 290.42C391.8 290.42 391.033 290.72 390.46 291.32C389.9 291.92 389.62 292.793 389.62 293.94V300H387.8V289.04H389.62V290.6C389.98 290.04 390.466 289.607 391.08 289.3C391.706 288.993 392.393 288.84 393.14 288.84ZM404.153 285.88C405.473 285.88 406.539 286.253 407.353 287C408.166 287.747 408.573 288.747 408.573 290C408.573 291.4 408.139 292.44 407.273 293.12C406.406 293.787 405.233 294.12 403.753 294.12L403.693 296.02H402.113L402.033 292.86H402.613C403.933 292.86 404.966 292.66 405.713 292.26C406.459 291.86 406.833 291.107 406.833 290C406.833 289.2 406.593 288.567 406.113 288.1C405.633 287.633 404.986 287.4 404.173 287.4C403.346 287.4 402.693 287.627 402.213 288.08C401.746 288.52 401.513 289.127 401.513 289.9H399.793C399.793 289.1 399.973 288.4 400.333 287.8C400.693 287.187 401.199 286.713 401.853 286.38C402.519 286.047 403.286 285.88 404.153 285.88ZM402.893 300.12C402.546 300.12 402.253 300 402.013 299.76C401.773 299.52 401.653 299.227 401.653 298.88C401.653 298.533 401.773 298.24 402.013 298C402.253 297.76 402.546 297.64 402.893 297.64C403.226 297.64 403.506 297.76 403.733 298C403.973 298.24 404.093 298.533 404.093 298.88C404.093 299.227 403.973 299.52 403.733 299.76C403.506 300 403.226 300.12 402.893 300.12Z" fill="black"/>
<rect x="362" y="185" width="114" height="58" rx="12" fill="#102D59"/>
<rect x="412" y="234.456" width="36" height="36" rx="6" transform="rotate(-45 412 234.456)" fill="#102D59"/>
<path d="M409.556 207.06L405.016 215.74V221H403.196V215.74L398.636 207.06H400.656L404.096 214.12L407.536 207.06H409.556ZM421.476 215.1C421.476 215.447 421.456 215.813 421.416 216.2H412.656C412.722 217.28 413.089 218.127 413.756 218.74C414.436 219.34 415.256 219.64 416.216 219.64C417.002 219.64 417.656 219.46 418.176 219.1C418.709 218.727 419.082 218.233 419.296 217.62H421.256C420.962 218.673 420.376 219.533 419.496 220.2C418.616 220.853 417.522 221.18 416.216 221.18C415.176 221.18 414.242 220.947 413.416 220.48C412.602 220.013 411.962 219.353 411.496 218.5C411.029 217.633 410.796 216.633 410.796 215.5C410.796 214.367 411.022 213.373 411.476 212.52C411.929 211.667 412.562 211.013 413.376 210.56C414.202 210.093 415.149 209.86 416.216 209.86C417.256 209.86 418.176 210.087 418.976 210.54C419.776 210.993 420.389 211.62 420.816 212.42C421.256 213.207 421.476 214.1 421.476 215.1ZM419.596 214.72C419.596 214.027 419.442 213.433 419.136 212.94C418.829 212.433 418.409 212.053 417.876 211.8C417.356 211.533 416.776 211.4 416.136 211.4C415.216 211.4 414.429 211.693 413.776 212.28C413.136 212.867 412.769 213.68 412.676 214.72H419.596ZM427.758 221.18C426.918 221.18 426.165 221.04 425.498 220.76C424.831 220.467 424.305 220.067 423.918 219.56C423.531 219.04 423.318 218.447 423.278 217.78H425.158C425.211 218.327 425.465 218.773 425.918 219.12C426.385 219.467 426.991 219.64 427.738 219.64C428.431 219.64 428.978 219.487 429.378 219.18C429.778 218.873 429.978 218.487 429.978 218.02C429.978 217.54 429.765 217.187 429.338 216.96C428.911 216.72 428.251 216.487 427.358 216.26C426.545 216.047 425.878 215.833 425.358 215.62C424.851 215.393 424.411 215.067 424.038 214.64C423.678 214.2 423.498 213.627 423.498 212.92C423.498 212.36 423.665 211.847 423.998 211.38C424.331 210.913 424.805 210.547 425.418 210.28C426.031 210 426.731 209.86 427.518 209.86C428.731 209.86 429.711 210.167 430.458 210.78C431.205 211.393 431.605 212.233 431.658 213.3H429.838C429.798 212.727 429.565 212.267 429.138 211.92C428.725 211.573 428.165 211.4 427.458 211.4C426.805 211.4 426.285 211.54 425.898 211.82C425.511 212.1 425.318 212.467 425.318 212.92C425.318 213.28 425.431 213.58 425.658 213.82C425.898 214.047 426.191 214.233 426.538 214.38C426.898 214.513 427.391 214.667 428.018 214.84C428.805 215.053 429.445 215.267 429.938 215.48C430.431 215.68 430.851 215.987 431.198 216.4C431.558 216.813 431.745 217.353 431.758 218.02C431.758 218.62 431.591 219.16 431.258 219.64C430.925 220.12 430.451 220.5 429.838 220.78C429.238 221.047 428.545 221.18 427.758 221.18ZM436.687 207.06L436.467 217.06H434.947L434.727 207.06H436.687ZM435.787 221.12C435.44 221.12 435.147 221 434.907 220.76C434.667 220.52 434.547 220.227 434.547 219.88C434.547 219.533 434.667 219.24 434.907 219C435.147 218.76 435.44 218.64 435.787 218.64C436.12 218.64 436.4 218.76 436.627 219C436.867 219.24 436.987 219.533 436.987 219.88C436.987 220.227 436.867 220.52 436.627 220.76C436.4 221 436.12 221.12 435.787 221.12Z" fill="white"/>
<rect x="331" y="349" width="145" height="58" rx="12" fill="#102D59"/>
<rect x="412" y="398.456" width="36" height="36" rx="6" transform="rotate(-45 412 398.456)" fill="#102D59"/>
<path d="M374.897 385.14C373.604 385.14 372.424 384.84 371.357 384.24C370.29 383.627 369.444 382.78 368.817 381.7C368.204 380.607 367.897 379.38 367.897 378.02C367.897 376.66 368.204 375.44 368.817 374.36C369.444 373.267 370.29 372.42 371.357 371.82C372.424 371.207 373.604 370.9 374.897 370.9C376.204 370.9 377.39 371.207 378.457 371.82C379.524 372.42 380.364 373.26 380.977 374.34C381.59 375.42 381.897 376.647 381.897 378.02C381.897 379.393 381.59 380.62 380.977 381.7C380.364 382.78 379.524 383.627 378.457 384.24C377.39 384.84 376.204 385.14 374.897 385.14ZM374.897 383.56C375.87 383.56 376.744 383.333 377.517 382.88C378.304 382.427 378.917 381.78 379.357 380.94C379.81 380.1 380.037 379.127 380.037 378.02C380.037 376.9 379.81 375.927 379.357 375.1C378.917 374.26 378.31 373.613 377.537 373.16C376.764 372.707 375.884 372.48 374.897 372.48C373.91 372.48 373.03 372.707 372.257 373.16C371.484 373.613 370.87 374.26 370.417 375.1C369.977 375.927 369.757 376.9 369.757 378.02C369.757 379.127 369.977 380.1 370.417 380.94C370.87 381.78 371.484 382.427 372.257 382.88C373.044 383.333 373.924 383.56 374.897 383.56ZM389.74 373.84C390.566 373.84 391.313 374.02 391.98 374.38C392.646 374.727 393.166 375.253 393.54 375.96C393.926 376.667 394.12 377.527 394.12 378.54V385H392.32V378.8C392.32 377.707 392.046 376.873 391.5 376.3C390.953 375.713 390.206 375.42 389.26 375.42C388.3 375.42 387.533 375.72 386.96 376.32C386.4 376.92 386.12 377.793 386.12 378.94V385H384.3V370.2H386.12V375.6C386.48 375.04 386.973 374.607 387.6 374.3C388.24 373.993 388.953 373.84 389.74 373.84ZM411.865 374.04L405.265 390.16H403.385L405.545 384.88L401.125 374.04H403.145L406.585 382.92L409.985 374.04H411.865ZM423.694 379.1C423.694 379.447 423.674 379.813 423.634 380.2H414.874C414.941 381.28 415.308 382.127 415.974 382.74C416.654 383.34 417.474 383.64 418.434 383.64C419.221 383.64 419.874 383.46 420.394 383.1C420.928 382.727 421.301 382.233 421.514 381.62H423.474C423.181 382.673 422.594 383.533 421.714 384.2C420.834 384.853 419.741 385.18 418.434 385.18C417.394 385.18 416.461 384.947 415.634 384.48C414.821 384.013 414.181 383.353 413.714 382.5C413.248 381.633 413.014 380.633 413.014 379.5C413.014 378.367 413.241 377.373 413.694 376.52C414.148 375.667 414.781 375.013 415.594 374.56C416.421 374.093 417.368 373.86 418.434 373.86C419.474 373.86 420.394 374.087 421.194 374.54C421.994 374.993 422.608 375.62 423.034 376.42C423.474 377.207 423.694 378.1 423.694 379.1ZM421.814 378.72C421.814 378.027 421.661 377.433 421.354 376.94C421.048 376.433 420.628 376.053 420.094 375.8C419.574 375.533 418.994 375.4 418.354 375.4C417.434 375.4 416.648 375.693 415.994 376.28C415.354 376.867 414.988 377.68 414.894 378.72H421.814ZM429.977 385.18C429.137 385.18 428.383 385.04 427.717 384.76C427.05 384.467 426.523 384.067 426.137 383.56C425.75 383.04 425.537 382.447 425.497 381.78H427.377C427.43 382.327 427.683 382.773 428.137 383.12C428.603 383.467 429.21 383.64 429.957 383.64C430.65 383.64 431.197 383.487 431.597 383.18C431.997 382.873 432.197 382.487 432.197 382.02C432.197 381.54 431.983 381.187 431.557 380.96C431.13 380.72 430.47 380.487 429.577 380.26C428.763 380.047 428.097 379.833 427.577 379.62C427.07 379.393 426.63 379.067 426.257 378.64C425.897 378.2 425.717 377.627 425.717 376.92C425.717 376.36 425.883 375.847 426.217 375.38C426.55 374.913 427.023 374.547 427.637 374.28C428.25 374 428.95 373.86 429.737 373.86C430.95 373.86 431.93 374.167 432.677 374.78C433.423 375.393 433.823 376.233 433.877 377.3H432.057C432.017 376.727 431.783 376.267 431.357 375.92C430.943 375.573 430.383 375.4 429.677 375.4C429.023 375.4 428.503 375.54 428.117 375.82C427.73 376.1 427.537 376.467 427.537 376.92C427.537 377.28 427.65 377.58 427.877 377.82C428.117 378.047 428.41 378.233 428.757 378.38C429.117 378.513 429.61 378.667 430.237 378.84C431.023 379.053 431.663 379.267 432.157 379.48C432.65 379.68 433.07 379.987 433.417 380.4C433.777 380.813 433.963 381.353 433.977 382.02C433.977 382.62 433.81 383.16 433.477 383.64C433.143 384.12 432.67 384.5 432.057 384.78C431.457 385.047 430.763 385.18 429.977 385.18ZM438.906 371.06L438.686 381.06H437.166L436.946 371.06H438.906ZM438.006 385.12C437.659 385.12 437.366 385 437.126 384.76C436.886 384.52 436.766 384.227 436.766 383.88C436.766 383.533 436.886 383.24 437.126 383C437.366 382.76 437.659 382.64 438.006 382.64C438.339 382.64 438.619 382.76 438.846 383C439.086 383.24 439.206 383.533 439.206 383.88C439.206 384.227 439.086 384.52 438.846 384.76C438.619 385 438.339 385.12 438.006 385.12Z" fill="white"/>
<defs>
<filter id="filter0_d_69_158" x="181" y="101" width="213" height="84.4264" filterUnits="userSpaceOnUse" color-interpolation-filters="sRGB">
<feFlood flood-opacity="0" result="BackgroundImageFix"/>
<feColorMatrix in="SourceAlpha" type="matrix" values="0 0 0 0 0 0 0 0 0 0 0 0 0 0 0 0 0 0 127 0" result="hardAlpha"/>
<feOffset dy="3"/>
<feGaussianBlur stdDeviation="3"/>
<feComposite in2="hardAlpha" operator="out"/>
<feColorMatrix type="matrix" values="0 0 0 0 0 0 0 0 0 0 0 0 0 0 0 0 0 0 0.1 0"/>
<feBlend mode="normal" in2="BackgroundImageFix" result="effect1_dropShadow_69_158"/>
<feBlend mode="normal" in="SourceGraphic" in2="effect1_dropShadow_69_158" result="shape"/>
</filter>
<filter id="filter1_d_69_158" x="181" y="261" width="267" height="84.4264" filterUnits="userSpaceOnUse" color-interpolation-filters="sRGB">
<feFlood flood-opacity="0" result="BackgroundImageFix"/>
<feColorMatrix in="SourceAlpha" type="matrix" values="0 0 0 0 0 0 0 0 0 0 0 0 0 0 0 0 0 0 127 0" result="hardAlpha"/>
<feOffset dy="3"/>
<feGaussianBlur stdDeviation="3"/>
<feComposite in2="hardAlpha" operator="out"/>
<feColorMatrix type="matrix" values="0 0 0 0 0 0 0 0 0 0 0 0 0 0 0 0 0 0 0.1 0"/>
<feBlend mode="normal" in2="BackgroundImageFix" result="effect1_dropShadow_69_158"/>
<feBlend mode="normal" in="SourceGraphic" in2="effect1_dropShadow_69_158" result="shape"/>
</filter>
</defs>
</svg>
