<svg width="120" height="104" viewBox="0 0 120 104" fill="none" xmlns="http://www.w3.org/2000/svg">
<path d="M82.8214 15.4022C84.2988 13.6479 84.0831 11.0129 82.2165 9.68016C73.8348 3.6954 63.8348 0.315443 53.4777 0.0210006C41.7324 -0.312906 30.2203 3.34092 20.8173 10.387C11.4143 17.4331 4.67493 27.4561 1.69735 38.8226C-1.28024 50.1891 -0.320459 62.229 4.42028 72.9802C9.16103 83.7315 17.4032 92.5602 27.8037 98.0276C38.2042 103.495 50.1499 105.279 61.6939 103.088C73.238 100.898 83.6999 94.8624 91.3747 85.9651C98.1425 78.1195 102.391 68.4566 103.625 58.2318C103.9 55.9548 102.1 54.0184 99.8084 53.926C97.5168 53.8337 95.6044 55.6218 95.2951 57.8943C94.1587 66.2422 90.6271 74.1161 85.0857 80.5401C78.6367 88.0163 69.8458 93.0878 60.1456 94.9284C50.4454 96.769 40.4077 95.2701 31.6684 90.6759C22.9291 86.0818 16.0034 78.6632 12.0199 69.6292C8.03631 60.5952 7.22983 50.4784 9.73183 40.9274C12.2338 31.3764 17.8968 22.9543 25.7979 17.0336C33.699 11.1129 43.3724 8.04266 53.2417 8.32323C61.7221 8.56432 69.9175 11.2672 76.8475 16.0582C78.734 17.3625 81.344 17.1565 82.8214 15.4022Z" fill="#2871DE"/>
<path d="M104.001 16.6926L52.8038 66.7667L29.5322 44.0058" stroke="#2871DE" stroke-width="31.0448" stroke-linecap="round" stroke-linejoin="round"/>
</svg>
