<svg xmlns="http://www.w3.org/2000/svg" width="481" height="481" viewBox="0 0 481 481" fill="none">
<path d="M4.57844 169.087L279.263 81.9669C283.045 80.7673 287.15 82.3278 289.175 85.7346L350.129 188.305C352.53 192.345 350.392 197.556 345.836 198.755L342.407 199.66L335.45 238.475C334.966 241.189 332.598 243.161 329.836 243.161C326.29 243.161 323.603 239.966 324.223 236.479L330.109 203.399L63.1465 292.764L65.5141 330.254C65.6973 333.136 63.4941 335.615 60.6052 335.783L60.0603 335.816C57.223 335.985 54.7709 333.853 54.5455 331.027L51.3888 291.345L21.2921 225.963L22.7342 237.36C23.0348 240.106 21.1182 242.604 18.3843 243.03C15.5705 243.471 12.9305 241.564 12.4702 238.761L3.23027 184.242C3.23027 184.242 1.92437 181.093 0.543315 177.911C-1.00215 174.359 0.876835 170.254 4.57375 169.087H4.57844Z" fill="#CBCFD4"/>
<path d="M219.604 168.116L235.152 208.108L265.911 196.585L250.809 156.152C250.809 156.152 219.27 167.451 219.604 168.116Z" fill="white"/>
<path d="M230.395 169.349L243.961 164.058" stroke="#AEB3BB" stroke-width="1.2" stroke-linecap="round" stroke-linejoin="round"/>
<path d="M227.995 175.375L250.129 166.813" stroke="#AEB3BB" stroke-width="1.2" stroke-linecap="round" stroke-linejoin="round"/>
<path d="M229.403 179.11L251.537 170.549" stroke="#AEB3BB" stroke-width="1.2" stroke-linecap="round" stroke-linejoin="round"/>
<path d="M230.826 182.84L252.96 174.279" stroke="#AEB3BB" stroke-width="1.2" stroke-linecap="round" stroke-linejoin="round"/>
<path d="M234.585 191.707L256.72 183.146" stroke="#AEB3BB" stroke-width="1.2" stroke-linecap="round" stroke-linejoin="round"/>
<path d="M236.107 195.399L258.242 186.837" stroke="#AEB3BB" stroke-width="1.2" stroke-linecap="round" stroke-linejoin="round"/>
<path d="M414.113 246.339L448.596 250.935C458.737 252.286 465.874 261.596 464.519 271.718L461.441 294.696C460.086 304.813 450.749 311.931 440.608 310.58L406.121 305.983C395.98 304.632 388.843 295.317 390.198 285.2L393.276 262.222C394.631 252.106 403.968 244.987 414.109 246.338L414.113 246.339Z" fill="#CBCFD4"/>
<path d="M451.349 254.222C456.192 263.566 461.298 274.171 458.691 284.893C453.772 298.408 441.982 308.31 430.698 316.558C423.624 321.689 415.061 331.591 405.717 327.842C401.513 326.08 398.633 321.234 399.751 316.825C406.774 306.093 418.927 290.704 422.835 285.709C420.74 285.671 418.405 285.91 416.066 286.154C408.066 295.971 401.861 302.527 390.831 313.53C382.714 321.628 367.001 317.589 370.575 303.75C371.661 298.736 374.686 294.505 378.082 290.76C387.519 279.818 396.637 268.454 403.777 255.769C418.955 253.88 434.297 253.304 451.349 254.218V254.222Z" fill="white"/>
<path d="M448.619 214.085C451.715 197.196 457.07 176.418 444.805 162.298C439.365 156.08 424.911 153.474 416.963 157.832C400.085 167.078 400.414 186.783 401.062 202.112C411.678 204.708 446.618 213.888 448.619 214.09V214.085Z" fill="#9F3502"/>
<path d="M433.328 207.595C436.626 208.307 441.126 210.046 444.861 212.042C448.595 214.038 452.593 217.998 455.176 221.349C461.617 229.69 463.688 236.045 463.839 245.576C460.01 247.23 456.665 250.525 455.252 254.546C454.199 253.402 452.936 252.324 451.559 251.415C451.522 252.273 451.663 253.201 451.982 254.058C450.441 258.276 448.172 261.973 445.41 265.258C441.77 269.176 437.091 271.345 432.281 272.287C429.383 272.854 426.381 273.009 423.483 272.456C421.289 272.034 419.194 271.219 417.141 270.338C414.665 269.274 412.204 268.093 410.132 266.369C406.694 263.107 404.091 258.876 402.687 254.274C396.867 251.101 393.113 244.855 393.123 238.477C392.009 239.245 391.389 240.431 390.774 241.612C389.041 239.063 385.926 237.155 382.582 236.696C383.469 226.56 385.217 216.128 388.219 206.592C391.436 202.473 396.486 201.648 401.052 201.644C403.993 201.644 407.074 202.206 409.893 204.165C417.625 205.439 425.493 205.903 433.324 207.59L433.328 207.595Z" fill="#FACBB3"/>
<path d="M437.997 177.012C436.799 172.691 432.435 169.463 427.945 169.575C426.568 169.608 425.215 169.922 423.872 170.231C421.871 168.394 419.503 167.265 417.089 167.326C413.852 167.41 410.968 169.589 409.188 172.288C407.407 174.983 406.543 178.165 405.523 181.351C404.241 180.396 402.273 180.897 401.225 182.111C400.178 183.324 399.901 185.021 399.952 186.614C400.07 190.204 401.925 193.896 405.026 195.616C405.523 199.023 407.092 202.271 409.225 204.97C406.529 204.665 403.79 204.74 401.286 205.387C407.407 211.844 414.857 217.041 423.271 220.678C430.359 220.5 437.424 219.441 444.404 217.833C444.32 220.467 444.381 223.1 444.578 225.725C444.639 226.545 444.724 227.384 445.081 228.119C445.771 229.539 447.317 230.303 448.754 230.959C451.239 232.098 453.724 233.237 456.162 234.619C458.262 235.35 460.428 235.889 462.837 236.236C463.551 239.179 464.007 242.183 463.744 245.941C461.945 247.075 460 248.017 458.408 249.423C456.815 250.829 455.57 252.848 455.758 255.454C458.727 259.798 462.372 263.683 466.515 266.93C468.376 268.388 470.551 269.775 472.909 269.583C475.878 269.339 478.085 266.626 479.058 263.814C480.256 260.346 480.115 256.564 479.706 252.919C479.49 250.993 479.199 249.067 478.64 247.215C477.287 242.754 474.388 238.813 473.313 233.841C469.808 226.264 470.621 216.98 465.98 210.035C464.909 208.433 463.556 206.98 462.861 205.181C462.142 203.325 462.203 201.188 463.025 199.379C463.584 198.142 464.496 197.003 464.477 195.569C464.261 194.759 463.584 194.088 462.772 193.878C462.189 193.728 461.569 193.803 460.987 193.967C458.45 194.688 456.627 197.083 456.045 199.651C455.462 202.219 455.951 204.923 456.792 207.585L453.292 207.524C452.385 207.51 451.46 207.496 450.586 207.735C449.708 207.974 448.923 208.456 448.167 208.962C446.053 210.368 444.047 212.008 442.432 214.131C439.176 212.622 435.893 211.099 432.304 210.251C432.91 208.452 433.52 206.652 434.314 204.885C435.907 203.737 437.208 202.2 438.171 200.18C440.144 200.045 442.126 199.567 443.813 198.536C445.499 197.505 446.875 195.883 447.35 193.967C447.824 192.05 447.308 189.857 445.842 188.531C445.09 187.851 444.08 187.411 443.07 187.486C441.858 187.575 440.83 188.353 439.684 188.699C439.669 184.744 439.054 180.78 438.011 177.012H437.997Z" fill="#FDE4D6"/>
<path d="M377.639 262.634C376.878 262.746 370.997 259.752 369.649 255.68C369.128 254.096 369.24 252.381 369.376 250.722C370.119 241.846 371.368 233.013 373.13 224.282C373.228 221.166 373.13 218.242 373.031 215.318C372.651 213.176 373.055 211.958 373.853 211.081C374.497 210.378 375.38 209.886 375.873 209.071C376.169 208.584 376.296 208.007 376.348 207.44C376.582 204.844 375.14 202.173 372.839 200.941C371.946 200.463 370.767 199.919 370.828 198.911C370.861 198.363 371.288 197.923 371.739 197.613C373.393 196.484 375.68 196.512 377.47 197.412C379.26 198.312 380.585 199.98 381.379 201.817C382.172 203.654 382.482 205.664 383.013 207.843C384.803 207.768 386.48 206.99 388.227 206.597C390.525 206.081 392.972 206.259 395.17 207.098C396.307 207.529 397.43 208.181 398.04 209.23C398.651 210.28 398.59 211.789 398.059 212.895C399.36 215.978 400.229 219.245 400.633 222.567C400.742 223.448 400.812 224.367 400.511 225.201C399.999 226.63 398.557 227.478 397.218 228.2C395.753 228.997 394.282 229.793 392.756 231.03C391.102 234.259 387.87 236.635 384.718 237.324C387.297 237.718 389.641 239.395 390.792 242.272C389.491 246.143 388.636 250.178 386.875 253.861C385.113 257.545 381.942 262.001 377.635 262.629L377.639 262.634Z" fill="#FDE4D6"/>
<path d="M372.271 314.308C370.476 317.044 368.701 321.923 368.898 325.189C369.095 328.455 371.125 330.709 374.22 331.773C377.508 332.907 382.173 331.309 384.719 328.943C387.265 326.576 394.199 315.967 396.101 313.389C397.98 310.845 399.54 307.949 399.873 304.804C397.651 307.119 395.425 309.434 393.015 311.552C389.755 314.411 385.922 316.974 381.591 317.288C378.18 317.536 375.033 317.063 372.271 314.312V314.308Z" fill="#52575E"/>
<path d="M400.497 341.291C397.486 342.041 394.061 340.569 392.539 337.87C391.45 335.939 391.318 333.573 391.788 331.403C392.258 329.234 393.286 327.228 394.404 325.311C395.856 322.818 397.486 320.428 399.294 318.469C399.341 321.656 400.713 324.81 403.024 327.012C403.771 327.725 404.626 328.348 405.589 328.723C406.439 329.051 407.351 329.173 408.257 329.238C411.231 329.449 414.355 328.98 416.75 327.547C415.519 329.824 413.8 331.797 412.02 333.671C408.854 337.003 405.185 340.124 400.497 341.291Z" fill="#52575E"/>
<path d="M445.631 310.807L447.158 319.842C447.416 321.37 448.877 322.391 450.404 322.119L452.541 321.735C454.054 321.463 455.059 320.02 454.792 318.511L452.903 307.93L445.631 310.812V310.807Z" fill="#9CA1A9"/>
<path d="M453.437 313.751L460.859 311.394C462.377 310.911 464.007 311.731 464.514 313.24L465.134 315.072C465.646 316.577 464.852 318.217 463.349 318.751L454.865 321.788L453.433 313.751H453.437Z" fill="#70757D"/>
<path d="M444.832 217.463C443.959 216.858 443.259 216.005 442.836 215.031C442.686 214.679 442.568 214.295 442.639 213.92C442.719 213.522 442.996 213.203 443.268 212.903C444.499 211.577 445.871 210.382 447.355 209.342C448.346 208.648 449.403 208.02 451.362 207.467C453.138 207.397 454.923 207.603 456.835 207.626C456.017 205.129 455.486 202.453 456.012 199.88C456.539 197.308 458.324 194.866 460.86 194.168C462.321 193.765 464.313 194.327 464.491 195.827C464.623 196.923 463.721 197.832 463.148 198.784C462.053 200.597 462.124 202.936 462.852 204.927C463.58 206.919 464.886 208.639 466.197 210.307C466.934 211.244 467.7 212.214 467.986 213.372C467.986 213.372 470.603 225.589 473.163 234.333" stroke="#52575E" stroke-width="1.2" stroke-linecap="round" stroke-linejoin="round"/>
<path d="M406.855 305.99L405.229 305.765C403.576 305.535 402.011 305.085 400.555 304.453" stroke="#52575E" stroke-width="1.2" stroke-linecap="round" stroke-linejoin="round"/>
<path d="M463.533 264.452C464.209 266.781 464.421 269.288 464.064 271.851L460.761 295.531C459.404 305.25 450.408 312.035 440.661 310.686L438.387 310.372" stroke="#52575E" stroke-width="1.2" stroke-linecap="round" stroke-linejoin="round"/>
<path d="M391.747 273.472L393.344 262.033C393.852 258.387 395.435 255.154 397.732 252.609" stroke="#52575E" stroke-width="1.2" stroke-linecap="round" stroke-linejoin="round"/>
<path d="M396.058 266.944L396.678 262.493" stroke="#52575E" stroke-width="1.2" stroke-linecap="round" stroke-linejoin="round"/>
<path d="M409.276 301.126C407.449 300.873 405.725 300.353 404.142 299.607" stroke="#52575E" stroke-width="1.2" stroke-linecap="round" stroke-linejoin="round"/>
<path d="M460.495 271.35L457.902 289.93C456.887 297.222 451.569 302.859 444.861 304.654" stroke="#52575E" stroke-width="1.2" stroke-linecap="round" stroke-linejoin="round"/>
<path d="M452.819 308.365L454.834 319.195C455.036 320.282 454.317 321.327 453.227 321.529L449.789 322.166C448.699 322.367 447.651 321.65 447.449 320.563L445.631 310.807" stroke="#52575E" stroke-width="1.2" stroke-linecap="round" stroke-linejoin="round"/>
<path d="M453.95 313.797L460.827 311.473C462.331 310.966 463.965 311.768 464.473 313.267L465.041 314.936C465.548 316.435 464.745 318.066 463.242 318.572L455.134 321.314L451.16 322.654C449.657 323.16 448.022 322.359 447.515 320.859L446.946 319.191" stroke="#52575E" stroke-width="1.2" stroke-linecap="round" stroke-linejoin="round"/>
<path d="M437.782 200.275C436.359 203.494 433.583 206.025 430.365 207.464C427.147 208.902 423.511 209.277 420.012 208.879C414.91 208.293 409.795 205.861 407.089 201.512C403.852 196.306 404.623 189.661 405.506 183.602C406.07 179.061 407.131 175.495 409.292 172.631C414.952 165.124 420.308 167.556 421.82 168.831C422.271 169.21 422.68 169.656 423.196 169.937C424.479 170.635 426.048 170.19 427.504 170.035C431.14 169.646 436.218 170.124 438.787 179.44C439.713 182.796 439.628 186.348 439.99 190.523C440.239 188.864 441.817 187.515 443.499 187.519C444.838 187.524 446.097 188.316 446.862 189.408C448.502 191.746 447.844 195.186 445.857 197.234C443.87 199.281 440.868 200.092 438.008 200.027" stroke="#52575E" stroke-width="1.2" stroke-linecap="round" stroke-linejoin="round"/>
<path d="M444.461 192.818C442.77 192.617 441.125 193.648 440.125 195.026C439.124 196.403 438.65 198.072 438.19 199.707" stroke="#52575E" stroke-width="1.2" stroke-linecap="round" stroke-linejoin="round"/>
<path d="M405.801 181.563C404.228 180.4 402.912 179.965 401.301 182.542C398.666 186.76 401.442 193.564 404.73 194.998" stroke="#52575E" stroke-width="1.2" stroke-linecap="round" stroke-linejoin="round"/>
<path d="M432.849 156.665C424.469 154.027 414.604 157.059 409.165 163.943C404.88 169.365 403.401 172.856 402.353 180.64" stroke="#52575E" stroke-width="1.2" stroke-linecap="round" stroke-linejoin="round"/>
<path d="M400.804 189.951C400.485 193.114 400.363 197.674 400.381 200.851" stroke="#52575E" stroke-width="1.2" stroke-linecap="round" stroke-linejoin="round"/>
<path d="M433.643 157.101C440.271 157.471 445.946 162.495 448.825 168.46C451.705 174.426 452.334 181.328 452.184 188.217C452.043 194.623 451.118 200.823 449.981 207.13" stroke="#52575E" stroke-width="1.2" stroke-linecap="round" stroke-linejoin="round"/>
<path d="M414.347 208.133L414.878 211.657" stroke="#52575E" stroke-width="1.2" stroke-linecap="round" stroke-linejoin="round"/>
<path d="M434.019 205.72C433.38 207.857 432.774 209.98 432.253 212.145C432.121 212.698 431.985 213.255 431.919 213.822C431.924 213.752 431.928 213.682 431.924 213.616" stroke="#52575E" stroke-width="1.2" stroke-linecap="round" stroke-linejoin="round"/>
<path d="M406.459 202.196C403.5 201.456 400.399 201.161 397.388 201.629C394.377 202.098 391.446 203.354 389.219 205.435" stroke="#52575E" stroke-width="1.2" stroke-linecap="round" stroke-linejoin="round"/>
<path d="M434.137 207.603C437.106 208.273 439.99 209.295 442.72 210.64" stroke="#52575E" stroke-width="1.2" stroke-linecap="round" stroke-linejoin="round"/>
<path d="M444.034 217.933C438.468 218.823 432.878 219.554 427.269 220.126C425.686 220.29 424.07 220.435 422.51 220.121C420.608 219.737 418.917 218.687 417.268 217.661C411.382 213.982 405.416 210.243 400.503 204.821C403.457 204.568 406.435 204.629 409.376 205.004" stroke="#52575E" stroke-width="1.2" stroke-linecap="round" stroke-linejoin="round"/>
<path d="M433.033 210.476C436.012 211.142 438.9 212.201 441.602 213.616" stroke="#52575E" stroke-width="1.2" stroke-linecap="round" stroke-linejoin="round"/>
<path d="M451.127 212.261C449.014 213.236 447.13 214.698 445.664 216.502C445.256 217.004 444.875 217.543 444.715 218.166C444.589 218.663 444.607 219.183 444.631 219.698C444.72 221.756 444.809 223.818 444.899 225.875C444.936 226.774 444.993 227.73 445.514 228.466C445.899 229.01 446.491 229.366 447.069 229.694C449.69 231.198 452.401 232.548 455.181 233.738" stroke="#52575E" stroke-width="1.2" stroke-linecap="round" stroke-linejoin="round"/>
<path d="M450.287 228.002C451.569 228.771 452.711 229.774 453.636 230.95C454.618 232.197 455.388 233.668 456.694 234.577C458.775 236.03 461.622 235.678 463.985 236.611" stroke="#52575E" stroke-width="1.2" stroke-linecap="round" stroke-linejoin="round"/>
<path d="M463.097 237.249C465 244.231 462.999 251.701 464.018 258.866" stroke="#52575E" stroke-width="1.2" stroke-linecap="round" stroke-linejoin="round"/>
<path d="M473.281 234.99C475.385 239.385 477.504 243.818 478.753 248.528C479.998 253.242 480.336 258.308 478.866 262.957C477.856 266.153 475.376 269.438 472.022 269.348C470.223 269.297 468.607 268.271 467.165 267.198C462.105 263.435 457.835 258.622 453.791 252.675C452.588 251.255 450.54 250.609 448.741 251.082C446.716 251.611 445.265 253.317 443.743 254.756C439.501 258.772 433.258 261.199 427.696 259.395" stroke="#52575E" stroke-width="1.2" stroke-linecap="round" stroke-linejoin="round"/>
<path d="M451.08 251.537C452.682 257.957 456.637 263.594 458.295 270C460.982 280.389 457.079 291.8 449.492 299.748C439.317 310.212 427.959 319.528 415.703 327.471" stroke="#52575E" stroke-width="1.2" stroke-linecap="round" stroke-linejoin="round"/>
<path d="M392.677 235.851C393.086 241.273 394.1 247.136 398.107 250.824C401.156 253.631 405.618 254.835 408.005 258.219" stroke="#52575E" stroke-width="1.2" stroke-linecap="round" stroke-linejoin="round"/>
<path d="M403.01 255.205C406.205 265.491 416.563 273.111 427.357 273.121C438.152 273.13 448.519 265.524 451.733 255.243" stroke="#52575E" stroke-width="1.2" stroke-linecap="round" stroke-linejoin="round"/>
<path d="M402.834 257.503C395.849 268.492 388.117 279.003 379.708 288.947C376.105 293.206 372.267 297.555 370.75 302.921C369.233 308.287 369.919 313.872 374.95 316.3C379.553 318.521 386.073 317.645 390.578 313.751C400.476 305.198 407.794 294.608 416.287 285.98L422.878 285.16" stroke="#52575E" stroke-width="1.2" stroke-linecap="round" stroke-linejoin="round"/>
<path d="M423.394 284.977C415.709 293.979 408.521 303.403 401.874 313.192C400.907 314.617 399.934 316.088 399.507 317.757C398.506 321.669 400.949 325.943 404.561 327.766C408.174 329.589 412.016 329.139 415.704 327.48" stroke="#52575E" stroke-width="1.2" stroke-linecap="round" stroke-linejoin="round"/>
<path d="M399.507 317.757C397.412 321.36 393.269 326.29 392.001 330.259C390.732 334.229 391.108 338.259 394.739 340.316C400.719 343.699 406.957 338.582 410.006 335.213C412.561 332.387 415.117 329.561 417.672 326.735" stroke="#52575E" stroke-width="1.2" stroke-linecap="round" stroke-linejoin="round"/>
<path d="M371.834 315.259C370.006 318.75 368.123 322.691 369.227 326.468C369.992 329.088 372.247 331.216 374.906 331.834C377.912 332.532 381.106 331.356 383.526 329.449C385.945 327.542 387.735 324.964 389.487 322.429C393.029 317.302 396.571 312.171 399.873 306.904L399.647 305.667" stroke="#52575E" stroke-width="1.2" stroke-linecap="round" stroke-linejoin="round"/>
<path d="M455.35 210.181C456.182 211.085 456.102 212.604 455.336 213.564C454.782 214.258 453.917 214.736 453.631 215.57C453.166 216.938 454.505 218.396 454.148 219.797C453.969 220.486 453.415 221.001 453.044 221.606C452.419 222.618 452.325 223.935 452.795 225.027" stroke="#52575E" stroke-width="1.2" stroke-linecap="round" stroke-linejoin="round"/>
<path d="M381.83 208.512C383.615 207.982 385.404 207.476 387.199 206.984C388.359 206.665 389.538 206.356 390.745 206.342C392.455 206.323 394.118 206.904 395.678 207.612C396.556 208.01 397.453 208.488 397.966 209.299C398.478 210.11 398.431 211.352 397.618 211.876" stroke="#52575E" stroke-width="1.2" stroke-linecap="round" stroke-linejoin="round"/>
<path d="M391.261 210.299C392.929 210.739 394.573 211.25 396.198 211.827C396.823 212.047 397.467 212.3 397.904 212.797C398.279 213.223 398.453 213.781 398.613 214.324C399.477 217.234 400.215 220.182 400.825 223.153C400.948 223.758 401.065 224.4 400.844 224.976C400.605 225.599 400.017 226.016 399.463 226.391C397.734 227.563 396.001 228.734 394.272 229.906" stroke="#52575E" stroke-width="1.2" stroke-linecap="round" stroke-linejoin="round"/>
<path d="M384.564 210.594C385.006 211.602 385.997 212.347 387.087 212.497C387.392 212.539 387.73 212.548 387.974 212.741C388.148 212.881 388.247 213.097 388.331 213.303C389.031 215.004 389.67 216.93 391.272 217.834C391.535 217.984 391.826 218.111 391.991 218.359C392.141 218.584 392.15 218.87 392.183 219.142C392.315 220.29 392.874 221.387 393.719 222.174" stroke="#52575E" stroke-width="1.2" stroke-linecap="round" stroke-linejoin="round"/>
<path d="M397.191 225.13L394.692 226.283C394.485 226.377 394.273 226.48 394.118 226.649C393.907 226.888 393.846 227.22 393.785 227.53C393.404 229.484 392.639 231.368 391.549 233.036C391.187 233.589 390.783 234.128 390.276 234.559C389.214 235.463 387.805 235.815 386.457 236.162C385.522 236.401 384.503 236.715 384 237.535" stroke="#52575E" stroke-width="1.2" stroke-linecap="round" stroke-linejoin="round"/>
<path d="M382.384 208.134C383.122 206.119 381.534 202.08 380.275 199.812C379.016 197.543 376.132 196.035 373.586 196.555C372.726 196.728 371.886 197.187 371.453 197.946C371.021 198.706 371.101 199.783 371.782 200.336C372.163 200.646 372.661 200.758 373.116 200.936C374.497 201.475 375.554 202.703 376.057 204.095C376.56 205.487 376.545 207.033 376.193 208.472C375.878 209.765 373.14 211.625 373.14 212.984C373.14 217.736 373.844 221.377 373.206 224.587C372.881 226.213 372.585 228.378 372.158 229.981" stroke="#52575E" stroke-width="1.2" stroke-linecap="round" stroke-linejoin="round"/>
<path d="M383.849 237.875C384.366 241.39 384.883 244.909 385.376 248.424C385.559 249.717 385.733 251.053 385.399 252.314" stroke="#52575E" stroke-width="1.2" stroke-linecap="round" stroke-linejoin="round"/>
<path d="M372.055 230.762L369.645 248.096C369.307 250.519 368.983 253.059 369.852 255.346C370.707 257.595 372.595 259.268 374.441 260.81C375.164 261.414 375.935 262.033 376.856 262.239C378.143 262.525 379.463 261.944 380.571 261.232C382.121 260.238 383.484 258.954 384.574 257.473C386.227 255.215 387.209 252.548 388.172 249.919C389.67 245.828 391.169 241.737 392.663 237.646" stroke="#52575E" stroke-width="1.2" stroke-linecap="round" stroke-linejoin="round"/>
<path d="M384.507 237.393C387.152 237.328 389.764 238.977 390.83 241.395" stroke="#52575E" stroke-width="1.2" stroke-linecap="round" stroke-linejoin="round"/>
<path d="M463.523 246.146C460.808 246.952 458.361 248.616 456.609 250.837C455.707 251.98 454.96 253.433 455.298 254.848" stroke="#52575E" stroke-width="1.2" stroke-linecap="round" stroke-linejoin="round"/>
<path d="M431.378 159.304C428.63 160.625 426.455 163.095 425.497 165.982" stroke="#52575E" stroke-width="1.2" stroke-linecap="round" stroke-linejoin="round"/>
<path d="M411.12 175.931C412.572 174.59 414.925 174.351 416.616 175.368" stroke="#52575E" stroke-width="1.2" stroke-linecap="round" stroke-linejoin="round"/>
<path d="M428.827 177.855C430.913 176.946 433.59 177.724 434.864 179.608" stroke="#52575E" stroke-width="1.2" stroke-linecap="round" stroke-linejoin="round"/>
<path d="M420.434 179.069C420.824 181.042 421.087 183.085 420.669 185.049C420.251 187.012 419.048 188.906 417.198 189.702C416.944 189.81 416.671 189.908 416.493 190.119C416.314 190.335 416.272 190.635 416.277 190.916C416.296 191.9 416.826 192.861 417.653 193.404" stroke="#52575E" stroke-width="1.2" stroke-linecap="round" stroke-linejoin="round"/>
<path d="M414.445 196.062C415.441 197.965 417.357 199.357 419.476 199.718C421.594 200.079 423.868 199.399 425.437 197.937" stroke="#52575E" stroke-width="1.2" stroke-linecap="round" stroke-linejoin="round"/>
<path d="M413.051 187.242C414.117 187.242 414.982 186.379 414.982 185.316C414.982 184.252 414.117 183.39 413.051 183.39C411.985 183.39 411.12 184.252 411.12 185.316C411.12 186.379 411.985 187.242 413.051 187.242Z" fill="#52575E"/>
<path d="M430.37 190.143C431.436 190.143 432.3 189.281 432.3 188.217C432.3 187.153 431.436 186.291 430.37 186.291C429.303 186.291 428.439 187.153 428.439 188.217C428.439 189.281 429.303 190.143 430.37 190.143Z" fill="#52575E"/>
<path d="M402.725 184.711C403.138 184.43 403.697 184.383 404.153 184.585C404.608 184.786 404.947 185.237 405.012 185.734" stroke="#52575E" stroke-width="1.2" stroke-linecap="round" stroke-linejoin="round"/>
<path d="M274.528 166.017C271.625 156.705 283.725 153.781 289.668 159.672C293.308 163.285 298.128 168.027 298.128 173.233C298.128 180.145 287.281 183.215 281.945 178.365C278.802 175.506 276.689 172.933 274.532 166.021L274.528 166.017Z" fill="white"/>
<path d="M278.239 167.039C282.241 164.481 286.91 162.972 291.655 162.7" stroke="#CBCFD4" stroke-width="1.2" stroke-linecap="round" stroke-linejoin="round"/>
<path d="M284.994 163.562C283.787 161.172 281.894 159.129 279.602 157.737" stroke="#CBCFD4" stroke-width="1.2" stroke-linecap="round" stroke-linejoin="round"/>
<path d="M383.445 84.1191C364.987 93.7322 372.137 115.85 377.235 131.969C382.139 141.216 393.984 145.308 404.085 143.762C420.529 141.32 425.2 127.971 428.388 113.643C429.98 107.371 432.702 100.2 429.409 94.2618C421.798 80.5288 400.65 76.8917 383.45 84.1238L383.445 84.1191Z" fill="#CBCFD4"/>
<path d="M426.351 102.764C425.999 106.668 423.595 110.174 420.545 112.691C417.494 115.208 413.831 116.867 410.187 118.428C405.668 120.199 400.912 120.542 396.379 119.82C391.847 119.098 387.518 117.359 383.546 115.086C377.36 111.889 373.611 104.793 375.108 98.3297C376.391 92.7662 381.066 88.4822 386.82 85.8059C401.535 85.0701 416.458 91.2288 426.351 102.759V102.764Z" fill="#F2F4F7"/>
<path d="M397.761 75.5274C397.186 73.8213 396.554 72.1293 395.875 70.4607C395.542 69.6451 395.181 68.8155 394.563 68.1875C393.946 67.5594 393.005 67.1563 392.15 67.4047C391.005 65.7502 389.959 64.1847 388.553 62.9661C387.147 61.7475 385.341 60.9085 383.474 60.9273C381.664 59.0993 378.989 58.5603 377.003 59.5774C372.764 58.804 368.621 59.1977 365.034 60.8241C363.043 64.7284 363.675 69.1717 366.046 72.4761C365.262 73.0807 365.053 74.2103 365.324 75.1571C365.595 76.1039 366.246 76.8913 366.939 77.5943C368.464 79.1317 370.275 80.4019 372.365 81.5174C372.318 82.1361 372.636 82.7407 373.092 83.1719C373.548 83.6031 374.119 83.8843 374.698 84.1234C377.454 85.2764 380.528 85.6841 383.564 85.581C384.092 86.6122 385.137 87.3715 386.296 87.5543C386.904 87.648 387.527 87.5964 387.741 87.9574C386.871 87.8402 385.973 87.7183 385.132 87.9574C384.291 88.1964 383.512 88.8807 382.994 89.804C382.072 89.8931 381.16 90.0665 379.711 90.3009C377.668 89.3541 375.382 88.3839 373.23 89.0447C372.399 89.2978 371.591 89.8697 371.139 91.032C369.857 91.0695 368.583 91.3039 367.376 91.7304C366.298 92.1101 365.177 92.7428 364.673 94.1349C362.72 94.6551 361.138 96.1362 360.116 97.861C359.095 99.5859 358.582 101.55 358.164 103.504C358.04 104.076 357.931 104.681 358.054 105.243C359.656 106.087 361.513 106.382 363.328 106.368C365.143 106.354 366.944 106.035 368.868 105.998C369.13 106.715 370.023 107.015 370.788 106.926C371.553 106.837 372.256 106.476 373.03 106.462C373.491 106.93 374.014 107.427 374.674 107.46C374.883 107.469 375.093 107.432 375.302 107.39C376.95 107.071 378.628 106.71 380.034 106.021C380.229 106.499 380.481 107.034 380.979 107.179C381.155 107.23 381.341 107.226 381.526 107.212C383.179 107.08 384.685 106.265 386.087 105.871C385.935 106.691 385.26 107.315 384.576 107.807C383.892 108.299 383.137 108.74 382.666 109.438C382.424 109.799 382.267 110.258 382.41 110.666C382.6 111.219 383.227 111.472 383.854 112.091C382.98 112.977 382.082 113.905 381.706 115.086C381.331 116.267 381.678 117.762 382.794 118.653C382.519 119.656 382.243 120.663 382.167 121.699C382.115 122.36 382.153 123.049 382.452 123.644C382.752 124.24 383.36 124.713 384.082 124.868C384.69 127.389 386.201 129.686 388.287 131.256C388.624 131.509 388.995 131.753 389.76 131.781C391.428 131.28 392.915 130.291 394.155 129.086C395.395 127.881 396.402 126.461 397.747 124.854C398.307 124.741 398.916 124.605 399.286 124.174C399.471 123.958 399.576 123.687 399.666 123.419C400.027 122.341 400.165 121.193 400.141 120.068C400.598 119.806 401.077 119.501 401.282 119.023C401.667 118.118 400.911 117.139 401.087 115.676C402.009 116.187 402.978 116.619 404.09 116.933C405.748 118.592 408.029 119.637 410.813 119.726C411.977 118.456 412.989 117.045 413.868 115.676C413.621 116.661 414.343 117.776 415.825 118.503C415.749 119.304 415.678 120.153 416.049 120.87C416.419 121.587 417.417 122.046 418.277 121.891C419.128 124.099 421.484 125.646 424.188 125.796C425.741 126.602 427.495 127.028 429.443 127.132C430.545 124.015 430.065 120.396 428.217 117.406C428.602 116.89 428.649 116.155 428.331 115.597C428.165 115.306 427.918 115.072 427.666 114.856C427.172 114.439 426.635 114.073 425.955 113.666C426.179 112.738 425.665 111.753 424.924 111.139C424.183 110.525 423.242 110.202 422.254 109.893C422.392 109.236 421.955 108.571 421.38 108.219C420.805 107.868 420.111 107.76 419.441 107.666C418.348 107.507 417.256 107.348 416.215 106.959C416.876 105.674 416.899 104.095 416.652 102.914C417.512 104.32 418.857 105.435 420.415 106.021C421.974 106.607 423.727 106.673 425.3 106.204C426.022 107.015 427.105 107.498 428.198 107.493C429.291 107.488 430.374 107.001 430.916 106.232C432.446 106.945 434.218 106.86 435.904 106.729C437.444 106.612 439.164 106.373 440 104.77C439.763 102.215 438.779 99.7359 437.149 97.4626C436.351 94.7254 433.667 92.6303 430.602 92.3913C430.464 91.5289 430.288 90.5961 429.638 90.0009C429.31 89.7009 428.896 89.5181 428.478 89.3588C426.402 88.562 424.136 88.2433 421.698 88.112C420.387 86.2419 417.859 85.2857 415.65 85.7029C417.916 84.0765 420.753 83.4672 423.318 82.3564C423.979 82.0704 424.639 81.7424 425.119 81.2174C426.05 80.2097 426.103 78.5271 425.433 77.1256C426.991 76.132 428.644 74.9837 429.186 73.2354C429.609 71.8621 429.253 70.381 428.82 68.7124C429.813 65.3518 429.823 61.7147 428.435 57.8526C426.35 57.0933 424.117 56.7699 421.898 56.6667C420.211 56.5871 418.481 56.6386 416.557 57.1401C416.115 56.498 415.26 56.2402 414.476 56.3012C413.692 56.3621 412.96 56.6902 412.243 57.0136C409.725 58.1478 407.159 59.3149 405.116 61.1616C402.65 63.3926 401.12 66.4908 400.165 69.7764C398.26 71.2106 397.286 73.7557 397.742 75.5414L397.761 75.5274Z" fill="#AEB3BB"/>
<path d="M373.473 67.3522C382.158 71.1862 389.979 76.9184 396.213 84.0099" stroke="#9CA1A9" stroke-width="1.2" stroke-linecap="round" stroke-linejoin="round"/>
<path d="M420.197 65.8952C412.376 69.748 405.687 75.7989 401.111 83.1482" stroke="#9CA1A9" stroke-width="1.2" stroke-linecap="round" stroke-linejoin="round"/>
<path d="M399.433 87.7747C404.679 94.1116 406.532 102.459 408.228 110.465" stroke="#9CA1A9" stroke-width="1.2" stroke-linecap="round" stroke-linejoin="round"/>
<path d="M393.275 90.0466C387.55 93.051 381.663 96.1819 377.572 101.145" stroke="#9CA1A9" stroke-width="1.2" stroke-linecap="round" stroke-linejoin="round"/>
<path d="M375.093 94.8763C371.415 96.2917 367.9 98.115 364.635 100.309" stroke="#9CA1A9" stroke-width="1.2" stroke-linecap="round" stroke-linejoin="round"/>
<path d="M393.29 103.265C391.756 109.035 390.653 114.922 389.998 120.851" stroke="#9CA1A9" stroke-width="1.2" stroke-linecap="round" stroke-linejoin="round"/>
<path d="M416.947 112.137L423.267 119.167" stroke="#9CA1A9" stroke-width="1.2" stroke-linecap="round" stroke-linejoin="round"/>
<path d="M107.049 160.413L90.8851 122.877C89.5276 119.723 91.2139 116.096 94.5069 115.098L189.748 86.1136C193.276 85.0405 196.888 87.496 197.184 91.1606L200.472 131.879C200.689 134.559 199.021 137.029 196.451 137.835L169.676 146.232L176.055 156.809C177.22 158.74 176.243 161.247 174.077 161.889L147.269 169.823C145.103 170.465 142.91 168.89 142.834 166.631L142.445 154.747L114.077 163.632C111.253 164.518 108.214 163.126 107.044 160.413H107.049Z" fill="#AEB3BB"/>
<path d="M110.632 159.625L96.2058 126.447C94.9939 123.663 96.5628 120.425 99.5692 119.511L186.613 93.0253C189.836 92.0459 193.11 94.1921 193.354 97.4443L196.022 133.551C196.196 135.927 194.655 138.134 192.307 138.87L117.02 162.427C114.437 163.233 111.679 162.024 110.636 159.625H110.632Z" fill="#F2F4F7"/>
<path d="M107.082 160.357L91.2185 122.886C89.8797 119.723 91.5755 116.096 94.8684 115.088L189.485 86.1326C193.027 85.0501 196.663 87.5009 196.977 91.1843L200.444 131.827C200.674 134.531 198.993 137.034 196.395 137.849L114.17 163.632C111.314 164.527 108.242 163.112 107.077 160.357H107.082Z" stroke="#AEB3BB" stroke-width="1.2" stroke-linecap="round" stroke-linejoin="round"/>
<path d="M110.615 159.903L96.3579 126.579C95.1553 123.768 96.7431 120.515 99.7729 119.588L186.906 92.9514C190.166 91.9532 193.488 94.1136 193.746 97.3986L196.593 133.655C196.78 136.069 195.216 138.318 192.825 139.063L117.102 162.766C114.471 163.591 111.662 162.349 110.615 159.903Z" stroke="#AEB3BB" stroke-width="1.2" stroke-linecap="round" stroke-linejoin="round"/>
<path d="M143.13 166.932L142.28 154.823L169.676 146.233L176.05 157.034C177.126 158.862 176.205 161.21 174.167 161.819L147.335 169.832C145.324 170.432 143.276 169.022 143.13 166.932Z" stroke="#AEB3BB" stroke-width="1.2" stroke-linecap="round" stroke-linejoin="round"/>
<path d="M36.8634 198.444L51.2893 243.853L85.1017 235.127L70.0792 189.334C70.0792 189.334 37.6901 198.205 36.8634 198.444Z" fill="white"/>
<path d="M76.5952 173.188L52.0181 181.211C50.0639 181.848 49.0634 184.013 49.8478 185.911L64.4946 221.386C65.1992 223.096 67.1064 223.972 68.8679 223.396L93.4169 215.383C95.4086 214.731 96.4045 212.505 95.5495 210.593C91.6741 201.901 82.0208 180.564 79.1976 174.337C78.7514 173.348 77.6287 172.856 76.5952 173.193V173.188Z" fill="#F2F4F7"/>
<path d="M49.3455 175.588L68.5629 210.749C69.2112 211.934 70.658 212.426 71.8981 211.883L97.2222 200.795C98.6455 200.172 99.2092 198.447 98.4247 197.107L78.2444 162.598C77.5821 161.464 76.1775 161 74.9656 161.52L50.6045 171.957C49.1952 172.561 48.6127 174.243 49.3455 175.588Z" fill="#AEB3BB"/>
<path d="M61.9384 179.867L59.5943 175.696L75.7255 168.311L78.3091 172.444C78.3091 172.444 61.7129 180.008 61.9384 179.872V179.867Z" fill="#F2F4F7"/>
<path d="M97.5939 196.559L71.1378 208.176L70.9264 212.529L96.6967 200.973C97.9275 200.42 98.5146 199.01 98.0402 197.749C97.8006 197.112 97.6033 196.582 97.5986 196.554L97.5939 196.559Z" fill="white"/>
<path d="M95.7512 210.871L67.3785 220.131L66.9322 223.214L95.2016 213.846C95.2016 213.846 95.8358 211.367 95.7512 210.875V210.871Z" fill="white"/>
<path d="M189.414 177.861L111.008 198.381C108.714 198.981 107.343 201.322 107.945 203.61L112.744 221.859C113.345 224.147 115.693 225.516 117.986 224.915L196.392 204.395C198.686 203.795 200.058 201.454 199.456 199.166L194.657 180.917C194.055 178.629 191.708 177.26 189.414 177.861Z" fill="#CBCFD4"/>
<path d="M189.608 177.808L110.861 198.417C108.673 198.989 107.365 201.223 107.939 203.406L112.863 222.131C113.437 224.314 115.676 225.619 117.864 225.047L196.612 204.438C198.8 203.865 200.108 201.631 199.534 199.448L194.61 180.723C194.036 178.54 191.797 177.235 189.608 177.808Z" stroke="#AEB3BB" stroke-width="1.2" stroke-linecap="round" stroke-linejoin="round"/>
<path d="M190.292 181.362L111.922 201.873C111.543 201.972 111.316 202.359 111.416 202.737L116.301 221.312C116.4 221.69 116.788 221.916 117.167 221.817L195.537 201.307C195.916 201.207 196.142 200.821 196.043 200.443L191.158 181.867C191.058 181.489 190.671 181.263 190.292 181.362Z" stroke="#AEB3BB" stroke-width="1.2" stroke-linecap="round" stroke-linejoin="round"/>
<path d="M177.694 201.512L194.342 197.168" stroke="#AEB3BB" stroke-width="1.2" stroke-linecap="round" stroke-linejoin="round"/>
<path d="M115.626 217.706L172.085 202.978" stroke="#AEB3BB" stroke-width="1.2" stroke-linecap="round" stroke-linejoin="round"/>
<path d="M117.215 201.076L122.156 219.6" stroke="#AEB3BB" stroke-width="1.2" stroke-linecap="round" stroke-linejoin="round"/>
<path d="M122.691 199.807L127.633 218.331" stroke="#AEB3BB" stroke-width="1.2" stroke-linecap="round" stroke-linejoin="round"/>
<path d="M128.107 198.176L132.1 213.41" stroke="#AEB3BB" stroke-width="1.2" stroke-linecap="round" stroke-linejoin="round"/>
<path d="M133.951 196.61L137.943 211.84" stroke="#AEB3BB" stroke-width="1.2" stroke-linecap="round" stroke-linejoin="round"/>
<path d="M139.969 195.04L143.961 210.27" stroke="#AEB3BB" stroke-width="1.2" stroke-linecap="round" stroke-linejoin="round"/>
<path d="M145.895 193.457L149.888 208.692" stroke="#AEB3BB" stroke-width="1.2" stroke-linecap="round" stroke-linejoin="round"/>
<path d="M151.826 192.328L156.767 210.852" stroke="#AEB3BB" stroke-width="1.2" stroke-linecap="round" stroke-linejoin="round"/>
<path d="M157.302 190.748L162.239 209.272" stroke="#AEB3BB" stroke-width="1.2" stroke-linecap="round" stroke-linejoin="round"/>
<path d="M162.812 189.304L167.754 207.829" stroke="#AEB3BB" stroke-width="1.2" stroke-linecap="round" stroke-linejoin="round"/>
<path d="M168.153 187.907L173.095 206.431" stroke="#AEB3BB" stroke-width="1.2" stroke-linecap="round" stroke-linejoin="round"/>
<path d="M173.555 186.492L178.493 205.016" stroke="#AEB3BB" stroke-width="1.2" stroke-linecap="round" stroke-linejoin="round"/>
<path d="M179.22 185.205L184.157 203.729" stroke="#AEB3BB" stroke-width="1.2" stroke-linecap="round" stroke-linejoin="round"/>
<path d="M184.9 183.522L189.837 202.047" stroke="#AEB3BB" stroke-width="1.2" stroke-linecap="round" stroke-linejoin="round"/>
<path d="M176.67 197.89L193.656 193.457" stroke="#AEB3BB" stroke-width="1.2" stroke-linecap="round" stroke-linejoin="round"/>
<path d="M114.936 213.995L171.066 199.351" stroke="#AEB3BB" stroke-width="1.2" stroke-linecap="round" stroke-linejoin="round"/>
<path d="M175.646 193.864L192.646 189.431" stroke="#AEB3BB" stroke-width="1.2" stroke-linecap="round" stroke-linejoin="round"/>
<path d="M113.926 209.969L170.103 195.311" stroke="#AEB3BB" stroke-width="1.2" stroke-linecap="round" stroke-linejoin="round"/>
<path d="M174.997 189.974L191.664 185.705" stroke="#AEB3BB" stroke-width="1.2" stroke-linecap="round" stroke-linejoin="round"/>
<path d="M112.944 206.249L169.149 191.581" stroke="#AEB3BB" stroke-width="1.2" stroke-linecap="round" stroke-linejoin="round"/>
<path d="M218.625 149.628C218.625 145.284 214.802 144.263 211.664 145.406C206.825 139.38 196.989 138.681 191.577 143.911C186.354 148.452 189.29 153.593 190.638 162.52C196.317 174.456 213.392 169.015 212.852 156.718C217.531 156.854 218.621 153.729 218.621 149.633L218.625 149.628Z" fill="#AEB3BB"/>
<path d="M201.814 156.471C206.869 155.463 210.348 151.558 209.585 147.749C208.822 143.939 204.106 141.668 199.051 142.676C193.995 143.683 190.516 147.589 191.279 151.398C192.042 155.207 196.759 157.479 201.814 156.471Z" fill="#F2F4F7"/>
<path d="M271.229 133.972C265.296 137.154 257.799 140.134 251.264 141.765C249.991 142.084 248.695 142.342 247.511 142.909C246.858 143.223 246.252 143.621 245.613 143.968C244.331 144.657 242.931 145.102 241.541 145.542L232.681 148.345C230.027 144.038 229.379 138.836 227.124 134.347C226.485 133.072 225.72 131.863 225.128 130.565C223.507 127.018 223.206 122.894 221.046 119.375C231.845 116.066 253.129 108.25 260.354 106.947C261.43 108.723 269.406 126.563 271.229 133.972Z" fill="#F2F4F7"/>
<path d="M249.78 119.788C259.203 130.608 235.189 141.761 230.093 129.976C225.48 119.305 242.579 111.517 249.78 119.788Z" fill="#AEB3BB"/>
<path d="M255.563 142.332C250.799 139.942 249.315 131.933 251.556 127.336C253.961 122.397 261.12 120.045 266.104 123.367C278.702 131.76 268.401 148.78 255.563 142.332Z" fill="#AEB3BB"/>
<path d="M260.304 131.442C261.212 131.442 261.948 131.025 261.948 130.51C261.948 129.995 261.212 129.577 260.304 129.577C259.396 129.577 258.66 129.995 258.66 130.51C258.66 131.025 259.396 131.442 260.304 131.442Z" fill="#CBCFD4"/>
<path d="M260.421 137.519C260.92 137.16 261.081 136.531 260.779 136.113C260.477 135.694 259.828 135.646 259.329 136.004C258.83 136.363 258.669 136.992 258.971 137.41C259.273 137.829 259.922 137.877 260.421 137.519Z" fill="#CBCFD4"/>
<path d="M267.982 133.723C268.681 133.337 268.977 132.535 268.643 131.933C268.308 131.331 267.471 131.156 266.772 131.542C266.073 131.928 265.777 132.729 266.111 133.332C266.446 133.934 267.283 134.109 267.982 133.723Z" fill="#CBCFD4"/>
<path d="M266.439 137.973C266.604 137.299 266.073 136.591 265.253 136.393C264.434 136.194 263.637 136.579 263.472 137.253C263.308 137.927 263.839 138.634 264.658 138.833C265.478 139.032 266.275 138.647 266.439 137.973Z" fill="#CBCFD4"/>
<path d="M245.979 128.627C246.1 128.129 245.792 127.627 245.29 127.505C244.789 127.384 244.284 127.689 244.162 128.186C244.041 128.684 244.349 129.187 244.851 129.308C245.352 129.43 245.858 129.125 245.979 128.627Z" fill="#CBCFD4"/>
<path d="M238.248 122.893C238.817 122.187 238.952 121.353 238.55 121.03C238.147 120.708 237.36 121.018 236.791 121.724C236.222 122.43 236.087 123.264 236.489 123.587C236.892 123.909 237.679 123.599 238.248 122.893Z" fill="#CBCFD4"/>
<path d="M245.461 121.207C245.812 120.828 245.691 120.148 245.191 119.688C244.691 119.228 244.002 119.162 243.652 119.541C243.302 119.919 243.423 120.599 243.922 121.059C244.422 121.519 245.111 121.585 245.461 121.207Z" fill="#CBCFD4"/>
<path d="M241.486 127.896C241.948 127.354 241.891 126.549 241.359 126.098C240.827 125.647 240.021 125.722 239.559 126.264C239.098 126.807 239.154 127.612 239.686 128.063C240.218 128.513 241.024 128.439 241.486 127.896Z" fill="#CBCFD4"/>
<path d="M240.415 132.453C240.863 132.403 241.181 131.948 241.125 131.436C241.068 130.925 240.658 130.55 240.21 130.599C239.761 130.648 239.443 131.104 239.5 131.615C239.556 132.127 239.966 132.502 240.415 132.453Z" fill="#CBCFD4"/>
<path d="M263.28 127.502C264.053 127.417 264.635 126.933 264.578 126.421C264.521 125.909 263.848 125.563 263.075 125.648C262.301 125.733 261.72 126.217 261.777 126.729C261.833 127.241 262.506 127.587 263.28 127.502Z" fill="#CBCFD4"/>
<path d="M309.728 258.647C310.531 250.24 303.321 245.807 301.62 245.821C301.366 249.172 301.381 252.546 301.888 256.117C304.274 257.485 306.942 258.366 309.728 258.647Z" fill="#F49B6E"/>
<path d="M264.099 306.649L298.826 304.566C309.038 303.954 317.831 311.727 318.446 321.92L319.84 345.06C320.454 355.248 312.658 364.021 302.445 364.633L267.713 366.716C257.501 367.328 248.707 359.551 248.093 349.363L246.699 326.222C246.085 316.034 253.881 307.262 264.094 306.649L264.099 306.649Z" fill="#CBCFD4"/>
<path d="M374.62 476.558C366.705 479.192 360.494 470.991 357.385 464.515C356.596 464.154 355.971 463.957 355.346 463.765C353.725 460.724 353.011 457.434 353.134 454.172C351.823 449.927 350.433 445.906 349.066 442.185C355.045 439.674 361.354 437.94 367.776 437.199C369.772 444.594 374.549 451.056 377.72 458.053C379.134 463.929 382.023 474.093 374.62 476.554V476.558Z" fill="#CBCFD4"/>
<path d="M256.9 443.585C250.182 441.603 249.586 432.732 250.939 426.827C251.85 421.654 251.38 416.246 249.614 410.735C253.503 405.383 258.116 400.552 263.439 396.606C265.421 397.276 267.187 398.096 269.273 399.272C268.85 407.553 268.441 417.68 269.625 426.082C271.016 435.956 263.006 445.389 256.9 443.585Z" fill="#CBCFD4"/>
<path d="M368.287 438.117C365.731 427.813 363.176 417.503 360.621 407.198C356.924 394.827 353.184 383.032 348.872 371.452C346.35 362.136 343.367 353.589 339.566 345.421C333.751 333.433 327.931 321.905 322.115 310.377C321.274 308.714 320.138 306.835 318.282 306.647C313.232 309.136 308.107 310.916 302.959 312.486C299.887 313.423 296.768 314.295 293.569 314.59C290.811 314.843 288.03 314.665 285.273 314.398C272.858 313.198 260.621 310.204 249.056 305.532C241.262 319.061 234.935 333.382 229.641 348.415C228.485 351.55 227.325 354.685 226.169 357.815C224.732 361.71 223.281 365.646 222.806 369.77C222.332 373.894 222.914 378.28 225.751 382.282C232.351 392.957 240.44 402.714 249.723 411.031C253.57 411.711 257.746 410.877 260.795 408.435C262.965 406.697 264.501 404.194 265.163 401.228C262.157 391.237 257.464 381.809 252.118 372.197C260.329 357.839 268.625 343.279 273.154 327.191C279.998 327.866 286.917 327.815 293.926 327.824C304.655 343.79 314.886 360.088 324.549 377.179C328.391 390.642 333.013 403.885 338.669 417.348C341.666 425.455 344.814 433.511 348.393 441.777C351.672 442.822 355.115 443.53 358.54 443.211C361.964 442.888 365.384 441.435 368.282 438.103L368.287 438.117Z" fill="#EA723C"/>
<path d="M301.996 251.884C302.921 251.003 303.015 249.56 302.836 248.295C302.634 246.861 302.132 245.417 301.112 244.386C302.916 242.006 303.602 238.96 303.16 236.101C302.719 233.243 301.188 230.595 299.041 228.65C297.519 227.268 295.588 226.195 293.531 226.232C292.948 224.03 292.502 221.986 291.332 220.332C289.787 218.139 287.18 216.925 284.577 216.246C282.745 215.768 280.824 215.51 278.95 215.791C277.075 216.072 275.243 216.939 274.055 218.406C271.927 216.471 268.39 215.829 265.534 216.968C262.678 218.106 260.587 220.871 260.085 223.898C257.994 223.2 255.462 223.542 253.527 224.756C251.592 225.97 250.234 227.975 249.539 230.15C248.75 232.605 248.768 235.314 249.562 238.008C248.271 238.608 247.303 239.784 246.777 241.101C246.251 242.418 246.133 243.875 246.237 245.291C246.448 248.093 247.674 251.003 250.281 252.498C262.87 255.343 289.124 257.676 301.996 251.894V251.884Z" fill="#C0470E"/>
<path d="M257.154 255.118C242.188 254.725 227.198 254.336 211.889 255.479C211.278 265.934 211.711 276.45 213.486 287.289C223.079 285.756 232.737 284.655 242.315 284.266C243.517 285.264 244.546 286.464 245.359 288.123C246.674 294.646 248.224 301.118 250.098 308.011C255.143 314.839 263.077 319.464 272.021 320.378C279.847 320.542 287.941 320.453 295.368 317.271C295.894 314.272 296.397 311.263 297.017 308.306C303.913 310.115 311.072 310.912 318.32 310.396C318.959 309.801 319.132 308.869 319.259 308.006C321.072 295.902 321.072 283.61 320.936 270.958C319.63 267.134 317.535 263.497 314.463 260.864C312.269 258.984 309.662 257.672 307.079 256.379C305.857 255.765 304.631 255.151 302.325 254.537C287.894 252.986 273.313 252.869 257.159 255.118H257.154Z" fill="white"/>
<path d="M291.703 270.207C294.062 267.854 294.949 264.424 296.002 261.266C297.5 261.247 298.928 260.624 300.276 260.01C301.282 259.555 302.32 259.073 303.029 258.229C303.766 257.353 304.062 256.177 304.119 255.033C304.217 253.088 303.626 251.022 302.169 249.728C300.713 248.435 298.299 248.159 296.81 249.419C296.368 248.318 296.081 246.996 295.79 245.675C293.864 244.18 292.121 242.441 290.637 240.506C288.199 236.856 286.823 233.491 286.038 229.99C286.029 230.51 285.794 231.096 285.503 231.602C284.385 233.547 282.351 234.939 280.129 235.276C277.907 235.614 275.549 234.883 273.905 233.35C273.36 236.265 271.194 238.767 268.46 239.513C267.464 239.784 266.417 239.836 265.383 239.845C264.331 239.855 263.194 239.789 262.386 239.119C261.297 241.045 260.108 242.554 258.699 243.754C257.29 244.953 255.65 245.848 253.983 246.664C254.006 248.847 254.354 251.022 254.706 253.196C253.085 252.034 250.629 252.498 249.304 253.983C247.979 255.469 247.73 257.723 248.393 259.597C249.055 261.472 250.511 262.99 252.193 264.063C253.875 265.136 255.772 265.807 257.68 266.702C259.15 270.343 262.339 273.206 266.013 274.612C273.754 277.569 283.159 278.726 291.703 270.202V270.207Z" fill="#FAD1B4"/>
<path d="M288.139 339.802L277.602 339.971C276.174 339.994 274.929 338.996 274.643 337.6L269.067 310.322C268.691 308.485 270.1 306.769 271.975 306.769H292.225C294.048 306.769 295.439 308.391 295.161 310.186C294.123 316.84 291.859 331.395 291.028 337.258C290.826 338.701 289.595 339.779 288.134 339.802H288.139Z" fill="#52575E"/>
<path d="M211.795 255.381C206.313 255.719 200.812 256.056 195.335 255.672C191.365 255.391 187.034 254.814 183.041 257.045C168.141 262.959 153.231 268.873 138.636 275.504C135.108 277.106 131.271 279.098 129.758 283.283C128.522 288.456 127.456 293.667 126.578 299.337C128.128 304.239 129.744 309.272 133.018 313.241C133.572 313.911 134.296 314.6 135.165 314.539C136.1 314.474 136.757 313.508 136.818 312.576C136.879 311.643 136.494 310.748 136.151 309.619C136.804 309.221 137.166 308.452 137.236 307.693C137.307 306.934 137.124 306.17 136.973 305.214C137.777 304.553 137.95 303.41 138.044 302.374C138.749 294.614 138.162 286.615 140.82 279.145C142.563 275.672 150.352 273.573 150.352 273.573L183.323 275.33L193.672 272.758L212.509 276.202C212.509 276.202 211.982 255.461 211.79 255.381H211.795Z" fill="#FAD1B4"/>
<path d="M314.007 311.085C314.421 313.227 314.12 315.434 313.815 317.594C313.373 320.738 312.927 323.883 312.485 327.027C311.212 329.136 309.333 330.551 307.473 331.877C306.026 332.913 304.561 333.925 303.081 334.919C299.75 337.112 296.368 339.258 292.54 339.713C289.148 340.636 285.78 339.76 282.816 338.532C281.548 338.007 280.293 337.407 279.246 336.521C278.198 335.636 277.372 334.431 277.179 333.072C276.418 332.365 275.671 331.662 275.408 330.739C275.145 329.816 275.535 328.672 276.437 328.344C275.784 327.529 275.103 326.84 275.14 325.992C275.178 325.143 275.92 324.52 276.601 324.009C280.289 323.063 283.788 322.055 287.382 321.554C289.134 321.31 290.933 321.193 292.657 321.587C293.169 320.654 293.315 319.684 293.46 318.709C293.827 318.831 294.174 319 294.494 319.211C295.462 315.818 296.053 312.346 296.669 308.672C302.301 309.806 308.008 310.579 314.002 311.071L314.007 311.085Z" fill="#FAD1B4"/>
<path d="M281.586 262.865C277.852 263.47 274.108 264.004 270.284 264.665C269.617 274.103 283.944 272.148 281.586 262.865Z" fill="#F9C0D9"/>
<path d="M274.788 316.652L274.041 313.906L277.921 313.948L277.963 316.76L274.788 316.652Z" fill="#FDF1EB"/>
<path d="M256.092 443.319C264.675 444.954 269.771 434.813 269.537 427.339C268.611 424.265 268.198 421.036 268.428 417.526C268.794 411.542 268.132 405.244 269.292 399.377C270.063 399.92 270.781 400.534 271.66 401.607C271.956 409.138 272.073 416.678 272.167 424.443C273.196 427.447 273.224 430.76 272.388 433.82C270.828 440.638 263.016 448.427 256.092 443.323V443.319Z" fill="#FDF1EB"/>
<path d="M373.697 479.815C382.058 478.381 382.82 469.402 378.85 463.596C382.317 483.465 362.334 478.268 357.674 464.318C356.96 463.755 355.353 463.076 355.198 464.514C358.078 472.331 367.778 480.827 373.697 479.815Z" fill="#FDF1EB"/>
<path d="M191.701 275.813L151.246 273.069C145.474 272.677 140.477 277.028 140.084 282.786L137.42 321.877C137.027 327.635 141.388 332.62 147.16 333.012L187.616 335.756C193.388 336.147 198.385 331.797 198.777 326.039L201.442 286.948C201.834 281.19 197.473 276.205 191.701 275.813Z" fill="#CBCFD4"/>
<path d="M150.516 332.94L185.225 335.294C195.433 335.987 203.16 344.815 202.465 355.003L200.889 378.132C200.195 388.315 191.34 396.023 181.133 395.331L146.419 392.976C136.211 392.284 128.484 383.45 129.178 373.268L130.755 350.139C131.449 339.956 140.303 332.247 150.511 332.94L150.516 332.94Z" fill="#CBCFD4"/>
<path d="M165.53 394.114L173.154 394.648L173.093 407.305L165.587 407.188C165.587 407.188 165.525 394.053 165.525 394.114H165.53Z" fill="#898E96"/>
<path d="M130.402 356.021L129.833 363.828L117.127 360.613L118.738 354.132L130.402 356.021Z" fill="#898E96"/>
<path d="M256.205 364.113L251.798 372.178L255.04 378.064L260.099 366.077C260.099 366.077 256.275 363.968 256.205 364.113Z" fill="#9CA1A9"/>
<path d="M297.655 364.943L308.323 374.194L313.298 368.763L308.037 363.477L304.744 364.264C304.744 364.264 297.261 364.798 297.655 364.943Z" fill="#9CA1A9"/>
<path d="M165.562 400.52L156.933 400.591C155.735 400.6 154.767 401.579 154.782 402.779L154.814 405.989C154.828 407.175 155.796 408.131 156.985 408.131H165.811C165.811 408.131 165.604 400.736 165.562 400.52Z" fill="#70757D"/>
<path d="M117.742 344.723L120.401 344.184C121.768 343.907 123.088 344.821 123.304 346.199L124.742 355.374L118.738 354.137L117.62 357.464C117.62 357.464 116.465 350.89 115.826 347.577C115.572 346.264 116.427 344.994 117.738 344.732L117.742 344.723Z" fill="#70757D"/>
<path d="M307.525 374.419L313.227 368.828L319.531 380.956C320.09 382.034 319.715 383.36 318.667 383.983L316.234 385.427C315.125 386.087 313.688 385.708 313.054 384.583C311.113 381.13 307.412 374.508 307.525 374.419Z" fill="#70757D"/>
<path d="M135.452 359.676L138.332 378.004L204.857 369.672L201.33 343.776L142.203 350.927C142.203 350.927 135.603 359.461 135.452 359.671V359.676Z" fill="white"/>
<path d="M136.162 359.713L142.315 351.747L141.958 360.449C141.958 360.449 136.274 359.746 136.166 359.708L136.162 359.713Z" fill="#FBE1D8"/>
<path d="M147.403 369.81L143.115 362.289L146.196 361.909L148.702 367.611L147.989 367.714L149.04 361.558L152.106 361.179L149.621 369.536L147.403 369.81Z" fill="#EA723C"/>
<path d="M156.924 368.771C156.269 368.852 155.657 368.751 155.088 368.469C154.528 368.176 154.055 367.741 153.672 367.164C153.296 366.576 153.06 365.885 152.961 365.091C152.86 364.278 152.921 363.546 153.142 362.894C153.364 362.243 153.716 361.711 154.199 361.299C154.681 360.877 155.264 360.624 155.949 360.539C156.316 360.494 156.66 360.502 156.98 360.563C157.3 360.624 157.585 360.735 157.837 360.895C158.089 361.056 158.314 361.244 158.512 361.461C158.71 361.679 158.881 361.919 159.024 362.184L158.455 362.224L158.232 360.424L160.956 360.088L161.939 368.016L159.155 368.36L158.916 366.426L159.53 366.38C159.476 366.679 159.375 366.963 159.227 367.233C159.089 367.502 158.908 367.746 158.683 367.965C158.457 368.174 158.197 368.352 157.903 368.499C157.618 368.635 157.291 368.726 156.924 368.771ZM157.431 366.398C157.748 366.359 158.013 366.255 158.224 366.088C158.434 365.912 158.581 365.677 158.666 365.385C158.76 365.091 158.784 364.756 158.737 364.379C158.689 363.992 158.584 363.668 158.42 363.406C158.267 363.143 158.067 362.956 157.822 362.846C157.575 362.725 157.293 362.684 156.975 362.723C156.658 362.763 156.394 362.871 156.184 363.048C155.983 363.213 155.84 363.442 155.756 363.735C155.671 364.027 155.652 364.367 155.7 364.754C155.747 365.13 155.847 365.45 156.001 365.713C156.154 365.976 156.349 366.169 156.586 366.291C156.832 366.401 157.113 366.437 157.431 366.398Z" fill="#EA723C"/>
<path d="M167.583 367.471C166.799 367.568 166.073 367.476 165.403 367.196C164.743 366.915 164.197 366.489 163.763 365.919C163.329 365.338 163.062 364.651 162.964 363.857C162.865 363.064 162.957 362.338 163.238 361.679C163.518 361.01 163.943 360.459 164.514 360.026C165.095 359.592 165.778 359.327 166.562 359.23C167.276 359.142 167.945 359.175 168.569 359.33C169.203 359.483 169.725 359.751 170.135 360.133L168.853 362.104C168.726 361.978 168.572 361.872 168.39 361.783C168.206 361.685 168.007 361.619 167.791 361.585C167.584 361.54 167.356 361.533 167.108 361.564C166.781 361.604 166.502 361.714 166.272 361.894C166.043 362.073 165.875 362.305 165.769 362.59C165.672 362.864 165.644 363.169 165.686 363.506C165.728 363.844 165.829 364.133 165.99 364.375C166.151 364.617 166.366 364.802 166.634 364.93C166.911 365.057 167.214 365.1 167.541 365.06C167.79 365.029 168.009 364.972 168.2 364.888C168.401 364.803 168.574 364.696 168.72 364.567C168.875 364.437 169.003 364.29 169.103 364.127L170.83 365.741C170.515 366.203 170.068 366.586 169.491 366.888C168.924 367.19 168.288 367.384 167.583 367.471Z" fill="#EA723C"/>
<path d="M175.097 366.529C174.442 366.61 173.83 366.509 173.26 366.227C172.7 365.934 172.228 365.499 171.844 364.922C171.469 364.334 171.232 363.643 171.134 362.849C171.033 362.036 171.093 361.304 171.315 360.652C171.536 360.001 171.889 359.469 172.372 359.057C172.853 358.635 173.437 358.382 174.121 358.297C174.489 358.252 174.832 358.26 175.152 358.321C175.472 358.382 175.758 358.493 176.01 358.653C176.261 358.814 176.486 359.002 176.684 359.219C176.883 359.437 177.053 359.677 177.197 359.942L176.628 359.982L176.405 358.182L179.129 357.846L180.112 365.774L177.328 366.118L177.088 364.184L177.702 364.138C177.649 364.437 177.548 364.721 177.4 364.991C177.262 365.26 177.08 365.504 176.856 365.723C176.63 365.932 176.37 366.11 176.076 366.257C175.79 366.393 175.464 366.484 175.097 366.529ZM175.603 364.156C175.921 364.117 176.185 364.013 176.396 363.846C176.606 363.67 176.753 363.435 176.838 363.143C176.933 362.849 176.957 362.514 176.91 362.137C176.862 361.75 176.756 361.426 176.593 361.164C176.439 360.901 176.24 360.714 175.994 360.604C175.748 360.483 175.465 360.442 175.148 360.481C174.83 360.521 174.567 360.629 174.357 360.806C174.156 360.971 174.013 361.2 173.928 361.493C173.843 361.785 173.825 362.125 173.873 362.512C173.92 362.888 174.02 363.208 174.173 363.471C174.327 363.734 174.522 363.927 174.759 364.049C175.004 364.159 175.286 364.195 175.603 364.156Z" fill="#EA723C"/>
<path d="M182.194 365.517L181.211 357.589L183.802 357.269L184.12 358.861L183.577 359.109C183.629 358.72 183.781 358.364 184.034 358.041C184.284 357.708 184.598 357.433 184.974 357.215C185.35 356.997 185.757 356.862 186.193 356.808C186.789 356.734 187.305 356.797 187.743 356.994C188.189 357.181 188.547 357.504 188.815 357.964C189.093 358.414 189.274 358.985 189.361 359.679L189.965 364.559L187.196 364.9L186.619 360.244C186.587 359.986 186.521 359.778 186.421 359.619C186.319 359.451 186.184 359.331 186.014 359.262C185.844 359.192 185.65 359.176 185.433 359.212C185.265 359.233 185.109 359.278 184.966 359.346C184.833 359.412 184.719 359.507 184.623 359.63C184.527 359.742 184.456 359.867 184.413 360.003C184.379 360.138 184.372 360.285 184.392 360.443L184.978 365.174L183.594 365.345C183.256 365.386 182.969 365.422 182.73 365.451C182.502 365.48 182.323 365.502 182.194 365.517Z" fill="#EA723C"/>
<path d="M192.441 364.253L191.21 354.316L193.979 353.975L195.21 363.912L192.441 364.253ZM190.44 358.836L190.148 356.486L195.612 355.812L195.903 358.162L190.44 358.836Z" fill="#EA723C"/>
<path d="M253.913 247.734C254.425 249.983 255.027 252.209 254.862 253.99C254.444 253.198 253.57 252.697 252.678 252.622C251.785 252.547 250.884 252.851 250.146 253.362C249.601 253.737 249.136 254.224 248.784 254.782C247.398 256.975 247.999 260.026 249.695 261.994C251.391 263.962 253.942 265.007 256.492 265.523" stroke="#52575E" stroke-width="1.2" stroke-linecap="round" stroke-linejoin="round"/>
<path d="M256.403 262.316C258.367 280.854 291.916 282.485 295.881 261.262" stroke="#52575E" stroke-width="1.2" stroke-linecap="round" stroke-linejoin="round"/>
<path d="M295.73 246.036C295.829 247.147 295.927 248.257 296.317 249.654C297.788 248.22 300.348 248.304 301.973 249.565C303.598 250.825 304.322 253.004 304.186 255.057C304.12 256.092 303.847 257.133 303.288 258.014C301.856 260.282 298.854 261.041 296.172 260.896" stroke="#52575E" stroke-width="1.2" stroke-linecap="round" stroke-linejoin="round"/>
<path d="M300.911 252.823C299.455 252.607 297.9 253.268 296.697 254.697C296.561 256.858 296.289 259.009 295.875 261.132" stroke="#52575E" stroke-width="1.2" stroke-linecap="round" stroke-linejoin="round"/>
<path d="M251.536 257.822C252.636 257.255 254.049 257.776 254.876 258.694C255.703 259.613 256.088 260.84 256.445 262.021" stroke="#52575E" stroke-width="1.2" stroke-linecap="round" stroke-linejoin="round"/>
<path d="M253.51 246.909C255.375 246.098 257.268 245.278 258.856 244.008C260.443 242.738 261.726 240.957 261.942 238.938C264.77 240.165 267.222 239.889 269.326 238.994C270.487 238.497 271.581 237.808 272.384 236.834C273.188 235.859 273.657 234.584 273.493 233.338C274.738 234.298 275.997 235.029 277.303 235.278C278.609 235.526 279.966 235.339 281.248 234.997C282.132 234.762 283.015 234.444 283.724 233.872C284.997 232.846 285.547 231.079 285.744 229.584C286.594 232.672 287.571 235.751 289.131 238.549C290.69 241.346 292.875 243.868 295.693 245.4" stroke="#52575E" stroke-width="1.2" stroke-linecap="round" stroke-linejoin="round"/>
<path d="M250.836 252.133C248.831 251.454 247.276 249.696 246.632 247.681C245.989 245.666 246.205 243.431 247.008 241.477C247.572 240.113 248.483 238.801 249.845 238.22C248.319 234.879 248.53 230.666 250.667 227.718C252.805 224.771 256.746 223.238 260.316 223.979C261.11 220.577 263.097 218.009 265.704 217.025C268.311 216.04 271.393 216.584 274.418 218.22C275.963 216.308 278.617 215.652 281.079 215.652C284.156 215.652 287.294 216.537 289.675 218.487C292.057 220.436 293.574 223.515 293.588 226.716C296.524 226.692 299.324 228.389 301.01 230.783C302.697 233.178 303.354 236.196 303.256 239.125C303.19 241.093 302.65 243.276 301.104 244.551C302.64 245.751 303.317 247.939 302.729 249.8" stroke="#52575E" stroke-width="1.2" stroke-linecap="round" stroke-linejoin="round"/>
<path d="M271.97 244.996L273.539 248.051C273.727 248.421 273.92 248.796 273.981 249.204C274.084 249.911 273.779 250.61 273.459 251.252C272.839 252.503 272.149 253.717 271.388 254.888C270.979 255.516 270.533 256.275 270.815 256.969C270.937 257.264 271.176 257.494 271.411 257.714C271.998 258.253 272.614 258.764 273.243 259.251" stroke="#52575E" stroke-width="1.2" stroke-linecap="round" stroke-linejoin="round"/>
<path d="M281.83 262.79C277.772 263.446 273.676 263.891 269.547 264.407C269.828 274.163 284.113 272.219 281.83 262.79Z" stroke="#52575E" stroke-width="1.2" stroke-linecap="round" stroke-linejoin="round"/>
<path d="M259.311 244.649C260.669 242.765 263.506 242.141 265.531 243.28" stroke="#52575E" stroke-width="1.2" stroke-linecap="round" stroke-linejoin="round"/>
<path d="M279.712 240.972C281.91 239.743 284.846 239.978 286.819 241.549" stroke="#52575E" stroke-width="1.2" stroke-linecap="round" stroke-linejoin="round"/>
<path d="M277.18 277.237C275.127 279.791 272.938 282.238 269.791 284.543C266.179 281.127 263.304 276.942 261.406 272.35" stroke="#52575E" stroke-width="1.2" stroke-linecap="round" stroke-linejoin="round"/>
<path d="M279.674 277.054C282.357 279.43 285.18 281.647 288.586 283.671C291.935 278.634 293.927 272.706 294.298 266.67" stroke="#52575E" stroke-width="1.2" stroke-linecap="round" stroke-linejoin="round"/>
<path d="M247.84 254.597C236.387 254.499 224.93 254.756 213.032 255.497C206.385 255.44 199.738 255.703 193.537 255.637C191.306 255.033 188.887 255.136 185.439 256.406C170.468 261.912 155.732 268.051 140.132 274.907C138.116 275.844 136.087 276.791 134.307 278.117C132.526 279.443 130.99 281.196 129.783 282.859C128.994 288.15 127.942 293.408 126.631 298.595" stroke="#52575E" stroke-width="1.2" stroke-linecap="round" stroke-linejoin="round"/>
<path d="M132.986 285.437C133.211 290.006 132.427 294.622 130.712 298.867C130.585 299.186 130.449 299.523 130.529 299.856C130.604 300.17 130.862 300.409 131.135 300.578C132.662 301.534 134.757 300.835 136.048 299.58C138.031 297.649 138.67 294.734 138.909 291.983C139.149 289.233 139.529 286.857 139.529 283.619" stroke="#52575E" stroke-width="1.2" stroke-linecap="round" stroke-linejoin="round"/>
<path d="M134.724 301.821C135.584 303.063 136.349 304.403 136.631 305.884C136.913 307.365 136.645 309.009 135.64 310.129C135.457 310.336 135.231 310.528 134.959 310.565C134.466 310.631 134.071 310.19 133.775 309.787C131.21 306.282 128.81 301.376 126.635 299.201C127.992 303.92 130.313 309.642 133.437 313.438C133.719 313.78 134.029 314.131 134.447 314.267C135.297 314.544 136.199 313.78 136.406 312.913C136.612 312.046 136.326 311.146 136.049 310.298" stroke="#52575E" stroke-width="1.2" stroke-linecap="round" stroke-linejoin="round"/>
<path d="M184.198 275.171C186.495 274.552 190.009 273.891 193.475 272.818C199.244 273.413 205.684 274.978 211.373 276.094" stroke="#52575E" stroke-width="1.2" stroke-linecap="round" stroke-linejoin="round"/>
<path d="M211.904 256.656C211.763 266.614 212.083 276.572 213.647 287.153C223.159 286.263 232.662 285.213 242.142 284.014" stroke="#52575E" stroke-width="1.2" stroke-linecap="round" stroke-linejoin="round"/>
<path d="M236.857 277.916C241.827 283.099 246.515 288.559 250.888 294.248" stroke="#52575E" stroke-width="1.2" stroke-linecap="round" stroke-linejoin="round"/>
<path d="M245.021 288.47C246.576 294.468 247.981 300.504 250.01 307.472C254.261 314.131 261.711 318.377 269.49 319.801" stroke="#52575E" stroke-width="1.2" stroke-linecap="round" stroke-linejoin="round"/>
<path d="M305.144 255.306C308.437 257.405 312.279 258.684 315.168 261.309C318.066 263.938 319.701 267.64 321.345 271.553C321.026 284.449 320.279 297.331 319.114 310.176" stroke="#52575E" stroke-width="1.2" stroke-linecap="round" stroke-linejoin="round"/>
<path d="M311.927 270.137C307.591 275.348 303.255 280.564 298.069 286.806C297.388 297.209 296.524 307.599 295.471 317.969" stroke="#52575E" stroke-width="1.2" stroke-linecap="round" stroke-linejoin="round"/>
<path d="M297.59 308.62C304.566 310.265 311.767 310.963 318.931 310.691" stroke="#52575E" stroke-width="1.2" stroke-linecap="round" stroke-linejoin="round"/>
<path d="M314.092 311.422C313.838 316.076 313.331 320.715 312.574 325.312C312.448 326.081 312.311 326.859 311.945 327.548C311.527 328.33 310.85 328.93 310.188 329.516C305.373 333.752 300.178 338.176 293.827 339.108" stroke="#52575E" stroke-width="1.2" stroke-linecap="round" stroke-linejoin="round"/>
<path d="M306.502 319.868C304.721 319.465 302.917 319.174 301.099 318.996C300.188 318.907 299.267 318.846 298.366 319.005C297.464 319.165 296.581 319.568 295.993 320.267" stroke="#52575E" stroke-width="1.2" stroke-linecap="round" stroke-linejoin="round"/>
<path d="M298.187 324.126C296.796 322.257 295.401 320.382 294.011 318.512" stroke="#52575E" stroke-width="1.2" stroke-linecap="round" stroke-linejoin="round"/>
<path d="M293.047 321.516C287.917 320.808 282.75 322.13 277.742 323.442C276.751 323.699 275.633 324.065 275.238 325.007C274.839 325.944 275.534 327.172 276.991 327.997C276.046 328.273 275.375 329.276 275.487 330.251C275.6 331.225 276.479 332.055 277.808 333.025C277.465 333.971 277.836 335.059 278.494 335.818C279.151 336.577 280.063 337.069 280.965 337.519C283.21 338.648 285.549 339.646 288.02 340.11C288.96 340.288 289.97 340.377 290.839 339.984C291.708 339.59 292.361 338.573 292.041 337.674C294.212 336.778 295.17 333.779 293.92 331.797" stroke="#52575E" stroke-width="1.2" stroke-linecap="round" stroke-linejoin="round"/>
<path d="M292.028 339.422C295.659 337.787 298.835 335.153 301.118 331.897" stroke="#52575E" stroke-width="1.2" stroke-linecap="round" stroke-linejoin="round"/>
<path d="M293.542 331.109C294.444 330.205 294.617 328.663 293.936 327.58" stroke="#52575E" stroke-width="1.2" stroke-linecap="round" stroke-linejoin="round"/>
<path d="M277.377 327.946C282.037 329.197 286.753 330.238 291.511 331.048" stroke="#52575E" stroke-width="1.2" stroke-linecap="round" stroke-linejoin="round"/>
<path d="M278.086 332.66C281.821 334.234 285.738 335.383 289.731 336.085" stroke="#52575E" stroke-width="1.2" stroke-linecap="round" stroke-linejoin="round"/>
<path d="M293.118 321.46L294.927 310.176C295.213 308.386 293.828 306.765 292.014 306.765H272.097C270.237 306.765 268.842 308.461 269.204 310.279L274.648 337.824C274.925 339.235 276.175 340.247 277.617 340.228L286.33 340.125" stroke="#52575E" stroke-width="1.2" stroke-linecap="round" stroke-linejoin="round"/>
<path d="M272.019 310.176H292.401" stroke="#52575E" stroke-width="1.2" stroke-linecap="round" stroke-linejoin="round"/>
<path d="M247.89 307.224C239.506 323.888 232.807 341.33 226.193 358.767C224.737 362.605 223.271 366.509 222.9 370.595C222.529 374.682 223.388 379.059 226.428 383.323C232.689 393.136 240.008 402.274 249.29 410.835C252.522 411.674 256.069 411.22 258.986 409.598C261.903 407.977 264.153 405.203 265.14 402.021" stroke="#52575E" stroke-width="1.2" stroke-linecap="round" stroke-linejoin="round"/>
<path d="M252.335 374.236C257.723 382.399 261.88 391.364 264.633 400.741" stroke="#52575E" stroke-width="1.2" stroke-linecap="round" stroke-linejoin="round"/>
<path d="M223.399 377.38C224.977 379.545 226.579 381.733 228.641 383.449C230.703 385.164 233.31 386.377 235.988 386.251" stroke="#52575E" stroke-width="1.2" stroke-linecap="round" stroke-linejoin="round"/>
<path d="M249.888 375.74C254.28 367.815 258.672 359.891 263.064 351.962C266.461 345.833 270.214 336.015 272.365 329.347" stroke="#52575E" stroke-width="1.2" stroke-linecap="round" stroke-linejoin="round"/>
<path d="M300.874 337.961C309.076 348.444 317.137 364.386 324.075 375.736" stroke="#52575E" stroke-width="1.2" stroke-linecap="round" stroke-linejoin="round"/>
<path d="M320.242 307.21C329.937 324.581 338.463 342.604 345.402 360.66C347.318 364.943 348.253 369.662 348.117 374.353" stroke="#52575E" stroke-width="1.2" stroke-linecap="round" stroke-linejoin="round"/>
<path d="M348.422 370.788C356.812 393.028 363.332 415.32 368.025 438.62" stroke="#52575E" stroke-width="1.2" stroke-linecap="round" stroke-linejoin="round"/>
<path d="M349.242 442.495C350.854 446.455 352.244 450.509 353.4 454.623" stroke="#52575E" stroke-width="1.2" stroke-linecap="round" stroke-linejoin="round"/>
<path d="M368.198 438.067C369.494 443.025 371.594 447.777 374.394 452.069" stroke="#52575E" stroke-width="1.2" stroke-linecap="round" stroke-linejoin="round"/>
<path d="M353.603 455.395C353.777 462.663 356.877 469.819 362.068 474.922C364.769 477.58 368.198 479.754 371.984 479.984C375.77 480.213 379.857 478.029 380.9 474.393C381.44 472.509 381.144 470.494 380.796 468.563C379.744 462.668 378.152 456.59 374.182 452.096" stroke="#52575E" stroke-width="1.2" stroke-linecap="round" stroke-linejoin="round"/>
<path d="M356.131 444.279C357.634 448.637 359.41 452.902 361.542 457.119C359.55 459.308 357.686 461.618 355.962 464.022" stroke="#52575E" stroke-width="1.2" stroke-linecap="round" stroke-linejoin="round"/>
<path d="M365.079 441.95C366.305 446.125 367.729 450.24 369.636 454.42C372.266 454.987 374.827 455.887 377.227 457.096" stroke="#52575E" stroke-width="1.2" stroke-linecap="round" stroke-linejoin="round"/>
<path d="M356.999 448.442C360.255 446.933 363.717 445.864 367.258 445.279" stroke="#52575E" stroke-width="1.2" stroke-linecap="round" stroke-linejoin="round"/>
<path d="M357.816 452.04C361.363 450.386 365.154 449.242 369.029 448.666" stroke="#52575E" stroke-width="1.2" stroke-linecap="round" stroke-linejoin="round"/>
<path d="M358.874 455.725C362.843 454.675 366.812 453.63 370.786 452.58" stroke="#52575E" stroke-width="1.2" stroke-linecap="round" stroke-linejoin="round"/>
<path d="M357.394 464.061C359.081 467.238 360.809 470.472 363.369 473.002C365.934 475.533 369.509 477.295 373.084 476.831C374.408 476.657 375.719 476.165 376.701 475.265C377.762 474.291 378.373 472.918 378.739 471.521C379.98 466.807 378.702 461.84 377.429 457.135" stroke="#52575E" stroke-width="1.2" stroke-linecap="round" stroke-linejoin="round"/>
<path d="M249.837 411.903C251.006 416.453 252.058 421.256 251.077 426.107C250.095 430.957 249.785 436.074 252.571 440.034C255.356 443.998 260.312 446.477 264.634 444.279C268.396 442.363 271.182 436.791 272.366 433.745C274.099 429.284 272.018 425.994 272.018 420.844C272.018 402.001 271.628 401.575 270.961 400.736C269.298 398.632 267.175 398.622 263.854 396.729" stroke="#52575E" stroke-width="1.2" stroke-linecap="round" stroke-linejoin="round"/>
<path d="M324.418 376.767C331.197 400.329 338.778 418.535 348.385 441.436C354.628 444.754 362.97 443.559 368.025 438.62" stroke="#52575E" stroke-width="1.2" stroke-linecap="round" stroke-linejoin="round"/>
<path d="M255.852 443.305C265.693 445.788 270.494 431.271 269.494 427.47C267.394 419.513 269.437 409.011 269.141 400.037" stroke="#52575E" stroke-width="1.2" stroke-linecap="round" stroke-linejoin="round"/>
<path d="M259.371 410.028C259.803 414.246 259.705 418.515 259.08 422.705C261.673 422.334 264.27 422.02 266.878 421.763" stroke="#52575E" stroke-width="1.2" stroke-linecap="round" stroke-linejoin="round"/>
<path d="M251.738 411.988C252.612 415.789 253.49 419.594 254.364 423.394C253.213 423.699 252.194 424.467 251.583 425.489" stroke="#52575E" stroke-width="1.2" stroke-linecap="round" stroke-linejoin="round"/>
<path d="M251.574 414.982C254.421 413.96 257.385 413.267 260.386 412.915" stroke="#52575E" stroke-width="1.2" stroke-linecap="round" stroke-linejoin="round"/>
<path d="M252.038 418.402C254.744 417.535 257.525 416.898 260.339 416.5" stroke="#52575E" stroke-width="1.2" stroke-linecap="round" stroke-linejoin="round"/>
<path d="M252.637 421.914C255.39 421.056 258.283 420.629 261.167 420.667" stroke="#52575E" stroke-width="1.2" stroke-linecap="round" stroke-linejoin="round"/>
<path d="M191.142 276.105L151.282 273.401C145.213 272.989 139.958 277.564 139.545 283.619L136.997 321.003C136.584 327.059 141.17 332.301 147.24 332.713L187.1 335.417C193.169 335.828 198.424 331.253 198.837 325.198L201.385 287.814C201.798 281.759 197.212 276.517 191.142 276.105Z" stroke="#52575E" stroke-width="1.2" stroke-linecap="round" stroke-linejoin="round"/>
<path d="M144.786 308.432L146.243 287.133C146.487 283.544 149.601 280.835 153.199 281.079L187.505 283.408C191.103 283.651 193.819 286.758 193.574 290.348L192.033 312.931" stroke="#52575E" stroke-width="1.2" stroke-linecap="round" stroke-linejoin="round"/>
<path d="M200.922 370.402L200.358 378.687C199.691 388.481 191.189 395.876 181.376 395.211L145.684 392.788C135.867 392.122 128.454 383.641 129.121 373.851L130.751 349.999C131.418 340.205 139.92 332.81 149.733 333.475L185.425 335.898C190.944 336.273 195.708 339.122 198.7 343.283" stroke="#52575E" stroke-width="1.2" stroke-linecap="round" stroke-linejoin="round"/>
<path d="M197.304 370.955L197.111 373.303C196.444 383.097 187.942 390.492 178.129 389.827L149.399 387.877C139.581 387.212 132.169 378.73 132.836 368.94L134.114 350.224" stroke="#52575E" stroke-width="1.2" stroke-linecap="round" stroke-linejoin="round"/>
<path d="M173.107 394.87V406.145C173.107 406.918 172.477 407.541 171.707 407.541H166.995C166.22 407.541 165.595 406.913 165.595 406.145V394.153" stroke="#52575E" stroke-width="1.2" stroke-linecap="round" stroke-linejoin="round"/>
<path d="M170.233 408.126H157.48C155.892 408.126 154.605 406.842 154.605 405.258V403.496C154.605 401.913 155.892 400.629 157.48 400.629H165.371" stroke="#52575E" stroke-width="1.2" stroke-linecap="round" stroke-linejoin="round"/>
<path d="M129.816 363.738L118.857 361.428C117.847 361.217 117.199 360.224 117.41 359.216L118.19 355.533C118.401 354.525 119.397 353.879 120.407 354.089L130.328 356.179" stroke="#52575E" stroke-width="1.2" stroke-linecap="round" stroke-linejoin="round"/>
<path d="M121.544 362.807C120.374 363.022 119.237 362.502 118.617 361.569" stroke="#52575E" stroke-width="1.2" stroke-linecap="round" stroke-linejoin="round"/>
<path d="M117.709 357.933L115.858 348.003C115.567 346.447 116.601 344.948 118.16 344.662L119.898 344.339C121.458 344.048 122.961 345.079 123.248 346.635L124.769 354.817" stroke="#52575E" stroke-width="1.2" stroke-linecap="round" stroke-linejoin="round"/>
<path d="M302.255 245.788C306.351 247.213 309.391 250.99 309.635 255.582L309.649 257.588" stroke="#52575E" stroke-width="1.2" stroke-linecap="round" stroke-linejoin="round"/>
<path d="M314.577 359.315C311.571 362.366 307.451 364.353 302.834 364.597L267.114 366.509C263.431 366.705 259.946 365.773 257.005 364.011" stroke="#52575E" stroke-width="1.2" stroke-linecap="round" stroke-linejoin="round"/>
<path d="M311.28 353.753C308.231 357.15 303.881 359.386 298.958 359.648L270.2 361.185C266.264 361.396 262.553 360.314 259.49 358.313" stroke="#52575E" stroke-width="1.2" stroke-linecap="round" stroke-linejoin="round"/>
<path d="M307.699 363.617L312.64 368.195C313.148 368.664 313.176 369.456 312.706 369.962L309.296 373.627C308.826 374.133 308.032 374.161 307.525 373.692L297.876 364.868" stroke="#52575E" stroke-width="1.2" stroke-linecap="round" stroke-linejoin="round"/>
<path d="M313.252 369.254L319.42 380.388C320.185 381.775 319.683 383.518 318.292 384.287L316.747 385.14C315.356 385.904 313.609 385.402 312.838 384.015L306.671 372.881" stroke="#52575E" stroke-width="1.2" stroke-linecap="round" stroke-linejoin="round"/>
<path d="M259.641 366.241L255.403 377.835" stroke="#52575E" stroke-width="1.2" stroke-linecap="round" stroke-linejoin="round"/>
<path d="M264.352 255.062C265.418 255.062 266.282 254.2 266.282 253.136C266.282 252.072 265.418 251.21 264.352 251.21C263.285 251.21 262.421 252.072 262.421 253.136C262.421 254.2 263.285 255.062 264.352 255.062Z" fill="#52575E"/>
<path d="M285.197 252.513C286.264 252.513 287.128 251.651 287.128 250.587C287.128 249.523 286.264 248.661 285.197 248.661C284.131 248.661 283.267 249.523 283.267 250.587C283.267 251.651 284.131 252.513 285.197 252.513Z" fill="#52575E"/>
<path d="M135.663 359.925L137.942 378.061L204.594 369.724L201.282 343.36C201.282 343.36 142.216 350.745 142.451 350.89C140.14 353.796 137.829 356.706 135.663 359.925Z" stroke="#52575E" stroke-width="1.2" stroke-linecap="round" stroke-linejoin="round"/>
<path d="M136.162 359.714C138.135 359.925 140.089 360.285 142.292 360.482C142.63 357.197 142.658 354.404 142.856 351.11" stroke="#52575E" stroke-width="1.2" stroke-linecap="round" stroke-linejoin="round"/>
<path d="M274.747 316.61L274 313.799H278.086V316.61H274.747Z" stroke="#52575E" stroke-width="1.2" stroke-linecap="round" stroke-linejoin="round"/>






<mask id="mask2_1_1303" style="mask-type:alpha" maskUnits="userSpaceOnUse" x="219" y="97" width="96" height="97">
<ellipse cx="267" cy="145.899" rx="48" ry="47.967" fill="#D9D9D9"/>
</mask>

</svg>